{"glyphs":{"0":{"ha":1358,"x_min":0,"x_max":0,"o":"m 32 1390 l 32 1335 l 1318 1335 l 1318 1390 z m 786 879 l 882 879 l 893 946 l 979 946 l 990 879 l 1086 879 l 999 1289 l 874 1289 z m 318 1289 l 318 879 l 413 879 l 413 1026 l 438 1026 l 503 879 l 608 879 l 531 1040 b 600 1158 579 1067 600 1103 b 518 1281 600 1218 569 1257 b 463 1289 503 1288 485 1289 z m 647 1289 l 647 879 l 743 879 l 743 1289 z m 22 1197 l 101 1197 l 101 879 l 197 879 l 197 1197 l 276 1197 l 276 1289 l 22 1289 z m 1131 879 l 1344 879 l 1344 971 l 1225 971 l 1225 1289 l 1131 1289 z m 413 1110 l 413 1197 l 457 1197 b 500 1154 483 1197 500 1181 b 457 1110 500 1128 483 1110 z m 935 1178 l 963 1033 l 910 1033 z m 322 513 b 354 468 329 494 339 481 b 451 431 381 442 414 431 b 592 569 533 431 592 490 l 592 722 b 550 822 592 757 578 800 b 451 860 524 849 486 860 b 354 822 414 860 381 849 b 322 781 339 813 329 796 b 311 722 315 761 311 742 l 311 569 b 322 513 311 549 315 529 z m 646 851 l 646 440 l 736 440 l 736 665 l 832 440 l 928 440 l 928 851 l 836 851 l 836 632 l 743 851 z m 46 440 l 139 440 l 139 594 l 264 594 l 264 685 l 139 685 l 139 758 l 278 758 l 278 851 l 46 851 z m 1047 758 l 1047 440 l 1142 440 l 1142 758 l 1221 758 l 1221 851 l 967 851 l 967 758 z m 407 722 b 421 757 407 738 411 749 b 451 768 431 764 440 768 b 481 757 461 768 471 764 b 494 722 490 749 494 738 l 494 568 b 451 524 494 542 478 524 b 407 569 424 524 407 542 z m 32 403 l 32 350 l 1318 350 l 1318 403 z m 864 183 b 928 110 864 139 890 110 b 976 138 953 110 969 119 l 979 111 l 1003 111 b 1001 129 1001 115 1001 122 l 1001 131 l 1001 132 l 1001 135 l 1001 136 l 1001 138 l 1001 139 l 1001 139 l 1001 146 l 1001 147 l 1001 325 l 975 325 l 975 239 b 929 260 965 250 951 260 b 864 183 892 260 864 232 z m 1058 282 b 1075 297 1068 282 1075 290 b 1058 315 1075 310 1069 315 b 1040 297 1046 315 1040 310 b 1058 282 1040 290 1049 282 z m 272 286 l 186 111 l 214 111 l 300 290 l 300 308 l 176 308 l 176 286 z m 329 308 l 329 286 l 426 286 l 342 111 l 369 111 l 454 290 l 454 308 z m 36 283 l 40 264 l 75 282 l 75 111 l 101 111 l 101 308 l 78 308 z m 592 239 l 615 239 l 615 158 b 653 110 615 131 621 110 b 678 114 665 110 674 111 l 678 133 b 671 131 676 132 674 131 l 669 131 l 668 131 l 667 131 l 667 131 l 665 131 l 665 131 l 663 131 l 663 131 l 661 131 b 642 158 649 131 642 140 l 642 239 l 679 239 l 679 258 l 642 258 l 642 300 l 615 292 l 615 258 l 592 258 z m 1104 183 b 1175 110 1104 138 1136 110 b 1247 186 1210 110 1247 131 b 1178 260 1247 231 1221 260 b 1104 183 1135 260 1104 232 z m 479 119 b 521 110 492 113 506 110 b 576 153 556 110 576 126 b 536 197 576 175 563 186 b 508 221 518 204 508 208 b 535 240 508 233 517 240 b 564 232 547 240 557 238 l 569 253 b 535 260 563 257 550 260 b 485 218 503 260 485 242 b 522 176 485 200 497 186 b 550 151 540 169 550 161 b 521 129 550 136 540 129 b 486 139 507 129 496 132 z m 758 110 b 807 135 785 110 800 124 l 808 111 l 832 111 b 831 151 832 124 831 136 l 831 258 l 804 258 l 804 169 b 767 131 804 149 789 131 b 735 176 743 131 735 149 l 735 258 l 707 258 l 707 172 b 758 110 707 121 735 110 z m 1071 111 l 1071 258 l 1044 258 l 1044 111 z m 935 240 b 974 208 956 240 969 226 b 975 199 974 207 975 203 l 975 172 b 974 161 975 168 974 165 b 933 129 969 140 951 129 b 892 185 906 129 892 156 b 935 240 892 217 907 240 z m 1132 185 b 1175 240 1132 213 1146 240 b 1219 185 1207 240 1219 211 b 1175 129 1219 153 1201 129 b 1132 185 1149 129 1132 153 z m 189 -3 b 254 -71 189 -46 219 -71 b 319 1 288 -71 319 -49 b 258 69 319 40 296 69 b 189 -3 221 69 189 46 z m 353 -69 l 375 -69 l 375 11 b 379 28 375 17 375 21 b 406 50 381 38 393 50 b 435 11 428 50 435 35 l 435 -69 l 458 -69 l 458 15 b 460 28 458 21 460 22 b 489 50 464 38 474 50 b 519 10 510 50 519 36 l 519 -69 l 544 -69 l 544 11 b 500 69 544 57 515 69 b 469 63 486 69 476 67 b 454 44 464 56 458 50 b 415 69 447 57 436 69 b 372 44 393 69 382 57 l 372 68 l 349 68 b 353 29 353 56 353 44 z m 68 -3 b 135 -71 68 -42 94 -71 b 172 -64 153 -71 167 -65 l 168 -46 b 140 -51 161 -50 153 -51 b 92 -3 113 -51 92 -31 b 140 50 92 29 107 50 b 168 44 153 50 161 49 l 174 63 b 140 69 167 68 156 69 b 68 -3 96 69 68 38 z m 254 51 b 294 1 282 51 294 22 b 254 -53 294 -31 278 -53 b 214 -3 232 -53 214 -31 b 254 51 214 24 226 51 z m 32 -71 b 49 -53 39 -71 49 -64 b 32 -36 49 -42 39 -36 b 14 -53 19 -36 14 -42 b 32 -71 14 -65 19 -71 z "},"1":{"ha":808,"x_min":0,"x_max":0,"o":"m 64 1036 b 79 1006 69 1021 72 1013 b 213 667 168 900 213 783 l 213 647 b 208 533 210 611 208 574 b 214 368 208 518 208 464 b 232 114 218 272 226 181 b 371 0 239 49 299 0 l 568 0 b 708 121 643 0 708 56 l 708 126 l 708 146 l 708 150 l 708 154 l 708 158 l 708 163 l 708 167 l 708 172 l 708 176 l 708 181 l 708 186 l 708 190 l 708 243 l 708 247 l 708 283 l 708 308 l 708 314 l 708 321 l 708 326 l 708 332 l 708 338 l 708 343 l 708 350 l 708 356 l 708 361 l 708 367 l 708 431 l 708 438 l 708 469 b 707 899 708 607 707 758 l 707 924 l 707 931 l 707 936 l 707 956 l 707 961 l 707 968 l 707 979 l 707 986 l 707 989 l 707 1099 l 707 1118 l 707 1124 l 707 1128 l 707 1144 l 707 1150 l 707 1156 l 707 1165 l 707 1171 l 707 1172 l 707 1256 b 556 1390 707 1332 638 1390 l 231 1390 b 81 1278 153 1390 93 1343 b 57 1092 69 1213 57 1139 b 64 1036 57 1086 57 1060 z m 626 1274 b 671 1228 631 1250 646 1235 b 626 1181 644 1222 631 1207 b 581 1228 621 1207 606 1222 b 626 1274 607 1235 619 1250 z m 283 1106 l 238 1185 l 321 1146 l 383 1214 l 374 1124 l 456 1085 l 388 1072 b 528 886 438 1032 494 969 b 557 731 561 803 557 743 b 531 588 557 685 549 638 b 532 603 532 592 532 597 l 532 604 l 532 606 l 532 606 l 532 607 l 532 608 l 532 611 l 532 611 l 532 619 b 519 697 532 635 532 660 b 456 544 519 651 474 569 b 463 642 461 588 463 621 l 463 643 l 463 644 l 463 647 l 463 649 l 463 651 l 463 653 l 463 663 b 461 682 463 669 463 675 b 393 596 440 643 415 619 b 429 693 403 611 418 644 b 442 801 440 742 442 779 b 363 1042 442 856 433 953 l 357 978 l 311 1057 l 221 1039 z m 343 340 b 389 296 349 315 364 300 b 343 247 364 288 349 271 b 297 294 339 271 324 288 b 343 340 325 300 338 314 z "},"2":{"ha":1358,"x_min":0,"x_max":0,"o":"m 32 1390 l 32 1335 l 1318 1335 l 1318 1390 z m 786 879 l 882 879 l 893 946 l 979 946 l 990 879 l 1086 879 l 999 1289 l 874 1289 z m 318 1289 l 318 879 l 413 879 l 413 1026 l 438 1026 l 503 879 l 608 879 l 531 1040 b 600 1158 579 1067 600 1103 b 518 1281 600 1218 569 1257 b 463 1289 503 1288 485 1289 z m 647 1289 l 647 879 l 743 879 l 743 1289 z m 22 1197 l 101 1197 l 101 879 l 197 879 l 197 1197 l 276 1197 l 276 1289 l 22 1289 z m 1131 879 l 1344 879 l 1344 971 l 1225 971 l 1225 1289 l 1131 1289 z m 413 1110 l 413 1197 l 457 1197 b 500 1154 483 1197 500 1181 b 457 1110 500 1128 483 1110 z m 935 1178 l 963 1033 l 910 1033 z m 322 513 b 354 468 329 494 339 481 b 451 431 381 442 414 431 b 592 569 533 431 592 490 l 592 722 b 550 822 592 757 578 800 b 451 860 524 849 486 860 b 354 822 414 860 381 849 b 322 781 339 813 329 796 b 311 722 315 761 311 742 l 311 569 b 322 513 311 549 315 529 z m 646 851 l 646 440 l 736 440 l 736 665 l 832 440 l 928 440 l 928 851 l 836 851 l 836 632 l 743 851 z m 46 440 l 139 440 l 139 594 l 264 594 l 264 685 l 139 685 l 139 758 l 278 758 l 278 851 l 46 851 z m 1047 758 l 1047 440 l 1142 440 l 1142 758 l 1221 758 l 1221 851 l 967 851 l 967 758 z m 407 722 b 421 757 407 738 411 749 b 451 768 431 764 440 768 b 481 757 461 768 471 764 b 494 722 490 749 494 738 l 494 568 b 451 524 494 542 478 524 b 407 569 424 524 407 542 z m 32 403 l 32 350 l 1318 350 l 1318 403 z m 864 183 b 928 110 864 139 890 110 b 976 138 953 110 969 119 l 979 111 l 1003 111 b 1001 129 1001 115 1001 122 l 1001 131 l 1001 132 l 1001 135 l 1001 136 l 1001 138 l 1001 139 l 1001 139 l 1001 146 l 1001 147 l 1001 325 l 975 325 l 975 239 b 929 260 965 250 951 260 b 864 183 892 260 864 232 z m 1058 282 b 1075 297 1068 282 1075 290 b 1058 315 1075 310 1069 315 b 1040 297 1046 315 1040 310 b 1058 282 1040 290 1049 282 z m 272 286 l 186 111 l 214 111 l 300 290 l 300 308 l 176 308 l 176 286 z m 329 308 l 329 286 l 426 286 l 342 111 l 369 111 l 454 290 l 454 308 z m 36 283 l 40 264 l 75 282 l 75 111 l 101 111 l 101 308 l 78 308 z m 592 239 l 615 239 l 615 158 b 653 110 615 131 621 110 b 678 114 665 110 674 111 l 678 133 b 671 131 676 132 674 131 l 669 131 l 668 131 l 667 131 l 667 131 l 665 131 l 665 131 l 663 131 l 663 131 l 661 131 b 642 158 649 131 642 140 l 642 239 l 679 239 l 679 258 l 642 258 l 642 300 l 615 292 l 615 258 l 592 258 z m 1104 183 b 1175 110 1104 138 1136 110 b 1247 186 1210 110 1247 131 b 1178 260 1247 231 1221 260 b 1104 183 1135 260 1104 232 z m 479 119 b 521 110 492 113 506 110 b 576 153 556 110 576 126 b 536 197 576 175 563 186 b 508 221 518 204 508 208 b 535 240 508 233 517 240 b 564 232 547 240 557 238 l 569 253 b 535 260 563 257 550 260 b 485 218 503 260 485 242 b 522 176 485 200 497 186 b 550 151 540 169 550 161 b 521 129 550 136 540 129 b 486 139 507 129 496 132 z m 758 110 b 807 135 785 110 800 124 l 808 111 l 832 111 b 831 151 832 124 831 136 l 831 258 l 804 258 l 804 169 b 767 131 804 149 789 131 b 735 176 743 131 735 149 l 735 258 l 707 258 l 707 172 b 758 110 707 121 735 110 z m 1071 111 l 1071 258 l 1044 258 l 1044 111 z m 935 240 b 974 208 956 240 969 226 b 975 199 974 207 975 203 l 975 172 b 974 161 975 168 974 165 b 933 129 969 140 951 129 b 892 185 906 129 892 156 b 935 240 892 217 907 240 z m 1132 185 b 1175 240 1132 213 1146 240 b 1219 185 1207 240 1219 211 b 1175 129 1219 153 1201 129 b 1132 185 1149 129 1132 153 z m 189 -3 b 254 -71 189 -46 219 -71 b 319 1 288 -71 319 -49 b 258 69 319 40 296 69 b 189 -3 221 69 189 46 z m 353 -69 l 375 -69 l 375 11 b 379 28 375 17 375 21 b 406 50 381 38 393 50 b 435 11 428 50 435 35 l 435 -69 l 458 -69 l 458 15 b 460 28 458 21 460 22 b 489 50 464 38 474 50 b 519 10 510 50 519 36 l 519 -69 l 544 -69 l 544 11 b 500 69 544 57 515 69 b 469 63 486 69 476 67 b 454 44 464 56 458 50 b 415 69 447 57 436 69 b 372 44 393 69 382 57 l 372 68 l 349 68 b 353 29 353 56 353 44 z m 68 -3 b 135 -71 68 -42 94 -71 b 172 -64 153 -71 167 -65 l 168 -46 b 140 -51 161 -50 153 -51 b 92 -3 113 -51 92 -31 b 140 50 92 29 107 50 b 168 44 153 50 161 49 l 174 63 b 140 69 167 68 156 69 b 68 -3 96 69 68 38 z m 254 51 b 294 1 282 51 294 22 b 254 -53 294 -31 278 -53 b 214 -3 232 -53 214 -31 b 254 51 214 24 226 51 z m 32 -71 b 49 -53 39 -71 49 -64 b 32 -36 49 -42 39 -36 b 14 -53 19 -36 14 -42 b 32 -71 14 -65 19 -71 z "},"3":{"ha":1358,"x_min":0,"x_max":0,"o":"m 32 1390 l 32 1335 l 1318 1335 l 1318 1390 z m 786 879 l 882 879 l 893 946 l 979 946 l 990 879 l 1086 879 l 999 1289 l 874 1289 z m 318 1289 l 318 879 l 413 879 l 413 1026 l 438 1026 l 503 879 l 608 879 l 531 1040 b 600 1158 579 1067 600 1103 b 518 1281 600 1218 569 1257 b 463 1289 503 1288 485 1289 z m 647 1289 l 647 879 l 743 879 l 743 1289 z m 22 1197 l 101 1197 l 101 879 l 197 879 l 197 1197 l 276 1197 l 276 1289 l 22 1289 z m 1131 879 l 1344 879 l 1344 971 l 1225 971 l 1225 1289 l 1131 1289 z m 413 1110 l 413 1197 l 457 1197 b 500 1154 483 1197 500 1181 b 457 1110 500 1128 483 1110 z m 935 1178 l 963 1033 l 910 1033 z m 322 513 b 354 468 329 494 339 481 b 451 431 381 442 414 431 b 592 569 533 431 592 490 l 592 722 b 550 822 592 757 578 800 b 451 860 524 849 486 860 b 354 822 414 860 381 849 b 322 781 339 813 329 796 b 311 722 315 761 311 742 l 311 569 b 322 513 311 549 315 529 z m 646 851 l 646 440 l 736 440 l 736 665 l 832 440 l 928 440 l 928 851 l 836 851 l 836 632 l 743 851 z m 46 440 l 139 440 l 139 594 l 264 594 l 264 685 l 139 685 l 139 758 l 278 758 l 278 851 l 46 851 z m 1047 758 l 1047 440 l 1142 440 l 1142 758 l 1221 758 l 1221 851 l 967 851 l 967 758 z m 407 722 b 421 757 407 738 411 749 b 451 768 431 764 440 768 b 481 757 461 768 471 764 b 494 722 490 749 494 738 l 494 568 b 451 524 494 542 478 524 b 407 569 424 524 407 542 z m 32 403 l 32 350 l 1318 350 l 1318 403 z m 864 183 b 928 110 864 139 890 110 b 976 138 953 110 969 119 l 979 111 l 1003 111 b 1001 129 1001 115 1001 122 l 1001 131 l 1001 132 l 1001 135 l 1001 136 l 1001 138 l 1001 139 l 1001 139 l 1001 146 l 1001 147 l 1001 325 l 975 325 l 975 239 b 929 260 965 250 951 260 b 864 183 892 260 864 232 z m 1058 282 b 1075 297 1068 282 1075 290 b 1058 315 1075 310 1069 315 b 1040 297 1046 315 1040 310 b 1058 282 1040 290 1049 282 z m 272 286 l 186 111 l 214 111 l 300 290 l 300 308 l 176 308 l 176 286 z m 329 308 l 329 286 l 426 286 l 342 111 l 369 111 l 454 290 l 454 308 z m 36 283 l 40 264 l 75 282 l 75 111 l 101 111 l 101 308 l 78 308 z m 592 239 l 615 239 l 615 158 b 653 110 615 131 621 110 b 678 114 665 110 674 111 l 678 133 b 671 131 676 132 674 131 l 669 131 l 668 131 l 667 131 l 667 131 l 665 131 l 665 131 l 663 131 l 663 131 l 661 131 b 642 158 649 131 642 140 l 642 239 l 679 239 l 679 258 l 642 258 l 642 300 l 615 292 l 615 258 l 592 258 z m 1104 183 b 1175 110 1104 138 1136 110 b 1247 186 1210 110 1247 131 b 1178 260 1247 231 1221 260 b 1104 183 1135 260 1104 232 z m 479 119 b 521 110 492 113 506 110 b 576 153 556 110 576 126 b 536 197 576 175 563 186 b 508 221 518 204 508 208 b 535 240 508 233 517 240 b 564 232 547 240 557 238 l 569 253 b 535 260 563 257 550 260 b 485 218 503 260 485 242 b 522 176 485 200 497 186 b 550 151 540 169 550 161 b 521 129 550 136 540 129 b 486 139 507 129 496 132 z m 758 110 b 807 135 785 110 800 124 l 808 111 l 832 111 b 831 151 832 124 831 136 l 831 258 l 804 258 l 804 169 b 767 131 804 149 789 131 b 735 176 743 131 735 149 l 735 258 l 707 258 l 707 172 b 758 110 707 121 735 110 z m 1071 111 l 1071 258 l 1044 258 l 1044 111 z m 935 240 b 974 208 956 240 969 226 b 975 199 974 207 975 203 l 975 172 b 974 161 975 168 974 165 b 933 129 969 140 951 129 b 892 185 906 129 892 156 b 935 240 892 217 907 240 z m 1132 185 b 1175 240 1132 213 1146 240 b 1219 185 1207 240 1219 211 b 1175 129 1219 153 1201 129 b 1132 185 1149 129 1132 153 z m 189 -3 b 254 -71 189 -46 219 -71 b 319 1 288 -71 319 -49 b 258 69 319 40 296 69 b 189 -3 221 69 189 46 z m 353 -69 l 375 -69 l 375 11 b 379 28 375 17 375 21 b 406 50 381 38 393 50 b 435 11 428 50 435 35 l 435 -69 l 458 -69 l 458 15 b 460 28 458 21 460 22 b 489 50 464 38 474 50 b 519 10 510 50 519 36 l 519 -69 l 544 -69 l 544 11 b 500 69 544 57 515 69 b 469 63 486 69 476 67 b 454 44 464 56 458 50 b 415 69 447 57 436 69 b 372 44 393 69 382 57 l 372 68 l 349 68 b 353 29 353 56 353 44 z m 68 -3 b 135 -71 68 -42 94 -71 b 172 -64 153 -71 167 -65 l 168 -46 b 140 -51 161 -50 153 -51 b 92 -3 113 -51 92 -31 b 140 50 92 29 107 50 b 168 44 153 50 161 49 l 174 63 b 140 69 167 68 156 69 b 68 -3 96 69 68 38 z m 254 51 b 294 1 282 51 294 22 b 254 -53 294 -31 278 -53 b 214 -3 232 -53 214 -31 b 254 51 214 24 226 51 z m 32 -71 b 49 -53 39 -71 49 -64 b 32 -36 49 -42 39 -36 b 14 -53 19 -36 14 -42 b 32 -71 14 -65 19 -71 z "},"4":{"ha":1358,"x_min":0,"x_max":0,"o":"m 32 1390 l 32 1335 l 1318 1335 l 1318 1390 z m 786 879 l 882 879 l 893 946 l 979 946 l 990 879 l 1086 879 l 999 1289 l 874 1289 z m 318 1289 l 318 879 l 413 879 l 413 1026 l 438 1026 l 503 879 l 608 879 l 531 1040 b 600 1158 579 1067 600 1103 b 518 1281 600 1218 569 1257 b 463 1289 503 1288 485 1289 z m 647 1289 l 647 879 l 743 879 l 743 1289 z m 22 1197 l 101 1197 l 101 879 l 197 879 l 197 1197 l 276 1197 l 276 1289 l 22 1289 z m 1131 879 l 1344 879 l 1344 971 l 1225 971 l 1225 1289 l 1131 1289 z m 413 1110 l 413 1197 l 457 1197 b 500 1154 483 1197 500 1181 b 457 1110 500 1128 483 1110 z m 935 1178 l 963 1033 l 910 1033 z m 322 513 b 354 468 329 494 339 481 b 451 431 381 442 414 431 b 592 569 533 431 592 490 l 592 722 b 550 822 592 757 578 800 b 451 860 524 849 486 860 b 354 822 414 860 381 849 b 322 781 339 813 329 796 b 311 722 315 761 311 742 l 311 569 b 322 513 311 549 315 529 z m 646 851 l 646 440 l 736 440 l 736 665 l 832 440 l 928 440 l 928 851 l 836 851 l 836 632 l 743 851 z m 46 440 l 139 440 l 139 594 l 264 594 l 264 685 l 139 685 l 139 758 l 278 758 l 278 851 l 46 851 z m 1047 758 l 1047 440 l 1142 440 l 1142 758 l 1221 758 l 1221 851 l 967 851 l 967 758 z m 407 722 b 421 757 407 738 411 749 b 451 768 431 764 440 768 b 481 757 461 768 471 764 b 494 722 490 749 494 738 l 494 568 b 451 524 494 542 478 524 b 407 569 424 524 407 542 z m 32 403 l 32 350 l 1318 350 l 1318 403 z m 864 183 b 928 110 864 139 890 110 b 976 138 953 110 969 119 l 979 111 l 1003 111 b 1001 129 1001 115 1001 122 l 1001 131 l 1001 132 l 1001 135 l 1001 136 l 1001 138 l 1001 139 l 1001 139 l 1001 146 l 1001 147 l 1001 325 l 975 325 l 975 239 b 929 260 965 250 951 260 b 864 183 892 260 864 232 z m 1058 282 b 1075 297 1068 282 1075 290 b 1058 315 1075 310 1069 315 b 1040 297 1046 315 1040 310 b 1058 282 1040 290 1049 282 z m 272 286 l 186 111 l 214 111 l 300 290 l 300 308 l 176 308 l 176 286 z m 329 308 l 329 286 l 426 286 l 342 111 l 369 111 l 454 290 l 454 308 z m 36 283 l 40 264 l 75 282 l 75 111 l 101 111 l 101 308 l 78 308 z m 592 239 l 615 239 l 615 158 b 653 110 615 131 621 110 b 678 114 665 110 674 111 l 678 133 b 671 131 676 132 674 131 l 669 131 l 668 131 l 667 131 l 667 131 l 665 131 l 665 131 l 663 131 l 663 131 l 661 131 b 642 158 649 131 642 140 l 642 239 l 679 239 l 679 258 l 642 258 l 642 300 l 615 292 l 615 258 l 592 258 z m 1104 183 b 1175 110 1104 138 1136 110 b 1247 186 1210 110 1247 131 b 1178 260 1247 231 1221 260 b 1104 183 1135 260 1104 232 z m 479 119 b 521 110 492 113 506 110 b 576 153 556 110 576 126 b 536 197 576 175 563 186 b 508 221 518 204 508 208 b 535 240 508 233 517 240 b 564 232 547 240 557 238 l 569 253 b 535 260 563 257 550 260 b 485 218 503 260 485 242 b 522 176 485 200 497 186 b 550 151 540 169 550 161 b 521 129 550 136 540 129 b 486 139 507 129 496 132 z m 758 110 b 807 135 785 110 800 124 l 808 111 l 832 111 b 831 151 832 124 831 136 l 831 258 l 804 258 l 804 169 b 767 131 804 149 789 131 b 735 176 743 131 735 149 l 735 258 l 707 258 l 707 172 b 758 110 707 121 735 110 z m 1071 111 l 1071 258 l 1044 258 l 1044 111 z m 935 240 b 974 208 956 240 969 226 b 975 199 974 207 975 203 l 975 172 b 974 161 975 168 974 165 b 933 129 969 140 951 129 b 892 185 906 129 892 156 b 935 240 892 217 907 240 z m 1132 185 b 1175 240 1132 213 1146 240 b 1219 185 1207 240 1219 211 b 1175 129 1219 153 1201 129 b 1132 185 1149 129 1132 153 z m 189 -3 b 254 -71 189 -46 219 -71 b 319 1 288 -71 319 -49 b 258 69 319 40 296 69 b 189 -3 221 69 189 46 z m 353 -69 l 375 -69 l 375 11 b 379 28 375 17 375 21 b 406 50 381 38 393 50 b 435 11 428 50 435 35 l 435 -69 l 458 -69 l 458 15 b 460 28 458 21 460 22 b 489 50 464 38 474 50 b 519 10 510 50 519 36 l 519 -69 l 544 -69 l 544 11 b 500 69 544 57 515 69 b 469 63 486 69 476 67 b 454 44 464 56 458 50 b 415 69 447 57 436 69 b 372 44 393 69 382 57 l 372 68 l 349 68 b 353 29 353 56 353 44 z m 68 -3 b 135 -71 68 -42 94 -71 b 172 -64 153 -71 167 -65 l 168 -46 b 140 -51 161 -50 153 -51 b 92 -3 113 -51 92 -31 b 140 50 92 29 107 50 b 168 44 153 50 161 49 l 174 63 b 140 69 167 68 156 69 b 68 -3 96 69 68 38 z m 254 51 b 294 1 282 51 294 22 b 254 -53 294 -31 278 -53 b 214 -3 232 -53 214 -31 b 254 51 214 24 226 51 z m 32 -71 b 49 -53 39 -71 49 -64 b 32 -36 49 -42 39 -36 b 14 -53 19 -36 14 -42 b 32 -71 14 -65 19 -71 z "},"5":{"ha":1358,"x_min":0,"x_max":0,"o":"m 32 1390 l 32 1335 l 1318 1335 l 1318 1390 z m 786 879 l 882 879 l 893 946 l 979 946 l 990 879 l 1086 879 l 999 1289 l 874 1289 z m 318 1289 l 318 879 l 413 879 l 413 1026 l 438 1026 l 503 879 l 608 879 l 531 1040 b 600 1158 579 1067 600 1103 b 518 1281 600 1218 569 1257 b 463 1289 503 1288 485 1289 z m 647 1289 l 647 879 l 743 879 l 743 1289 z m 22 1197 l 101 1197 l 101 879 l 197 879 l 197 1197 l 276 1197 l 276 1289 l 22 1289 z m 1131 879 l 1344 879 l 1344 971 l 1225 971 l 1225 1289 l 1131 1289 z m 413 1110 l 413 1197 l 457 1197 b 500 1154 483 1197 500 1181 b 457 1110 500 1128 483 1110 z m 935 1178 l 963 1033 l 910 1033 z m 322 513 b 354 468 329 494 339 481 b 451 431 381 442 414 431 b 592 569 533 431 592 490 l 592 722 b 550 822 592 757 578 800 b 451 860 524 849 486 860 b 354 822 414 860 381 849 b 322 781 339 813 329 796 b 311 722 315 761 311 742 l 311 569 b 322 513 311 549 315 529 z m 646 851 l 646 440 l 736 440 l 736 665 l 832 440 l 928 440 l 928 851 l 836 851 l 836 632 l 743 851 z m 46 440 l 139 440 l 139 594 l 264 594 l 264 685 l 139 685 l 139 758 l 278 758 l 278 851 l 46 851 z m 1047 758 l 1047 440 l 1142 440 l 1142 758 l 1221 758 l 1221 851 l 967 851 l 967 758 z m 407 722 b 421 757 407 738 411 749 b 451 768 431 764 440 768 b 481 757 461 768 471 764 b 494 722 490 749 494 738 l 494 568 b 451 524 494 542 478 524 b 407 569 424 524 407 542 z m 32 403 l 32 350 l 1318 350 l 1318 403 z m 864 183 b 928 110 864 139 890 110 b 976 138 953 110 969 119 l 979 111 l 1003 111 b 1001 129 1001 115 1001 122 l 1001 131 l 1001 132 l 1001 135 l 1001 136 l 1001 138 l 1001 139 l 1001 139 l 1001 146 l 1001 147 l 1001 325 l 975 325 l 975 239 b 929 260 965 250 951 260 b 864 183 892 260 864 232 z m 1058 282 b 1075 297 1068 282 1075 290 b 1058 315 1075 310 1069 315 b 1040 297 1046 315 1040 310 b 1058 282 1040 290 1049 282 z m 272 286 l 186 111 l 214 111 l 300 290 l 300 308 l 176 308 l 176 286 z m 329 308 l 329 286 l 426 286 l 342 111 l 369 111 l 454 290 l 454 308 z m 36 283 l 40 264 l 75 282 l 75 111 l 101 111 l 101 308 l 78 308 z m 592 239 l 615 239 l 615 158 b 653 110 615 131 621 110 b 678 114 665 110 674 111 l 678 133 b 671 131 676 132 674 131 l 669 131 l 668 131 l 667 131 l 667 131 l 665 131 l 665 131 l 663 131 l 663 131 l 661 131 b 642 158 649 131 642 140 l 642 239 l 679 239 l 679 258 l 642 258 l 642 300 l 615 292 l 615 258 l 592 258 z m 1104 183 b 1175 110 1104 138 1136 110 b 1247 186 1210 110 1247 131 b 1178 260 1247 231 1221 260 b 1104 183 1135 260 1104 232 z m 479 119 b 521 110 492 113 506 110 b 576 153 556 110 576 126 b 536 197 576 175 563 186 b 508 221 518 204 508 208 b 535 240 508 233 517 240 b 564 232 547 240 557 238 l 569 253 b 535 260 563 257 550 260 b 485 218 503 260 485 242 b 522 176 485 200 497 186 b 550 151 540 169 550 161 b 521 129 550 136 540 129 b 486 139 507 129 496 132 z m 758 110 b 807 135 785 110 800 124 l 808 111 l 832 111 b 831 151 832 124 831 136 l 831 258 l 804 258 l 804 169 b 767 131 804 149 789 131 b 735 176 743 131 735 149 l 735 258 l 707 258 l 707 172 b 758 110 707 121 735 110 z m 1071 111 l 1071 258 l 1044 258 l 1044 111 z m 935 240 b 974 208 956 240 969 226 b 975 199 974 207 975 203 l 975 172 b 974 161 975 168 974 165 b 933 129 969 140 951 129 b 892 185 906 129 892 156 b 935 240 892 217 907 240 z m 1132 185 b 1175 240 1132 213 1146 240 b 1219 185 1207 240 1219 211 b 1175 129 1219 153 1201 129 b 1132 185 1149 129 1132 153 z m 189 -3 b 254 -71 189 -46 219 -71 b 319 1 288 -71 319 -49 b 258 69 319 40 296 69 b 189 -3 221 69 189 46 z m 353 -69 l 375 -69 l 375 11 b 379 28 375 17 375 21 b 406 50 381 38 393 50 b 435 11 428 50 435 35 l 435 -69 l 458 -69 l 458 15 b 460 28 458 21 460 22 b 489 50 464 38 474 50 b 519 10 510 50 519 36 l 519 -69 l 544 -69 l 544 11 b 500 69 544 57 515 69 b 469 63 486 69 476 67 b 454 44 464 56 458 50 b 415 69 447 57 436 69 b 372 44 393 69 382 57 l 372 68 l 349 68 b 353 29 353 56 353 44 z m 68 -3 b 135 -71 68 -42 94 -71 b 172 -64 153 -71 167 -65 l 168 -46 b 140 -51 161 -50 153 -51 b 92 -3 113 -51 92 -31 b 140 50 92 29 107 50 b 168 44 153 50 161 49 l 174 63 b 140 69 167 68 156 69 b 68 -3 96 69 68 38 z m 254 51 b 294 1 282 51 294 22 b 254 -53 294 -31 278 -53 b 214 -3 232 -53 214 -31 b 254 51 214 24 226 51 z m 32 -71 b 49 -53 39 -71 49 -64 b 32 -36 49 -42 39 -36 b 14 -53 19 -36 14 -42 b 32 -71 14 -65 19 -71 z "},"6":{"ha":1358,"x_min":0,"x_max":0,"o":"m 32 1390 l 32 1335 l 1318 1335 l 1318 1390 z m 786 879 l 882 879 l 893 946 l 979 946 l 990 879 l 1086 879 l 999 1289 l 874 1289 z m 318 1289 l 318 879 l 413 879 l 413 1026 l 438 1026 l 503 879 l 608 879 l 531 1040 b 600 1158 579 1067 600 1103 b 518 1281 600 1218 569 1257 b 463 1289 503 1288 485 1289 z m 647 1289 l 647 879 l 743 879 l 743 1289 z m 22 1197 l 101 1197 l 101 879 l 197 879 l 197 1197 l 276 1197 l 276 1289 l 22 1289 z m 1131 879 l 1344 879 l 1344 971 l 1225 971 l 1225 1289 l 1131 1289 z m 413 1110 l 413 1197 l 457 1197 b 500 1154 483 1197 500 1181 b 457 1110 500 1128 483 1110 z m 935 1178 l 963 1033 l 910 1033 z m 322 513 b 354 468 329 494 339 481 b 451 431 381 442 414 431 b 592 569 533 431 592 490 l 592 722 b 550 822 592 757 578 800 b 451 860 524 849 486 860 b 354 822 414 860 381 849 b 322 781 339 813 329 796 b 311 722 315 761 311 742 l 311 569 b 322 513 311 549 315 529 z m 646 851 l 646 440 l 736 440 l 736 665 l 832 440 l 928 440 l 928 851 l 836 851 l 836 632 l 743 851 z m 46 440 l 139 440 l 139 594 l 264 594 l 264 685 l 139 685 l 139 758 l 278 758 l 278 851 l 46 851 z m 1047 758 l 1047 440 l 1142 440 l 1142 758 l 1221 758 l 1221 851 l 967 851 l 967 758 z m 407 722 b 421 757 407 738 411 749 b 451 768 431 764 440 768 b 481 757 461 768 471 764 b 494 722 490 749 494 738 l 494 568 b 451 524 494 542 478 524 b 407 569 424 524 407 542 z m 32 403 l 32 350 l 1318 350 l 1318 403 z m 864 183 b 928 110 864 139 890 110 b 976 138 953 110 969 119 l 979 111 l 1003 111 b 1001 129 1001 115 1001 122 l 1001 131 l 1001 132 l 1001 135 l 1001 136 l 1001 138 l 1001 139 l 1001 139 l 1001 146 l 1001 147 l 1001 325 l 975 325 l 975 239 b 929 260 965 250 951 260 b 864 183 892 260 864 232 z m 1058 282 b 1075 297 1068 282 1075 290 b 1058 315 1075 310 1069 315 b 1040 297 1046 315 1040 310 b 1058 282 1040 290 1049 282 z m 272 286 l 186 111 l 214 111 l 300 290 l 300 308 l 176 308 l 176 286 z m 329 308 l 329 286 l 426 286 l 342 111 l 369 111 l 454 290 l 454 308 z m 36 283 l 40 264 l 75 282 l 75 111 l 101 111 l 101 308 l 78 308 z m 592 239 l 615 239 l 615 158 b 653 110 615 131 621 110 b 678 114 665 110 674 111 l 678 133 b 671 131 676 132 674 131 l 669 131 l 668 131 l 667 131 l 667 131 l 665 131 l 665 131 l 663 131 l 663 131 l 661 131 b 642 158 649 131 642 140 l 642 239 l 679 239 l 679 258 l 642 258 l 642 300 l 615 292 l 615 258 l 592 258 z m 1104 183 b 1175 110 1104 138 1136 110 b 1247 186 1210 110 1247 131 b 1178 260 1247 231 1221 260 b 1104 183 1135 260 1104 232 z m 479 119 b 521 110 492 113 506 110 b 576 153 556 110 576 126 b 536 197 576 175 563 186 b 508 221 518 204 508 208 b 535 240 508 233 517 240 b 564 232 547 240 557 238 l 569 253 b 535 260 563 257 550 260 b 485 218 503 260 485 242 b 522 176 485 200 497 186 b 550 151 540 169 550 161 b 521 129 550 136 540 129 b 486 139 507 129 496 132 z m 758 110 b 807 135 785 110 800 124 l 808 111 l 832 111 b 831 151 832 124 831 136 l 831 258 l 804 258 l 804 169 b 767 131 804 149 789 131 b 735 176 743 131 735 149 l 735 258 l 707 258 l 707 172 b 758 110 707 121 735 110 z m 1071 111 l 1071 258 l 1044 258 l 1044 111 z m 935 240 b 974 208 956 240 969 226 b 975 199 974 207 975 203 l 975 172 b 974 161 975 168 974 165 b 933 129 969 140 951 129 b 892 185 906 129 892 156 b 935 240 892 217 907 240 z m 1132 185 b 1175 240 1132 213 1146 240 b 1219 185 1207 240 1219 211 b 1175 129 1219 153 1201 129 b 1132 185 1149 129 1132 153 z m 189 -3 b 254 -71 189 -46 219 -71 b 319 1 288 -71 319 -49 b 258 69 319 40 296 69 b 189 -3 221 69 189 46 z m 353 -69 l 375 -69 l 375 11 b 379 28 375 17 375 21 b 406 50 381 38 393 50 b 435 11 428 50 435 35 l 435 -69 l 458 -69 l 458 15 b 460 28 458 21 460 22 b 489 50 464 38 474 50 b 519 10 510 50 519 36 l 519 -69 l 544 -69 l 544 11 b 500 69 544 57 515 69 b 469 63 486 69 476 67 b 454 44 464 56 458 50 b 415 69 447 57 436 69 b 372 44 393 69 382 57 l 372 68 l 349 68 b 353 29 353 56 353 44 z m 68 -3 b 135 -71 68 -42 94 -71 b 172 -64 153 -71 167 -65 l 168 -46 b 140 -51 161 -50 153 -51 b 92 -3 113 -51 92 -31 b 140 50 92 29 107 50 b 168 44 153 50 161 49 l 174 63 b 140 69 167 68 156 69 b 68 -3 96 69 68 38 z m 254 51 b 294 1 282 51 294 22 b 254 -53 294 -31 278 -53 b 214 -3 232 -53 214 -31 b 254 51 214 24 226 51 z m 32 -71 b 49 -53 39 -71 49 -64 b 32 -36 49 -42 39 -36 b 14 -53 19 -36 14 -42 b 32 -71 14 -65 19 -71 z "},"7":{"ha":1101,"x_min":0,"x_max":0,"o":"m 56 1007 b 119 935 56 968 82 936 b 261 929 160 931 217 929 l 340 929 l 343 285 l 343 79 b 421 0 343 35 378 0 l 925 0 b 1003 79 968 0 1003 36 l 1003 229 l 1003 233 l 1003 247 l 1003 253 l 1003 257 l 1003 261 l 1003 267 l 1003 271 l 1003 275 l 1003 281 l 1003 285 l 1003 290 l 1003 390 l 1003 396 l 1003 411 l 1003 417 l 1003 422 l 1003 428 l 1003 433 l 1003 439 l 1003 444 l 1003 450 l 1003 456 l 1003 461 l 1003 567 b 993 1249 1003 815 1000 1089 l 578 821 l 631 800 l 571 778 l 550 719 l 526 778 l 468 800 l 526 822 l 550 882 l 565 839 l 993 1254 b 992 1313 993 1275 992 1296 b 914 1390 988 1356 954 1390 l 146 1385 b 71 1310 106 1383 72 1353 b 56 1007 64 1225 56 1089 z m 619 1183 l 631 1153 l 871 1378 l 643 1135 l 682 1121 l 636 1104 l 619 1058 l 601 1104 l 557 1121 l 601 1138 z m 471 1346 l 481 1318 l 506 1310 l 481 1301 l 471 1275 l 461 1301 l 436 1310 l 461 1318 z m 181 1119 l 188 1142 l 196 1119 l 217 1111 l 196 1104 l 188 1082 l 181 1104 l 158 1111 z m 710 843 l 728 894 l 743 858 l 979 1081 l 754 840 l 799 824 l 747 806 l 728 754 l 710 806 l 658 824 z m 386 1004 l 400 1043 l 415 1004 l 454 989 l 415 975 l 400 936 l 386 975 l 347 989 z m 379 299 l 392 336 l 403 310 l 967 856 l 421 294 l 443 285 l 407 271 l 392 233 l 379 271 l 343 285 z m 503 611 l 514 581 l 546 567 l 514 556 l 503 525 l 490 556 l 458 567 l 490 581 z m 839 529 l 849 501 l 876 489 l 849 479 l 839 451 l 826 479 l 799 489 l 826 501 z m 703 297 l 713 326 l 724 297 l 753 286 l 724 276 l 713 247 l 703 276 l 674 286 z "},"8":{"ha":1358,"x_min":0,"x_max":0,"o":"m 32 1390 l 32 1335 l 1318 1335 l 1318 1390 z m 786 879 l 882 879 l 893 946 l 979 946 l 990 879 l 1086 879 l 999 1289 l 874 1289 z m 318 1289 l 318 879 l 413 879 l 413 1026 l 438 1026 l 503 879 l 608 879 l 531 1040 b 600 1158 579 1067 600 1103 b 518 1281 600 1218 569 1257 b 463 1289 503 1288 485 1289 z m 647 1289 l 647 879 l 743 879 l 743 1289 z m 22 1197 l 101 1197 l 101 879 l 197 879 l 197 1197 l 276 1197 l 276 1289 l 22 1289 z m 1131 879 l 1344 879 l 1344 971 l 1225 971 l 1225 1289 l 1131 1289 z m 413 1110 l 413 1197 l 457 1197 b 500 1154 483 1197 500 1181 b 457 1110 500 1128 483 1110 z m 935 1178 l 963 1033 l 910 1033 z m 322 513 b 354 468 329 494 339 481 b 451 431 381 442 414 431 b 592 569 533 431 592 490 l 592 722 b 550 822 592 757 578 800 b 451 860 524 849 486 860 b 354 822 414 860 381 849 b 322 781 339 813 329 796 b 311 722 315 761 311 742 l 311 569 b 322 513 311 549 315 529 z m 646 851 l 646 440 l 736 440 l 736 665 l 832 440 l 928 440 l 928 851 l 836 851 l 836 632 l 743 851 z m 46 440 l 139 440 l 139 594 l 264 594 l 264 685 l 139 685 l 139 758 l 278 758 l 278 851 l 46 851 z m 1047 758 l 1047 440 l 1142 440 l 1142 758 l 1221 758 l 1221 851 l 967 851 l 967 758 z m 407 722 b 421 757 407 738 411 749 b 451 768 431 764 440 768 b 481 757 461 768 471 764 b 494 722 490 749 494 738 l 494 568 b 451 524 494 542 478 524 b 407 569 424 524 407 542 z m 32 403 l 32 350 l 1318 350 l 1318 403 z m 864 183 b 928 110 864 139 890 110 b 976 138 953 110 969 119 l 979 111 l 1003 111 b 1001 129 1001 115 1001 122 l 1001 131 l 1001 132 l 1001 135 l 1001 136 l 1001 138 l 1001 139 l 1001 139 l 1001 146 l 1001 147 l 1001 325 l 975 325 l 975 239 b 929 260 965 250 951 260 b 864 183 892 260 864 232 z m 1058 282 b 1075 297 1068 282 1075 290 b 1058 315 1075 310 1069 315 b 1040 297 1046 315 1040 310 b 1058 282 1040 290 1049 282 z m 272 286 l 186 111 l 214 111 l 300 290 l 300 308 l 176 308 l 176 286 z m 329 308 l 329 286 l 426 286 l 342 111 l 369 111 l 454 290 l 454 308 z m 36 283 l 40 264 l 75 282 l 75 111 l 101 111 l 101 308 l 78 308 z m 592 239 l 615 239 l 615 158 b 653 110 615 131 621 110 b 678 114 665 110 674 111 l 678 133 b 671 131 676 132 674 131 l 669 131 l 668 131 l 667 131 l 667 131 l 665 131 l 665 131 l 663 131 l 663 131 l 661 131 b 642 158 649 131 642 140 l 642 239 l 679 239 l 679 258 l 642 258 l 642 300 l 615 292 l 615 258 l 592 258 z m 1104 183 b 1175 110 1104 138 1136 110 b 1247 186 1210 110 1247 131 b 1178 260 1247 231 1221 260 b 1104 183 1135 260 1104 232 z m 479 119 b 521 110 492 113 506 110 b 576 153 556 110 576 126 b 536 197 576 175 563 186 b 508 221 518 204 508 208 b 535 240 508 233 517 240 b 564 232 547 240 557 238 l 569 253 b 535 260 563 257 550 260 b 485 218 503 260 485 242 b 522 176 485 200 497 186 b 550 151 540 169 550 161 b 521 129 550 136 540 129 b 486 139 507 129 496 132 z m 758 110 b 807 135 785 110 800 124 l 808 111 l 832 111 b 831 151 832 124 831 136 l 831 258 l 804 258 l 804 169 b 767 131 804 149 789 131 b 735 176 743 131 735 149 l 735 258 l 707 258 l 707 172 b 758 110 707 121 735 110 z m 1071 111 l 1071 258 l 1044 258 l 1044 111 z m 935 240 b 974 208 956 240 969 226 b 975 199 974 207 975 203 l 975 172 b 974 161 975 168 974 165 b 933 129 969 140 951 129 b 892 185 906 129 892 156 b 935 240 892 217 907 240 z m 1132 185 b 1175 240 1132 213 1146 240 b 1219 185 1207 240 1219 211 b 1175 129 1219 153 1201 129 b 1132 185 1149 129 1132 153 z m 189 -3 b 254 -71 189 -46 219 -71 b 319 1 288 -71 319 -49 b 258 69 319 40 296 69 b 189 -3 221 69 189 46 z m 353 -69 l 375 -69 l 375 11 b 379 28 375 17 375 21 b 406 50 381 38 393 50 b 435 11 428 50 435 35 l 435 -69 l 458 -69 l 458 15 b 460 28 458 21 460 22 b 489 50 464 38 474 50 b 519 10 510 50 519 36 l 519 -69 l 544 -69 l 544 11 b 500 69 544 57 515 69 b 469 63 486 69 476 67 b 454 44 464 56 458 50 b 415 69 447 57 436 69 b 372 44 393 69 382 57 l 372 68 l 349 68 b 353 29 353 56 353 44 z m 68 -3 b 135 -71 68 -42 94 -71 b 172 -64 153 -71 167 -65 l 168 -46 b 140 -51 161 -50 153 -51 b 92 -3 113 -51 92 -31 b 140 50 92 29 107 50 b 168 44 153 50 161 49 l 174 63 b 140 69 167 68 156 69 b 68 -3 96 69 68 38 z m 254 51 b 294 1 282 51 294 22 b 254 -53 294 -31 278 -53 b 214 -3 232 -53 214 -31 b 254 51 214 24 226 51 z m 32 -71 b 49 -53 39 -71 49 -64 b 32 -36 49 -42 39 -36 b 14 -53 19 -36 14 -42 b 32 -71 14 -65 19 -71 z "},"9":{"ha":1358,"x_min":0,"x_max":0,"o":"m 32 1390 l 32 1335 l 1318 1335 l 1318 1390 z m 786 879 l 882 879 l 893 946 l 979 946 l 990 879 l 1086 879 l 999 1289 l 874 1289 z m 318 1289 l 318 879 l 413 879 l 413 1026 l 438 1026 l 503 879 l 608 879 l 531 1040 b 600 1158 579 1067 600 1103 b 518 1281 600 1218 569 1257 b 463 1289 503 1288 485 1289 z m 647 1289 l 647 879 l 743 879 l 743 1289 z m 22 1197 l 101 1197 l 101 879 l 197 879 l 197 1197 l 276 1197 l 276 1289 l 22 1289 z m 1131 879 l 1344 879 l 1344 971 l 1225 971 l 1225 1289 l 1131 1289 z m 413 1110 l 413 1197 l 457 1197 b 500 1154 483 1197 500 1181 b 457 1110 500 1128 483 1110 z m 935 1178 l 963 1033 l 910 1033 z m 322 513 b 354 468 329 494 339 481 b 451 431 381 442 414 431 b 592 569 533 431 592 490 l 592 722 b 550 822 592 757 578 800 b 451 860 524 849 486 860 b 354 822 414 860 381 849 b 322 781 339 813 329 796 b 311 722 315 761 311 742 l 311 569 b 322 513 311 549 315 529 z m 646 851 l 646 440 l 736 440 l 736 665 l 832 440 l 928 440 l 928 851 l 836 851 l 836 632 l 743 851 z m 46 440 l 139 440 l 139 594 l 264 594 l 264 685 l 139 685 l 139 758 l 278 758 l 278 851 l 46 851 z m 1047 758 l 1047 440 l 1142 440 l 1142 758 l 1221 758 l 1221 851 l 967 851 l 967 758 z m 407 722 b 421 757 407 738 411 749 b 451 768 431 764 440 768 b 481 757 461 768 471 764 b 494 722 490 749 494 738 l 494 568 b 451 524 494 542 478 524 b 407 569 424 524 407 542 z m 32 403 l 32 350 l 1318 350 l 1318 403 z m 864 183 b 928 110 864 139 890 110 b 976 138 953 110 969 119 l 979 111 l 1003 111 b 1001 129 1001 115 1001 122 l 1001 131 l 1001 132 l 1001 135 l 1001 136 l 1001 138 l 1001 139 l 1001 139 l 1001 146 l 1001 147 l 1001 325 l 975 325 l 975 239 b 929 260 965 250 951 260 b 864 183 892 260 864 232 z m 1058 282 b 1075 297 1068 282 1075 290 b 1058 315 1075 310 1069 315 b 1040 297 1046 315 1040 310 b 1058 282 1040 290 1049 282 z m 272 286 l 186 111 l 214 111 l 300 290 l 300 308 l 176 308 l 176 286 z m 329 308 l 329 286 l 426 286 l 342 111 l 369 111 l 454 290 l 454 308 z m 36 283 l 40 264 l 75 282 l 75 111 l 101 111 l 101 308 l 78 308 z m 592 239 l 615 239 l 615 158 b 653 110 615 131 621 110 b 678 114 665 110 674 111 l 678 133 b 671 131 676 132 674 131 l 669 131 l 668 131 l 667 131 l 667 131 l 665 131 l 665 131 l 663 131 l 663 131 l 661 131 b 642 158 649 131 642 140 l 642 239 l 679 239 l 679 258 l 642 258 l 642 300 l 615 292 l 615 258 l 592 258 z m 1104 183 b 1175 110 1104 138 1136 110 b 1247 186 1210 110 1247 131 b 1178 260 1247 231 1221 260 b 1104 183 1135 260 1104 232 z m 479 119 b 521 110 492 113 506 110 b 576 153 556 110 576 126 b 536 197 576 175 563 186 b 508 221 518 204 508 208 b 535 240 508 233 517 240 b 564 232 547 240 557 238 l 569 253 b 535 260 563 257 550 260 b 485 218 503 260 485 242 b 522 176 485 200 497 186 b 550 151 540 169 550 161 b 521 129 550 136 540 129 b 486 139 507 129 496 132 z m 758 110 b 807 135 785 110 800 124 l 808 111 l 832 111 b 831 151 832 124 831 136 l 831 258 l 804 258 l 804 169 b 767 131 804 149 789 131 b 735 176 743 131 735 149 l 735 258 l 707 258 l 707 172 b 758 110 707 121 735 110 z m 1071 111 l 1071 258 l 1044 258 l 1044 111 z m 935 240 b 974 208 956 240 969 226 b 975 199 974 207 975 203 l 975 172 b 974 161 975 168 974 165 b 933 129 969 140 951 129 b 892 185 906 129 892 156 b 935 240 892 217 907 240 z m 1132 185 b 1175 240 1132 213 1146 240 b 1219 185 1207 240 1219 211 b 1175 129 1219 153 1201 129 b 1132 185 1149 129 1132 153 z m 189 -3 b 254 -71 189 -46 219 -71 b 319 1 288 -71 319 -49 b 258 69 319 40 296 69 b 189 -3 221 69 189 46 z m 353 -69 l 375 -69 l 375 11 b 379 28 375 17 375 21 b 406 50 381 38 393 50 b 435 11 428 50 435 35 l 435 -69 l 458 -69 l 458 15 b 460 28 458 21 460 22 b 489 50 464 38 474 50 b 519 10 510 50 519 36 l 519 -69 l 544 -69 l 544 11 b 500 69 544 57 515 69 b 469 63 486 69 476 67 b 454 44 464 56 458 50 b 415 69 447 57 436 69 b 372 44 393 69 382 57 l 372 68 l 349 68 b 353 29 353 56 353 44 z m 68 -3 b 135 -71 68 -42 94 -71 b 172 -64 153 -71 167 -65 l 168 -46 b 140 -51 161 -50 153 -51 b 92 -3 113 -51 92 -31 b 140 50 92 29 107 50 b 168 44 153 50 161 49 l 174 63 b 140 69 167 68 156 69 b 68 -3 96 69 68 38 z m 254 51 b 294 1 282 51 294 22 b 254 -53 294 -31 278 -53 b 214 -3 232 -53 214 -31 b 254 51 214 24 226 51 z m 32 -71 b 49 -53 39 -71 49 -64 b 32 -36 49 -42 39 -36 b 14 -53 19 -36 14 -42 b 32 -71 14 -65 19 -71 z "},"\u0000":{"ha":0,"x_min":0,"x_max":0,"o":""},"\r":{"ha":0,"x_min":0,"x_max":0,"o":""}," ":{"ha":554,"x_min":0,"x_max":0,"o":""},"\n":{"ha":0,"x_min":0,"x_max":0,"o":""},"!":{"ha":1358,"x_min":0,"x_max":0,"o":"m 322 513 b 354 468 329 494 339 481 b 451 431 381 442 414 431 b 592 569 533 431 592 490 l 592 722 b 550 822 592 757 578 800 b 451 860 524 849 486 860 b 354 822 414 860 381 849 b 322 781 339 813 329 796 b 311 722 315 761 311 742 l 311 569 b 322 513 311 549 315 529 z m 318 1289 l 318 879 l 413 879 l 413 1026 l 438 1026 l 503 879 l 608 879 l 531 1040 b 600 1158 579 1067 600 1103 b 518 1281 600 1218 569 1257 b 463 1289 503 1288 485 1289 z m 646 851 l 646 440 l 736 440 l 736 665 l 832 440 l 928 440 l 928 851 l 836 851 l 836 632 l 743 851 z m 786 879 l 882 879 l 893 946 l 979 946 l 990 879 l 1086 879 l 999 1289 l 874 1289 z m 32 1390 l 32 1335 l 1318 1335 l 1318 1390 z m 32 403 l 32 350 l 1318 350 l 1318 403 z m 46 440 l 139 440 l 139 594 l 264 594 l 264 685 l 139 685 l 139 758 l 278 758 l 278 851 l 46 851 z m 1047 758 l 1047 440 l 1142 440 l 1142 758 l 1221 758 l 1221 851 l 967 851 l 967 758 z m 22 1197 l 101 1197 l 101 879 l 197 879 l 197 1197 l 276 1197 l 276 1289 l 22 1289 z m 1131 879 l 1344 879 l 1344 971 l 1225 971 l 1225 1289 l 1131 1289 z m 647 1289 l 647 879 l 743 879 l 743 1289 z m 864 183 b 928 110 864 139 890 110 b 976 138 953 110 969 119 l 979 111 l 1003 111 b 1001 149 1001 121 1001 138 l 1001 325 l 975 325 l 975 239 b 929 260 965 250 951 260 b 864 183 892 260 864 232 z m 407 722 b 421 757 407 738 411 749 b 451 768 431 764 440 768 b 481 757 461 768 471 764 b 494 722 490 749 494 738 l 494 568 b 451 524 494 542 478 524 b 407 569 424 524 407 542 z m 1104 183 b 1175 110 1104 138 1136 110 b 1247 186 1210 110 1247 131 b 1178 260 1247 231 1221 260 b 1104 183 1135 260 1104 232 z m 758 110 b 807 135 785 110 800 124 l 808 111 l 832 111 b 831 151 832 124 831 136 l 831 258 l 804 258 l 804 169 b 767 131 804 149 789 131 b 735 176 743 131 735 149 l 735 258 l 707 258 l 707 172 b 758 110 707 121 735 110 z m 1132 185 b 1175 240 1132 213 1146 240 b 1219 185 1207 240 1219 211 b 1175 129 1219 153 1201 129 b 1132 185 1149 129 1132 153 z m 935 240 b 974 208 956 240 969 226 b 975 199 974 207 975 203 l 975 172 b 974 161 975 168 974 165 b 933 129 969 140 951 129 b 892 185 906 129 892 156 b 935 240 892 217 907 240 z m 189 -3 b 254 -71 189 -46 219 -71 b 319 1 288 -71 319 -49 b 258 69 319 40 296 69 b 189 -3 221 69 189 46 z m 272 286 l 186 111 l 214 111 l 300 290 l 300 308 l 176 308 l 176 286 z m 329 308 l 329 286 l 426 286 l 342 111 l 369 111 l 454 290 l 454 308 z m 479 119 b 521 110 492 113 506 110 b 576 153 556 110 576 126 b 536 197 576 175 563 186 b 508 221 518 204 508 208 b 535 240 508 233 517 240 b 564 232 547 240 557 238 l 569 253 b 535 260 563 257 550 260 b 485 218 503 260 485 242 b 522 176 485 200 497 186 b 550 151 540 169 550 161 b 521 129 550 136 540 129 b 486 139 507 129 496 132 z m 413 1110 l 413 1197 l 457 1197 b 500 1154 483 1197 500 1181 b 457 1110 500 1128 483 1110 z m 592 239 l 615 239 l 615 158 b 653 110 615 131 621 110 b 678 114 665 110 674 111 l 678 133 b 661 131 674 129 667 131 b 642 158 649 131 642 140 l 642 239 l 679 239 l 679 258 l 642 258 l 642 300 l 615 292 l 615 258 l 592 258 z m 36 283 l 40 264 l 75 282 l 75 111 l 101 111 l 101 308 l 78 308 z m 353 -69 l 375 -69 l 375 11 b 379 28 375 17 375 21 b 406 50 381 38 393 50 b 435 11 428 50 435 35 l 435 -69 l 458 -69 l 458 15 b 460 28 458 21 460 22 b 489 50 464 38 474 50 b 519 10 510 50 519 36 l 519 -69 l 544 -69 l 544 11 b 500 69 544 57 515 69 b 469 63 486 69 476 67 b 454 44 464 56 458 50 b 415 69 447 57 436 69 b 372 44 393 69 382 57 l 372 68 l 349 68 b 353 29 353 56 353 44 z m 935 1178 l 963 1033 l 910 1033 z m 1071 111 l 1071 258 l 1044 258 l 1044 111 z m 254 51 b 294 1 282 51 294 22 b 254 -53 294 -31 278 -53 b 214 -3 232 -53 214 -31 b 254 51 214 24 226 51 z m 68 -3 b 135 -71 68 -42 94 -71 b 172 -64 153 -71 167 -65 l 168 -46 b 140 -51 161 -50 153 -51 b 92 -3 113 -51 92 -31 b 140 50 92 29 107 50 b 168 44 153 50 161 49 l 174 63 b 140 69 167 68 156 69 b 68 -3 96 69 68 38 z m 1058 282 b 1075 297 1068 282 1075 290 b 1058 315 1075 310 1069 315 b 1040 297 1046 315 1040 310 b 1058 282 1040 290 1049 282 z m 32 -71 b 49 -53 39 -71 49 -64 b 32 -36 49 -42 39 -36 b 14 -53 19 -36 14 -42 b 32 -71 14 -65 19 -71 z "},"\"":{"ha":1358,"x_min":0,"x_max":0,"o":"m 322 513 b 354 468 329 494 339 481 b 451 431 381 442 414 431 b 592 569 533 431 592 490 l 592 722 b 550 822 592 757 578 800 b 451 860 524 849 486 860 b 354 822 414 860 381 849 b 322 781 339 813 329 796 b 311 722 315 761 311 742 l 311 569 b 322 513 311 549 315 529 z m 318 1289 l 318 879 l 413 879 l 413 1026 l 438 1026 l 503 879 l 608 879 l 531 1040 b 600 1158 579 1067 600 1103 b 518 1281 600 1218 569 1257 b 463 1289 503 1288 485 1289 z m 646 851 l 646 440 l 736 440 l 736 665 l 832 440 l 928 440 l 928 851 l 836 851 l 836 632 l 743 851 z m 786 879 l 882 879 l 893 946 l 979 946 l 990 879 l 1086 879 l 999 1289 l 874 1289 z m 32 1390 l 32 1335 l 1318 1335 l 1318 1390 z m 32 403 l 32 350 l 1318 350 l 1318 403 z m 46 440 l 139 440 l 139 594 l 264 594 l 264 685 l 139 685 l 139 758 l 278 758 l 278 851 l 46 851 z m 1047 758 l 1047 440 l 1142 440 l 1142 758 l 1221 758 l 1221 851 l 967 851 l 967 758 z m 22 1197 l 101 1197 l 101 879 l 197 879 l 197 1197 l 276 1197 l 276 1289 l 22 1289 z m 1131 879 l 1344 879 l 1344 971 l 1225 971 l 1225 1289 l 1131 1289 z m 647 1289 l 647 879 l 743 879 l 743 1289 z m 864 183 b 928 110 864 139 890 110 b 976 138 953 110 969 119 l 979 111 l 1003 111 b 1001 149 1001 121 1001 138 l 1001 325 l 975 325 l 975 239 b 929 260 965 250 951 260 b 864 183 892 260 864 232 z m 407 722 b 421 757 407 738 411 749 b 451 768 431 764 440 768 b 481 757 461 768 471 764 b 494 722 490 749 494 738 l 494 568 b 451 524 494 542 478 524 b 407 569 424 524 407 542 z m 1104 183 b 1175 110 1104 138 1136 110 b 1247 186 1210 110 1247 131 b 1178 260 1247 231 1221 260 b 1104 183 1135 260 1104 232 z m 758 110 b 807 135 785 110 800 124 l 808 111 l 832 111 b 831 151 832 124 831 136 l 831 258 l 804 258 l 804 169 b 767 131 804 149 789 131 b 735 176 743 131 735 149 l 735 258 l 707 258 l 707 172 b 758 110 707 121 735 110 z m 1132 185 b 1175 240 1132 213 1146 240 b 1219 185 1207 240 1219 211 b 1175 129 1219 153 1201 129 b 1132 185 1149 129 1132 153 z m 935 240 b 974 208 956 240 969 226 b 975 199 974 207 975 203 l 975 172 b 974 161 975 168 974 165 b 933 129 969 140 951 129 b 892 185 906 129 892 156 b 935 240 892 217 907 240 z m 189 -3 b 254 -71 189 -46 219 -71 b 319 1 288 -71 319 -49 b 258 69 319 40 296 69 b 189 -3 221 69 189 46 z m 272 286 l 186 111 l 214 111 l 300 290 l 300 308 l 176 308 l 176 286 z m 329 308 l 329 286 l 426 286 l 342 111 l 369 111 l 454 290 l 454 308 z m 479 119 b 521 110 492 113 506 110 b 576 153 556 110 576 126 b 536 197 576 175 563 186 b 508 221 518 204 508 208 b 535 240 508 233 517 240 b 564 232 547 240 557 238 l 569 253 b 535 260 563 257 550 260 b 485 218 503 260 485 242 b 522 176 485 200 497 186 b 550 151 540 169 550 161 b 521 129 550 136 540 129 b 486 139 507 129 496 132 z m 413 1110 l 413 1197 l 457 1197 b 500 1154 483 1197 500 1181 b 457 1110 500 1128 483 1110 z m 592 239 l 615 239 l 615 158 b 653 110 615 131 621 110 b 678 114 665 110 674 111 l 678 133 b 661 131 674 129 667 131 b 642 158 649 131 642 140 l 642 239 l 679 239 l 679 258 l 642 258 l 642 300 l 615 292 l 615 258 l 592 258 z m 36 283 l 40 264 l 75 282 l 75 111 l 101 111 l 101 308 l 78 308 z m 353 -69 l 375 -69 l 375 11 b 379 28 375 17 375 21 b 406 50 381 38 393 50 b 435 11 428 50 435 35 l 435 -69 l 458 -69 l 458 15 b 460 28 458 21 460 22 b 489 50 464 38 474 50 b 519 10 510 50 519 36 l 519 -69 l 544 -69 l 544 11 b 500 69 544 57 515 69 b 469 63 486 69 476 67 b 454 44 464 56 458 50 b 415 69 447 57 436 69 b 372 44 393 69 382 57 l 372 68 l 349 68 b 353 29 353 56 353 44 z m 935 1178 l 963 1033 l 910 1033 z m 1071 111 l 1071 258 l 1044 258 l 1044 111 z m 254 51 b 294 1 282 51 294 22 b 254 -53 294 -31 278 -53 b 214 -3 232 -53 214 -31 b 254 51 214 24 226 51 z m 68 -3 b 135 -71 68 -42 94 -71 b 172 -64 153 -71 167 -65 l 168 -46 b 140 -51 161 -50 153 -51 b 92 -3 113 -51 92 -31 b 140 50 92 29 107 50 b 168 44 153 50 161 49 l 174 63 b 140 69 167 68 156 69 b 68 -3 96 69 68 38 z m 1058 282 b 1075 297 1068 282 1075 290 b 1058 315 1075 310 1069 315 b 1040 297 1046 315 1040 310 b 1058 282 1040 290 1049 282 z m 32 -71 b 49 -53 39 -71 49 -64 b 32 -36 49 -42 39 -36 b 14 -53 19 -36 14 -42 b 32 -71 14 -65 19 -71 z "},"#":{"ha":1764,"x_min":0,"x_max":0,"o":"m 82 61 b 494 -19 86 -25 163 -24 b 749 483 688 -14 665 67 b 786 519 753 501 768 519 b 831 476 807 519 831 499 b 826 454 831 472 829 465 b 1031 -19 749 -17 664 -19 b 1333 65 1228 -19 1296 -18 b 1439 504 1374 150 1413 461 b 1472 519 1449 519 1461 519 b 1513 529 1488 519 1501 517 b 1533 594 1525 540 1524 554 b 1601 932 1540 631 1572 797 b 1590 964 1606 947 1606 960 b 1539 972 1574 968 1549 963 b 1539 1035 1528 982 1535 1018 b 1238 1503 1622 1535 1704 1503 b 935 999 996 1503 1029 1460 b 919 972 932 989 926 979 b 897 965 913 968 906 965 b 867 976 885 965 874 969 b 854 1032 846 992 850 1011 b 922 1431 876 1172 929 1357 b 654 1503 915 1510 838 1503 b 528 1501 604 1503 563 1503 b 264 1047 300 1496 353 1403 b 239 978 260 1026 250 993 b 208 965 232 967 219 965 b 171 956 193 965 181 967 b 151 890 161 944 156 913 b 83 528 146 875 78 539 b 119 518 86 521 99 518 b 150 486 146 518 151 513 b 82 61 146 399 75 136 z "},"$":{"ha":1374,"x_min":0,"x_max":0,"o":"m 68 353 b 69 303 68 332 69 318 b 146 225 74 247 97 232 b 200 224 163 224 179 224 l 267 224 b 347 221 293 224 318 225 b 418 174 382 217 414 214 b 422 99 421 146 422 121 b 425 40 422 76 424 57 b 440 15 429 31 433 22 b 501 -6 458 4 479 -6 b 535 -8 514 -7 525 -8 l 571 -8 l 625 -8 l 688 -8 b 750 -8 708 -10 729 -10 l 806 -8 l 842 -8 b 875 -6 853 -8 864 -7 b 908 1 885 -6 896 -3 b 935 15 921 6 929 10 b 950 40 942 22 946 31 b 953 124 951 74 953 103 b 956 179 951 143 953 161 b 974 210 958 192 964 201 b 1069 224 992 221 1046 224 l 1193 224 b 1303 350 1283 224 1303 271 b 1306 429 1304 372 1304 397 l 1306 524 b 1301 697 1306 583 1306 638 b 1176 818 1301 761 1238 814 b 1094 822 1154 821 1126 822 l 990 822 l 692 822 b 650 865 664 822 650 836 b 663 893 650 876 654 886 b 692 906 668 901 678 906 b 910 904 775 906 847 906 l 1071 904 b 1181 910 1115 906 1153 906 b 1301 985 1235 914 1297 921 b 1306 1035 1304 1000 1306 1017 b 1307 1094 1307 1056 1307 1074 b 1303 1203 1307 1131 1306 1167 b 1232 1278 1301 1251 1281 1272 b 1122 1281 1194 1282 1160 1281 l 1051 1281 b 1000 1286 1031 1281 1014 1282 b 954 1331 974 1290 958 1303 b 951 1418 950 1365 950 1396 b 947 1474 951 1442 950 1460 b 918 1501 940 1489 931 1497 b 842 1513 903 1508 876 1511 b 779 1514 829 1514 807 1514 l 597 1514 b 535 1513 565 1514 547 1514 b 501 1511 524 1513 513 1511 b 468 1506 486 1510 478 1507 b 440 1492 457 1501 450 1496 b 425 1465 433 1485 428 1475 b 421 1392 421 1438 419 1413 b 419 1335 422 1365 422 1347 b 347 1282 415 1292 385 1286 b 310 1281 335 1281 322 1281 l 274 1281 l 183 1281 b 121 1269 158 1281 138 1276 b 85 1233 104 1264 92 1251 b 69 1153 75 1215 71 1189 b 68 1072 69 1129 68 1104 b 67 979 67 1040 67 1011 b 68 886 67 947 67 918 b 72 807 68 854 69 828 b 199 683 76 724 115 693 b 385 679 261 679 322 679 l 683 679 b 718 665 700 679 711 675 b 728 639 728 658 728 649 b 715 611 726 629 725 618 b 683 599 710 603 699 599 b 460 599 599 597 524 597 l 297 599 b 188 594 254 597 217 596 b 86 557 156 590 107 583 b 72 519 76 547 72 535 b 68 469 69 504 68 488 b 67 411 67 451 67 432 b 68 353 67 390 67 374 z "},"%":{"ha":1803,"x_min":0,"x_max":0,"o":"m 513 108 b 531 50 515 82 521 63 b 664 -1 563 7 614 -1 l 790 -1 b 868 1 817 -1 842 -3 b 971 25 913 3 947 10 b 1110 271 1049 65 1088 188 b 1140 392 1119 308 1129 347 b 1174 547 1150 438 1161 488 b 1211 713 1186 601 1199 657 b 1281 1031 1238 818 1260 924 b 1301 1165 1290 1078 1297 1122 b 1304 1269 1306 1211 1307 1246 b 1250 1369 1303 1314 1289 1349 b 1138 1388 1215 1385 1175 1388 b 1060 1386 1114 1388 1089 1386 b 935 1383 1010 1386 968 1388 b 719 1153 794 1372 753 1269 b 636 813 685 1042 660 925 b 565 489 613 706 588 600 b 513 193 539 393 519 293 b 513 108 510 161 510 133 z m 60 1018 b 325 754 60 868 182 754 l 326 754 b 589 1026 472 754 593 876 l 586 1126 b 324 1388 582 1269 468 1388 b 60 1118 174 1388 60 1267 z m 1211 264 b 1476 -1 1211 118 1332 -1 l 1478 -1 b 1740 272 1624 -1 1744 122 l 1738 372 b 1475 633 1733 518 1619 633 b 1210 364 1325 633 1210 513 z "},"&":{"ha":1358,"x_min":0,"x_max":0,"o":"m 322 513 b 354 468 329 494 339 481 b 451 431 381 442 414 431 b 592 569 533 431 592 490 l 592 722 b 550 822 592 757 578 800 b 451 860 524 849 486 860 b 354 822 414 860 381 849 b 322 781 339 813 329 796 b 311 722 315 761 311 742 l 311 569 b 322 513 311 549 315 529 z m 318 1289 l 318 879 l 413 879 l 413 1026 l 438 1026 l 503 879 l 608 879 l 531 1040 b 600 1158 579 1067 600 1103 b 518 1281 600 1218 569 1257 b 463 1289 503 1288 485 1289 z m 646 851 l 646 440 l 736 440 l 736 665 l 832 440 l 928 440 l 928 851 l 836 851 l 836 632 l 743 851 z m 786 879 l 882 879 l 893 946 l 979 946 l 990 879 l 1086 879 l 999 1289 l 874 1289 z m 32 1390 l 32 1335 l 1318 1335 l 1318 1390 z m 32 403 l 32 350 l 1318 350 l 1318 403 z m 46 440 l 139 440 l 139 594 l 264 594 l 264 685 l 139 685 l 139 758 l 278 758 l 278 851 l 46 851 z m 1047 758 l 1047 440 l 1142 440 l 1142 758 l 1221 758 l 1221 851 l 967 851 l 967 758 z m 22 1197 l 101 1197 l 101 879 l 197 879 l 197 1197 l 276 1197 l 276 1289 l 22 1289 z m 1131 879 l 1344 879 l 1344 971 l 1225 971 l 1225 1289 l 1131 1289 z m 647 1289 l 647 879 l 743 879 l 743 1289 z m 864 183 b 928 110 864 139 890 110 b 976 138 953 110 969 119 l 979 111 l 1003 111 b 1001 149 1001 121 1001 138 l 1001 325 l 975 325 l 975 239 b 929 260 965 250 951 260 b 864 183 892 260 864 232 z m 407 722 b 421 757 407 738 411 749 b 451 768 431 764 440 768 b 481 757 461 768 471 764 b 494 722 490 749 494 738 l 494 568 b 451 524 494 542 478 524 b 407 569 424 524 407 542 z m 1104 183 b 1175 110 1104 138 1136 110 b 1247 186 1210 110 1247 131 b 1178 260 1247 231 1221 260 b 1104 183 1135 260 1104 232 z m 758 110 b 807 135 785 110 800 124 l 808 111 l 832 111 b 831 151 832 124 831 136 l 831 258 l 804 258 l 804 169 b 767 131 804 149 789 131 b 735 176 743 131 735 149 l 735 258 l 707 258 l 707 172 b 758 110 707 121 735 110 z m 1132 185 b 1175 240 1132 213 1146 240 b 1219 185 1207 240 1219 211 b 1175 129 1219 153 1201 129 b 1132 185 1149 129 1132 153 z m 935 240 b 974 208 956 240 969 226 b 975 199 974 207 975 203 l 975 172 b 974 161 975 168 974 165 b 933 129 969 140 951 129 b 892 185 906 129 892 156 b 935 240 892 217 907 240 z m 189 -3 b 254 -71 189 -46 219 -71 b 319 1 288 -71 319 -49 b 258 69 319 40 296 69 b 189 -3 221 69 189 46 z m 272 286 l 186 111 l 214 111 l 300 290 l 300 308 l 176 308 l 176 286 z m 329 308 l 329 286 l 426 286 l 342 111 l 369 111 l 454 290 l 454 308 z m 479 119 b 521 110 492 113 506 110 b 576 153 556 110 576 126 b 536 197 576 175 563 186 b 508 221 518 204 508 208 b 535 240 508 233 517 240 b 564 232 547 240 557 238 l 569 253 b 535 260 563 257 550 260 b 485 218 503 260 485 242 b 522 176 485 200 497 186 b 550 151 540 169 550 161 b 521 129 550 136 540 129 b 486 139 507 129 496 132 z m 413 1110 l 413 1197 l 457 1197 b 500 1154 483 1197 500 1181 b 457 1110 500 1128 483 1110 z m 592 239 l 615 239 l 615 158 b 653 110 615 131 621 110 b 678 114 665 110 674 111 l 678 133 b 661 131 674 129 667 131 b 642 158 649 131 642 140 l 642 239 l 679 239 l 679 258 l 642 258 l 642 300 l 615 292 l 615 258 l 592 258 z m 36 283 l 40 264 l 75 282 l 75 111 l 101 111 l 101 308 l 78 308 z m 353 -69 l 375 -69 l 375 11 b 379 28 375 17 375 21 b 406 50 381 38 393 50 b 435 11 428 50 435 35 l 435 -69 l 458 -69 l 458 15 b 460 28 458 21 460 22 b 489 50 464 38 474 50 b 519 10 510 50 519 36 l 519 -69 l 544 -69 l 544 11 b 500 69 544 57 515 69 b 469 63 486 69 476 67 b 454 44 464 56 458 50 b 415 69 447 57 436 69 b 372 44 393 69 382 57 l 372 68 l 349 68 b 353 29 353 56 353 44 z m 935 1178 l 963 1033 l 910 1033 z m 1071 111 l 1071 258 l 1044 258 l 1044 111 z m 254 51 b 294 1 282 51 294 22 b 254 -53 294 -31 278 -53 b 214 -3 232 -53 214 -31 b 254 51 214 24 226 51 z m 68 -3 b 135 -71 68 -42 94 -71 b 172 -64 153 -71 167 -65 l 168 -46 b 140 -51 161 -50 153 -51 b 92 -3 113 -51 92 -31 b 140 50 92 29 107 50 b 168 44 153 50 161 49 l 174 63 b 140 69 167 68 156 69 b 68 -3 96 69 68 38 z m 1058 282 b 1075 297 1068 282 1075 290 b 1058 315 1075 310 1069 315 b 1040 297 1046 315 1040 310 b 1058 282 1040 290 1049 282 z m 32 -71 b 49 -53 39 -71 49 -64 b 32 -36 49 -42 39 -36 b 14 -53 19 -36 14 -42 b 32 -71 14 -65 19 -71 z "},"'":{"ha":419,"x_min":0,"x_max":0,"o":"m 272 1022 b 340 1040 294 1022 325 1024 b 358 1126 356 1061 357 1100 b 296 1271 358 1315 296 1222 b 258 1471 296 1300 343 1471 b 215 1460 249 1471 235 1467 b 57 1146 176 1442 57 1315 b 272 1022 57 996 81 1022 z "},"(":{"ha":775,"x_min":0,"x_max":0,"o":"m 82 689 b 221 31 82 518 82 153 b 317 -6 247 7 279 -6 b 374 3 335 -6 354 -3 b 486 46 413 10 450 25 b 686 199 546 75 660 132 b 694 254 696 215 696 232 b 683 367 694 283 690 321 b 663 697 671 476 664 586 b 672 897 663 763 663 826 b 688 1033 676 951 681 999 b 694 1128 693 1071 694 1101 b 682 1193 694 1154 692 1175 b 635 1244 675 1210 660 1226 b 319 1386 564 1300 415 1386 b 103 1046 158 1386 121 1174 b 82 689 86 928 82 811 z "},")":{"ha":775,"x_min":0,"x_max":0,"o":"m 93 188 b 139 136 103 168 118 151 b 289 44 188 104 238 72 b 375 8 318 29 347 19 b 456 -6 406 -1 432 -6 b 675 354 625 -6 657 222 b 694 726 693 476 694 603 b 506 1379 694 878 683 1324 b 456 1386 485 1383 468 1386 b 375 1372 429 1386 403 1382 b 92 1193 310 1350 125 1258 b 79 1128 85 1175 79 1154 b 88 1033 79 1101 82 1071 b 111 760 103 943 107 854 b 113 725 113 747 113 736 l 113 722 l 113 721 l 113 718 l 113 715 l 113 714 l 113 711 l 113 689 l 113 688 l 113 685 l 113 682 l 113 681 l 113 678 l 113 658 b 111 626 113 647 113 636 l 111 611 b 110 604 110 610 110 607 l 110 585 b 108 578 110 582 110 579 l 108 563 b 104 501 107 542 106 522 b 85 307 100 436 94 372 b 79 254 81 283 81 265 l 79 249 b 93 188 79 226 83 206 z "},"*":{"ha":943,"x_min":0,"x_max":0,"o":"m 60 786 b 119 676 60 760 104 700 b 182 603 131 658 164 614 b 201 592 192 596 199 592 b 232 601 210 592 219 594 b 267 625 243 611 256 615 b 326 660 278 635 311 660 l 344 660 b 340 589 343 633 342 611 b 339 568 339 585 339 578 b 343 535 339 563 339 550 b 363 501 346 519 353 508 b 396 490 372 494 383 490 b 408 492 401 490 406 490 l 453 492 l 454 492 l 456 492 l 456 492 l 457 492 l 460 492 l 460 492 l 461 492 l 463 492 l 469 492 l 469 492 l 472 492 b 488 490 478 492 483 492 l 543 490 b 578 497 556 492 568 493 b 597 515 586 501 593 507 b 604 547 601 524 603 535 b 606 558 606 551 606 554 l 606 561 l 606 563 l 606 564 l 606 564 l 606 571 l 606 571 l 606 624 b 611 647 607 631 607 638 b 619 660 613 656 615 660 b 654 642 626 660 639 654 b 714 601 669 631 690 617 b 740 592 724 594 732 592 b 758 599 747 592 754 594 b 779 615 764 603 769 608 b 867 742 811 656 840 697 b 878 767 871 751 874 757 b 883 786 882 774 883 779 b 878 804 883 794 882 800 b 861 824 874 810 871 817 b 799 869 839 840 818 856 b 753 903 778 881 763 892 b 735 929 740 913 735 921 b 758 958 735 938 743 947 b 813 996 779 972 797 985 b 853 1024 828 1006 842 1014 b 875 1046 863 1033 871 1040 b 883 1067 881 1053 883 1060 b 865 1113 883 1079 878 1094 b 743 1260 850 1139 775 1260 b 711 1250 733 1260 724 1256 b 678 1228 700 1243 689 1238 b 619 1194 668 1218 631 1194 b 611 1201 615 1194 613 1197 b 606 1229 610 1206 607 1214 b 604 1238 604 1231 604 1233 l 604 1254 b 606 1269 606 1256 606 1260 b 599 1331 606 1294 603 1315 b 578 1357 596 1340 589 1350 b 544 1361 568 1360 557 1361 l 535 1361 b 522 1360 531 1360 526 1360 l 519 1360 l 519 1360 l 518 1360 l 518 1360 l 517 1360 l 515 1360 l 515 1360 l 514 1360 l 514 1360 l 451 1360 b 433 1361 443 1360 438 1360 b 417 1363 429 1363 424 1363 l 401 1363 b 374 1360 392 1363 383 1361 b 356 1346 368 1358 363 1354 b 340 1269 340 1328 340 1290 l 340 1261 b 342 1251 340 1257 340 1253 l 342 1242 b 340 1229 342 1236 342 1232 b 338 1206 339 1219 338 1211 b 326 1194 336 1199 332 1194 b 306 1203 321 1194 314 1197 b 267 1229 296 1207 283 1217 b 232 1251 254 1239 243 1242 b 201 1260 222 1257 211 1260 b 181 1249 197 1260 190 1256 l 164 1232 l 164 1232 l 158 1226 b 151 1217 156 1224 153 1221 b 118 1174 139 1204 129 1190 b 69 1092 99 1149 82 1121 b 60 1067 63 1079 60 1071 b 83 1031 60 1056 68 1043 b 136 994 100 1018 115 1006 b 186 958 153 982 171 969 b 210 926 201 947 210 936 b 186 896 210 917 201 907 b 136 861 171 885 154 874 b 83 822 119 851 101 838 b 60 786 68 810 60 797 z "},"+":{"ha":1335,"x_min":0,"x_max":0,"o":"m 50 663 b 61 631 51 647 56 636 b 142 607 82 610 115 607 b 157 606 146 606 151 606 l 161 606 l 163 606 l 164 606 l 165 606 l 165 606 l 174 606 l 175 606 l 283 606 b 333 600 304 604 318 604 b 363 588 347 599 357 594 b 375 558 371 582 375 572 b 379 499 379 525 379 506 b 378 474 379 486 379 478 l 378 464 b 383 421 378 446 379 432 b 417 392 389 407 400 397 b 540 379 454 379 501 379 l 796 379 b 897 386 829 379 865 381 b 957 453 942 393 953 410 b 961 558 957 488 957 524 b 982 594 964 579 971 590 b 1088 608 1003 606 1050 608 l 1188 608 b 1239 613 1208 608 1225 610 b 1272 629 1253 615 1264 621 b 1286 663 1282 636 1286 647 l 1286 821 b 1269 860 1286 836 1281 849 b 1218 876 1261 868 1244 874 b 1140 879 1192 878 1167 879 l 1035 879 b 1010 882 1028 879 1019 881 b 975 894 994 886 982 888 b 961 926 968 901 963 913 b 957 1010 957 960 957 988 b 958 1026 958 1014 958 1019 b 951 1063 958 1039 956 1051 b 919 1092 947 1076 936 1086 b 836 1103 901 1099 874 1101 l 796 1103 b 736 1104 778 1103 758 1104 l 600 1104 b 540 1103 579 1104 558 1103 l 500 1103 b 464 1101 489 1103 476 1101 b 381 1058 432 1097 392 1093 b 375 982 375 1029 375 1004 b 376 967 376 978 376 972 l 376 965 l 376 963 l 376 963 l 376 961 l 376 961 l 376 960 l 376 953 b 375 928 376 940 376 932 b 308 879 371 888 343 883 b 288 878 304 878 297 878 l 157 878 b 101 874 135 878 117 876 b 50 821 69 869 53 853 b 47 742 49 794 47 769 b 50 663 47 714 49 689 z "},",":{"ha":1358,"x_min":0,"x_max":0,"o":"m 32 1390 l 32 1335 l 1318 1335 l 1318 1390 z m 786 879 l 882 879 l 893 946 l 979 946 l 990 879 l 1086 879 l 999 1289 l 874 1289 z m 318 1289 l 318 879 l 413 879 l 413 1026 l 438 1026 l 503 879 l 608 879 l 531 1040 b 600 1158 579 1067 600 1103 b 518 1281 600 1218 569 1257 b 463 1289 503 1288 485 1289 z m 647 1289 l 647 879 l 743 879 l 743 1289 z m 22 1197 l 101 1197 l 101 879 l 197 879 l 197 1197 l 276 1197 l 276 1289 l 22 1289 z m 1131 879 l 1344 879 l 1344 971 l 1225 971 l 1225 1289 l 1131 1289 z m 413 1110 l 413 1197 l 457 1197 b 500 1154 483 1197 500 1181 b 457 1110 500 1128 483 1110 z m 935 1178 l 963 1033 l 910 1033 z m 322 513 b 354 468 329 494 339 481 b 451 431 381 442 414 431 b 592 569 533 431 592 490 l 592 722 b 550 822 592 757 578 800 b 451 860 524 849 486 860 b 354 822 414 860 381 849 b 322 781 339 813 329 796 b 311 722 315 761 311 742 l 311 569 b 322 513 311 549 315 529 z m 646 851 l 646 440 l 736 440 l 736 665 l 832 440 l 928 440 l 928 851 l 836 851 l 836 632 l 743 851 z m 46 440 l 139 440 l 139 594 l 264 594 l 264 685 l 139 685 l 139 758 l 278 758 l 278 851 l 46 851 z m 1047 758 l 1047 440 l 1142 440 l 1142 758 l 1221 758 l 1221 851 l 967 851 l 967 758 z m 407 722 b 421 757 407 738 411 749 b 451 768 431 764 440 768 b 481 757 461 768 471 764 b 494 722 490 749 494 738 l 494 568 b 451 524 494 542 478 524 b 407 569 424 524 407 542 z m 32 403 l 32 350 l 1318 350 l 1318 403 z m 864 183 b 928 110 864 139 890 110 b 976 138 953 110 969 119 l 979 111 l 1003 111 b 1001 129 1001 115 1001 122 l 1001 131 l 1001 132 l 1001 135 l 1001 136 l 1001 138 l 1001 139 l 1001 139 l 1001 146 l 1001 147 l 1001 325 l 975 325 l 975 239 b 929 260 965 250 951 260 b 864 183 892 260 864 232 z m 1058 282 b 1075 297 1068 282 1075 290 b 1058 315 1075 310 1069 315 b 1040 297 1046 315 1040 310 b 1058 282 1040 290 1049 282 z m 272 286 l 186 111 l 214 111 l 300 290 l 300 308 l 176 308 l 176 286 z m 329 308 l 329 286 l 426 286 l 342 111 l 369 111 l 454 290 l 454 308 z m 36 283 l 40 264 l 75 282 l 75 111 l 101 111 l 101 308 l 78 308 z m 592 239 l 615 239 l 615 158 b 653 110 615 131 621 110 b 678 114 665 110 674 111 l 678 133 b 671 131 676 132 674 131 l 669 131 l 668 131 l 667 131 l 667 131 l 665 131 l 665 131 l 663 131 l 663 131 l 661 131 b 642 158 649 131 642 140 l 642 239 l 679 239 l 679 258 l 642 258 l 642 300 l 615 292 l 615 258 l 592 258 z m 1104 183 b 1175 110 1104 138 1136 110 b 1247 186 1210 110 1247 131 b 1178 260 1247 231 1221 260 b 1104 183 1135 260 1104 232 z m 479 119 b 521 110 492 113 506 110 b 576 153 556 110 576 126 b 536 197 576 175 563 186 b 508 221 518 204 508 208 b 535 240 508 233 517 240 b 564 232 547 240 557 238 l 569 253 b 535 260 563 257 550 260 b 485 218 503 260 485 242 b 522 176 485 200 497 186 b 550 151 540 169 550 161 b 521 129 550 136 540 129 b 486 139 507 129 496 132 z m 758 110 b 807 135 785 110 800 124 l 808 111 l 832 111 b 831 151 832 124 831 136 l 831 258 l 804 258 l 804 169 b 767 131 804 149 789 131 b 735 176 743 131 735 149 l 735 258 l 707 258 l 707 172 b 758 110 707 121 735 110 z m 1071 111 l 1071 258 l 1044 258 l 1044 111 z m 935 240 b 974 208 956 240 969 226 b 975 199 974 207 975 203 l 975 172 b 974 161 975 168 974 165 b 933 129 969 140 951 129 b 892 185 906 129 892 156 b 935 240 892 217 907 240 z m 1132 185 b 1175 240 1132 213 1146 240 b 1219 185 1207 240 1219 211 b 1175 129 1219 153 1201 129 b 1132 185 1149 129 1132 153 z m 189 -3 b 254 -71 189 -46 219 -71 b 319 1 288 -71 319 -49 b 258 69 319 40 296 69 b 189 -3 221 69 189 46 z m 353 -69 l 375 -69 l 375 11 b 379 28 375 17 375 21 b 406 50 381 38 393 50 b 435 11 428 50 435 35 l 435 -69 l 458 -69 l 458 15 b 460 28 458 21 460 22 b 489 50 464 38 474 50 b 519 10 510 50 519 36 l 519 -69 l 544 -69 l 544 11 b 500 69 544 57 515 69 b 469 63 486 69 476 67 b 454 44 464 56 458 50 b 415 69 447 57 436 69 b 372 44 393 69 382 57 l 372 68 l 349 68 b 353 29 353 56 353 44 z m 68 -3 b 135 -71 68 -42 94 -71 b 172 -64 153 -71 167 -65 l 168 -46 b 140 -51 161 -50 153 -51 b 92 -3 113 -51 92 -31 b 140 50 92 29 107 50 b 168 44 153 50 161 49 l 174 63 b 140 69 167 68 156 69 b 68 -3 96 69 68 38 z m 254 51 b 294 1 282 51 294 22 b 254 -53 294 -31 278 -53 b 214 -3 232 -53 214 -31 b 254 51 214 24 226 51 z m 32 -71 b 49 -53 39 -71 49 -64 b 32 -36 49 -42 39 -36 b 14 -53 19 -36 14 -42 b 32 -71 14 -65 19 -71 z "},"-":{"ha":1358,"x_min":0,"x_max":0,"o":"m 32 1390 l 32 1335 l 1318 1335 l 1318 1390 z m 786 879 l 882 879 l 893 946 l 979 946 l 990 879 l 1086 879 l 999 1289 l 874 1289 z m 318 1289 l 318 879 l 413 879 l 413 1026 l 438 1026 l 503 879 l 608 879 l 531 1040 b 600 1158 579 1067 600 1103 b 518 1281 600 1218 569 1257 b 463 1289 503 1288 485 1289 z m 647 1289 l 647 879 l 743 879 l 743 1289 z m 22 1197 l 101 1197 l 101 879 l 197 879 l 197 1197 l 276 1197 l 276 1289 l 22 1289 z m 1131 879 l 1344 879 l 1344 971 l 1225 971 l 1225 1289 l 1131 1289 z m 413 1110 l 413 1197 l 457 1197 b 500 1154 483 1197 500 1181 b 457 1110 500 1128 483 1110 z m 935 1178 l 963 1033 l 910 1033 z m 322 513 b 354 468 329 494 339 481 b 451 431 381 442 414 431 b 592 569 533 431 592 490 l 592 722 b 550 822 592 757 578 800 b 451 860 524 849 486 860 b 354 822 414 860 381 849 b 322 781 339 813 329 796 b 311 722 315 761 311 742 l 311 569 b 322 513 311 549 315 529 z m 646 851 l 646 440 l 736 440 l 736 665 l 832 440 l 928 440 l 928 851 l 836 851 l 836 632 l 743 851 z m 46 440 l 139 440 l 139 594 l 264 594 l 264 685 l 139 685 l 139 758 l 278 758 l 278 851 l 46 851 z m 1047 758 l 1047 440 l 1142 440 l 1142 758 l 1221 758 l 1221 851 l 967 851 l 967 758 z m 407 722 b 421 757 407 738 411 749 b 451 768 431 764 440 768 b 481 757 461 768 471 764 b 494 722 490 749 494 738 l 494 568 b 451 524 494 542 478 524 b 407 569 424 524 407 542 z m 32 403 l 32 350 l 1318 350 l 1318 403 z m 864 183 b 928 110 864 139 890 110 b 976 138 953 110 969 119 l 979 111 l 1003 111 b 1001 129 1001 115 1001 122 l 1001 131 l 1001 132 l 1001 135 l 1001 136 l 1001 138 l 1001 139 l 1001 139 l 1001 146 l 1001 147 l 1001 325 l 975 325 l 975 239 b 929 260 965 250 951 260 b 864 183 892 260 864 232 z m 1058 282 b 1075 297 1068 282 1075 290 b 1058 315 1075 310 1069 315 b 1040 297 1046 315 1040 310 b 1058 282 1040 290 1049 282 z m 272 286 l 186 111 l 214 111 l 300 290 l 300 308 l 176 308 l 176 286 z m 329 308 l 329 286 l 426 286 l 342 111 l 369 111 l 454 290 l 454 308 z m 36 283 l 40 264 l 75 282 l 75 111 l 101 111 l 101 308 l 78 308 z m 592 239 l 615 239 l 615 158 b 653 110 615 131 621 110 b 678 114 665 110 674 111 l 678 133 b 671 131 676 132 674 131 l 669 131 l 668 131 l 667 131 l 667 131 l 665 131 l 665 131 l 663 131 l 663 131 l 661 131 b 642 158 649 131 642 140 l 642 239 l 679 239 l 679 258 l 642 258 l 642 300 l 615 292 l 615 258 l 592 258 z m 1104 183 b 1175 110 1104 138 1136 110 b 1247 186 1210 110 1247 131 b 1178 260 1247 231 1221 260 b 1104 183 1135 260 1104 232 z m 479 119 b 521 110 492 113 506 110 b 576 153 556 110 576 126 b 536 197 576 175 563 186 b 508 221 518 204 508 208 b 535 240 508 233 517 240 b 564 232 547 240 557 238 l 569 253 b 535 260 563 257 550 260 b 485 218 503 260 485 242 b 522 176 485 200 497 186 b 550 151 540 169 550 161 b 521 129 550 136 540 129 b 486 139 507 129 496 132 z m 758 110 b 807 135 785 110 800 124 l 808 111 l 832 111 b 831 151 832 124 831 136 l 831 258 l 804 258 l 804 169 b 767 131 804 149 789 131 b 735 176 743 131 735 149 l 735 258 l 707 258 l 707 172 b 758 110 707 121 735 110 z m 1071 111 l 1071 258 l 1044 258 l 1044 111 z m 935 240 b 974 208 956 240 969 226 b 975 199 974 207 975 203 l 975 172 b 974 161 975 168 974 165 b 933 129 969 140 951 129 b 892 185 906 129 892 156 b 935 240 892 217 907 240 z m 1132 185 b 1175 240 1132 213 1146 240 b 1219 185 1207 240 1219 211 b 1175 129 1219 153 1201 129 b 1132 185 1149 129 1132 153 z m 189 -3 b 254 -71 189 -46 219 -71 b 319 1 288 -71 319 -49 b 258 69 319 40 296 69 b 189 -3 221 69 189 46 z m 353 -69 l 375 -69 l 375 11 b 379 28 375 17 375 21 b 406 50 381 38 393 50 b 435 11 428 50 435 35 l 435 -69 l 458 -69 l 458 15 b 460 28 458 21 460 22 b 489 50 464 38 474 50 b 519 10 510 50 519 36 l 519 -69 l 544 -69 l 544 11 b 500 69 544 57 515 69 b 469 63 486 69 476 67 b 454 44 464 56 458 50 b 415 69 447 57 436 69 b 372 44 393 69 382 57 l 372 68 l 349 68 b 353 29 353 56 353 44 z m 68 -3 b 135 -71 68 -42 94 -71 b 172 -64 153 -71 167 -65 l 168 -46 b 140 -51 161 -50 153 -51 b 92 -3 113 -51 92 -31 b 140 50 92 29 107 50 b 168 44 153 50 161 49 l 174 63 b 140 69 167 68 156 69 b 68 -3 96 69 68 38 z m 254 51 b 294 1 282 51 294 22 b 254 -53 294 -31 278 -53 b 214 -3 232 -53 214 -31 b 254 51 214 24 226 51 z m 32 -71 b 49 -53 39 -71 49 -64 b 32 -36 49 -42 39 -36 b 14 -53 19 -36 14 -42 b 32 -71 14 -65 19 -71 z "},".":{"ha":1358,"x_min":0,"x_max":0,"o":"m 32 1390 l 32 1335 l 1318 1335 l 1318 1390 z m 786 879 l 882 879 l 893 946 l 979 946 l 990 879 l 1086 879 l 999 1289 l 874 1289 z m 318 1289 l 318 879 l 413 879 l 413 1026 l 438 1026 l 503 879 l 608 879 l 531 1040 b 600 1158 579 1067 600 1103 b 518 1281 600 1218 569 1257 b 463 1289 503 1288 485 1289 z m 647 1289 l 647 879 l 743 879 l 743 1289 z m 22 1197 l 101 1197 l 101 879 l 197 879 l 197 1197 l 276 1197 l 276 1289 l 22 1289 z m 1131 879 l 1344 879 l 1344 971 l 1225 971 l 1225 1289 l 1131 1289 z m 413 1110 l 413 1197 l 457 1197 b 500 1154 483 1197 500 1181 b 457 1110 500 1128 483 1110 z m 935 1178 l 963 1033 l 910 1033 z m 322 513 b 354 468 329 494 339 481 b 451 431 381 442 414 431 b 592 569 533 431 592 490 l 592 722 b 550 822 592 757 578 800 b 451 860 524 849 486 860 b 354 822 414 860 381 849 b 322 781 339 813 329 796 b 311 722 315 761 311 742 l 311 569 b 322 513 311 549 315 529 z m 646 851 l 646 440 l 736 440 l 736 665 l 832 440 l 928 440 l 928 851 l 836 851 l 836 632 l 743 851 z m 46 440 l 139 440 l 139 594 l 264 594 l 264 685 l 139 685 l 139 758 l 278 758 l 278 851 l 46 851 z m 1047 758 l 1047 440 l 1142 440 l 1142 758 l 1221 758 l 1221 851 l 967 851 l 967 758 z m 407 722 b 421 757 407 738 411 749 b 451 768 431 764 440 768 b 481 757 461 768 471 764 b 494 722 490 749 494 738 l 494 568 b 451 524 494 542 478 524 b 407 569 424 524 407 542 z m 32 403 l 32 350 l 1318 350 l 1318 403 z m 864 183 b 928 110 864 139 890 110 b 976 138 953 110 969 119 l 979 111 l 1003 111 b 1001 129 1001 115 1001 122 l 1001 131 l 1001 132 l 1001 135 l 1001 136 l 1001 138 l 1001 139 l 1001 139 l 1001 146 l 1001 147 l 1001 325 l 975 325 l 975 239 b 929 260 965 250 951 260 b 864 183 892 260 864 232 z m 1058 282 b 1075 297 1068 282 1075 290 b 1058 315 1075 310 1069 315 b 1040 297 1046 315 1040 310 b 1058 282 1040 290 1049 282 z m 272 286 l 186 111 l 214 111 l 300 290 l 300 308 l 176 308 l 176 286 z m 329 308 l 329 286 l 426 286 l 342 111 l 369 111 l 454 290 l 454 308 z m 36 283 l 40 264 l 75 282 l 75 111 l 101 111 l 101 308 l 78 308 z m 592 239 l 615 239 l 615 158 b 653 110 615 131 621 110 b 678 114 665 110 674 111 l 678 133 b 671 131 676 132 674 131 l 669 131 l 668 131 l 667 131 l 667 131 l 665 131 l 665 131 l 663 131 l 663 131 l 661 131 b 642 158 649 131 642 140 l 642 239 l 679 239 l 679 258 l 642 258 l 642 300 l 615 292 l 615 258 l 592 258 z m 1104 183 b 1175 110 1104 138 1136 110 b 1247 186 1210 110 1247 131 b 1178 260 1247 231 1221 260 b 1104 183 1135 260 1104 232 z m 479 119 b 521 110 492 113 506 110 b 576 153 556 110 576 126 b 536 197 576 175 563 186 b 508 221 518 204 508 208 b 535 240 508 233 517 240 b 564 232 547 240 557 238 l 569 253 b 535 260 563 257 550 260 b 485 218 503 260 485 242 b 522 176 485 200 497 186 b 550 151 540 169 550 161 b 521 129 550 136 540 129 b 486 139 507 129 496 132 z m 758 110 b 807 135 785 110 800 124 l 808 111 l 832 111 b 831 151 832 124 831 136 l 831 258 l 804 258 l 804 169 b 767 131 804 149 789 131 b 735 176 743 131 735 149 l 735 258 l 707 258 l 707 172 b 758 110 707 121 735 110 z m 1071 111 l 1071 258 l 1044 258 l 1044 111 z m 935 240 b 974 208 956 240 969 226 b 975 199 974 207 975 203 l 975 172 b 974 161 975 168 974 165 b 933 129 969 140 951 129 b 892 185 906 129 892 156 b 935 240 892 217 907 240 z m 1132 185 b 1175 240 1132 213 1146 240 b 1219 185 1207 240 1219 211 b 1175 129 1219 153 1201 129 b 1132 185 1149 129 1132 153 z m 189 -3 b 254 -71 189 -46 219 -71 b 319 1 288 -71 319 -49 b 258 69 319 40 296 69 b 189 -3 221 69 189 46 z m 353 -69 l 375 -69 l 375 11 b 379 28 375 17 375 21 b 406 50 381 38 393 50 b 435 11 428 50 435 35 l 435 -69 l 458 -69 l 458 15 b 460 28 458 21 460 22 b 489 50 464 38 474 50 b 519 10 510 50 519 36 l 519 -69 l 544 -69 l 544 11 b 500 69 544 57 515 69 b 469 63 486 69 476 67 b 454 44 464 56 458 50 b 415 69 447 57 436 69 b 372 44 393 69 382 57 l 372 68 l 349 68 b 353 29 353 56 353 44 z m 68 -3 b 135 -71 68 -42 94 -71 b 172 -64 153 -71 167 -65 l 168 -46 b 140 -51 161 -50 153 -51 b 92 -3 113 -51 92 -31 b 140 50 92 29 107 50 b 168 44 153 50 161 49 l 174 63 b 140 69 167 68 156 69 b 68 -3 96 69 68 38 z m 254 51 b 294 1 282 51 294 22 b 254 -53 294 -31 278 -53 b 214 -3 232 -53 214 -31 b 254 51 214 24 226 51 z m 32 -71 b 49 -53 39 -71 49 -64 b 32 -36 49 -42 39 -36 b 14 -53 19 -36 14 -42 b 32 -71 14 -65 19 -71 z "},"/":{"ha":1358,"x_min":0,"x_max":0,"o":"m 32 1390 l 32 1335 l 1318 1335 l 1318 1390 z m 786 879 l 882 879 l 893 946 l 979 946 l 990 879 l 1086 879 l 999 1289 l 874 1289 z m 318 1289 l 318 879 l 413 879 l 413 1026 l 438 1026 l 503 879 l 608 879 l 531 1040 b 600 1158 579 1067 600 1103 b 518 1281 600 1218 569 1257 b 463 1289 503 1288 485 1289 z m 647 1289 l 647 879 l 743 879 l 743 1289 z m 22 1197 l 101 1197 l 101 879 l 197 879 l 197 1197 l 276 1197 l 276 1289 l 22 1289 z m 1131 879 l 1344 879 l 1344 971 l 1225 971 l 1225 1289 l 1131 1289 z m 413 1110 l 413 1197 l 457 1197 b 500 1154 483 1197 500 1181 b 457 1110 500 1128 483 1110 z m 935 1178 l 963 1033 l 910 1033 z m 322 513 b 354 468 329 494 339 481 b 451 431 381 442 414 431 b 592 569 533 431 592 490 l 592 722 b 550 822 592 757 578 800 b 451 860 524 849 486 860 b 354 822 414 860 381 849 b 322 781 339 813 329 796 b 311 722 315 761 311 742 l 311 569 b 322 513 311 549 315 529 z m 646 851 l 646 440 l 736 440 l 736 665 l 832 440 l 928 440 l 928 851 l 836 851 l 836 632 l 743 851 z m 46 440 l 139 440 l 139 594 l 264 594 l 264 685 l 139 685 l 139 758 l 278 758 l 278 851 l 46 851 z m 1047 758 l 1047 440 l 1142 440 l 1142 758 l 1221 758 l 1221 851 l 967 851 l 967 758 z m 407 722 b 421 757 407 738 411 749 b 451 768 431 764 440 768 b 481 757 461 768 471 764 b 494 722 490 749 494 738 l 494 568 b 451 524 494 542 478 524 b 407 569 424 524 407 542 z m 32 403 l 32 350 l 1318 350 l 1318 403 z m 864 183 b 928 110 864 139 890 110 b 976 138 953 110 969 119 l 979 111 l 1003 111 b 1001 129 1001 115 1001 122 l 1001 131 l 1001 132 l 1001 135 l 1001 136 l 1001 138 l 1001 139 l 1001 139 l 1001 146 l 1001 147 l 1001 325 l 975 325 l 975 239 b 929 260 965 250 951 260 b 864 183 892 260 864 232 z m 1058 282 b 1075 297 1068 282 1075 290 b 1058 315 1075 310 1069 315 b 1040 297 1046 315 1040 310 b 1058 282 1040 290 1049 282 z m 272 286 l 186 111 l 214 111 l 300 290 l 300 308 l 176 308 l 176 286 z m 329 308 l 329 286 l 426 286 l 342 111 l 369 111 l 454 290 l 454 308 z m 36 283 l 40 264 l 75 282 l 75 111 l 101 111 l 101 308 l 78 308 z m 592 239 l 615 239 l 615 158 b 653 110 615 131 621 110 b 678 114 665 110 674 111 l 678 133 b 671 131 676 132 674 131 l 669 131 l 668 131 l 667 131 l 667 131 l 665 131 l 665 131 l 663 131 l 663 131 l 661 131 b 642 158 649 131 642 140 l 642 239 l 679 239 l 679 258 l 642 258 l 642 300 l 615 292 l 615 258 l 592 258 z m 1104 183 b 1175 110 1104 138 1136 110 b 1247 186 1210 110 1247 131 b 1178 260 1247 231 1221 260 b 1104 183 1135 260 1104 232 z m 479 119 b 521 110 492 113 506 110 b 576 153 556 110 576 126 b 536 197 576 175 563 186 b 508 221 518 204 508 208 b 535 240 508 233 517 240 b 564 232 547 240 557 238 l 569 253 b 535 260 563 257 550 260 b 485 218 503 260 485 242 b 522 176 485 200 497 186 b 550 151 540 169 550 161 b 521 129 550 136 540 129 b 486 139 507 129 496 132 z m 758 110 b 807 135 785 110 800 124 l 808 111 l 832 111 b 831 151 832 124 831 136 l 831 258 l 804 258 l 804 169 b 767 131 804 149 789 131 b 735 176 743 131 735 149 l 735 258 l 707 258 l 707 172 b 758 110 707 121 735 110 z m 1071 111 l 1071 258 l 1044 258 l 1044 111 z m 935 240 b 974 208 956 240 969 226 b 975 199 974 207 975 203 l 975 172 b 974 161 975 168 974 165 b 933 129 969 140 951 129 b 892 185 906 129 892 156 b 935 240 892 217 907 240 z m 1132 185 b 1175 240 1132 213 1146 240 b 1219 185 1207 240 1219 211 b 1175 129 1219 153 1201 129 b 1132 185 1149 129 1132 153 z m 189 -3 b 254 -71 189 -46 219 -71 b 319 1 288 -71 319 -49 b 258 69 319 40 296 69 b 189 -3 221 69 189 46 z m 353 -69 l 375 -69 l 375 11 b 379 28 375 17 375 21 b 406 50 381 38 393 50 b 435 11 428 50 435 35 l 435 -69 l 458 -69 l 458 15 b 460 28 458 21 460 22 b 489 50 464 38 474 50 b 519 10 510 50 519 36 l 519 -69 l 544 -69 l 544 11 b 500 69 544 57 515 69 b 469 63 486 69 476 67 b 454 44 464 56 458 50 b 415 69 447 57 436 69 b 372 44 393 69 382 57 l 372 68 l 349 68 b 353 29 353 56 353 44 z m 68 -3 b 135 -71 68 -42 94 -71 b 172 -64 153 -71 167 -65 l 168 -46 b 140 -51 161 -50 153 -51 b 92 -3 113 -51 92 -31 b 140 50 92 29 107 50 b 168 44 153 50 161 49 l 174 63 b 140 69 167 68 156 69 b 68 -3 96 69 68 38 z m 254 51 b 294 1 282 51 294 22 b 254 -53 294 -31 278 -53 b 214 -3 232 -53 214 -31 b 254 51 214 24 226 51 z m 32 -71 b 49 -53 39 -71 49 -64 b 32 -36 49 -42 39 -36 b 14 -53 19 -36 14 -42 b 32 -71 14 -65 19 -71 z "},":":{"ha":1358,"x_min":0,"x_max":0,"o":"m 32 1390 l 32 1335 l 1318 1335 l 1318 1390 z m 786 879 l 882 879 l 893 946 l 979 946 l 990 879 l 1086 879 l 999 1289 l 874 1289 z m 318 1289 l 318 879 l 413 879 l 413 1026 l 438 1026 l 503 879 l 608 879 l 531 1040 b 600 1158 579 1067 600 1103 b 518 1281 600 1218 569 1257 b 463 1289 503 1288 485 1289 z m 647 1289 l 647 879 l 743 879 l 743 1289 z m 22 1197 l 101 1197 l 101 879 l 197 879 l 197 1197 l 276 1197 l 276 1289 l 22 1289 z m 1131 879 l 1344 879 l 1344 971 l 1225 971 l 1225 1289 l 1131 1289 z m 413 1110 l 413 1197 l 457 1197 b 500 1154 483 1197 500 1181 b 457 1110 500 1128 483 1110 z m 935 1178 l 963 1033 l 910 1033 z m 322 513 b 354 468 329 494 339 481 b 451 431 381 442 414 431 b 592 569 533 431 592 490 l 592 722 b 550 822 592 757 578 800 b 451 860 524 849 486 860 b 354 822 414 860 381 849 b 322 781 339 813 329 796 b 311 722 315 761 311 742 l 311 569 b 322 513 311 549 315 529 z m 646 851 l 646 440 l 736 440 l 736 665 l 832 440 l 928 440 l 928 851 l 836 851 l 836 632 l 743 851 z m 46 440 l 139 440 l 139 594 l 264 594 l 264 685 l 139 685 l 139 758 l 278 758 l 278 851 l 46 851 z m 1047 758 l 1047 440 l 1142 440 l 1142 758 l 1221 758 l 1221 851 l 967 851 l 967 758 z m 407 722 b 421 757 407 738 411 749 b 451 768 431 764 440 768 b 481 757 461 768 471 764 b 494 722 490 749 494 738 l 494 568 b 451 524 494 542 478 524 b 407 569 424 524 407 542 z m 32 403 l 32 350 l 1318 350 l 1318 403 z m 864 183 b 928 110 864 139 890 110 b 976 138 953 110 969 119 l 979 111 l 1003 111 b 1001 129 1001 115 1001 122 l 1001 131 l 1001 132 l 1001 135 l 1001 136 l 1001 138 l 1001 139 l 1001 139 l 1001 146 l 1001 147 l 1001 325 l 975 325 l 975 239 b 929 260 965 250 951 260 b 864 183 892 260 864 232 z m 1058 282 b 1075 297 1068 282 1075 290 b 1058 315 1075 310 1069 315 b 1040 297 1046 315 1040 310 b 1058 282 1040 290 1049 282 z m 272 286 l 186 111 l 214 111 l 300 290 l 300 308 l 176 308 l 176 286 z m 329 308 l 329 286 l 426 286 l 342 111 l 369 111 l 454 290 l 454 308 z m 36 283 l 40 264 l 75 282 l 75 111 l 101 111 l 101 308 l 78 308 z m 592 239 l 615 239 l 615 158 b 653 110 615 131 621 110 b 678 114 665 110 674 111 l 678 133 b 671 131 676 132 674 131 l 669 131 l 668 131 l 667 131 l 667 131 l 665 131 l 665 131 l 663 131 l 663 131 l 661 131 b 642 158 649 131 642 140 l 642 239 l 679 239 l 679 258 l 642 258 l 642 300 l 615 292 l 615 258 l 592 258 z m 1104 183 b 1175 110 1104 138 1136 110 b 1247 186 1210 110 1247 131 b 1178 260 1247 231 1221 260 b 1104 183 1135 260 1104 232 z m 479 119 b 521 110 492 113 506 110 b 576 153 556 110 576 126 b 536 197 576 175 563 186 b 508 221 518 204 508 208 b 535 240 508 233 517 240 b 564 232 547 240 557 238 l 569 253 b 535 260 563 257 550 260 b 485 218 503 260 485 242 b 522 176 485 200 497 186 b 550 151 540 169 550 161 b 521 129 550 136 540 129 b 486 139 507 129 496 132 z m 758 110 b 807 135 785 110 800 124 l 808 111 l 832 111 b 831 151 832 124 831 136 l 831 258 l 804 258 l 804 169 b 767 131 804 149 789 131 b 735 176 743 131 735 149 l 735 258 l 707 258 l 707 172 b 758 110 707 121 735 110 z m 1071 111 l 1071 258 l 1044 258 l 1044 111 z m 935 240 b 974 208 956 240 969 226 b 975 199 974 207 975 203 l 975 172 b 974 161 975 168 974 165 b 933 129 969 140 951 129 b 892 185 906 129 892 156 b 935 240 892 217 907 240 z m 1132 185 b 1175 240 1132 213 1146 240 b 1219 185 1207 240 1219 211 b 1175 129 1219 153 1201 129 b 1132 185 1149 129 1132 153 z m 189 -3 b 254 -71 189 -46 219 -71 b 319 1 288 -71 319 -49 b 258 69 319 40 296 69 b 189 -3 221 69 189 46 z m 353 -69 l 375 -69 l 375 11 b 379 28 375 17 375 21 b 406 50 381 38 393 50 b 435 11 428 50 435 35 l 435 -69 l 458 -69 l 458 15 b 460 28 458 21 460 22 b 489 50 464 38 474 50 b 519 10 510 50 519 36 l 519 -69 l 544 -69 l 544 11 b 500 69 544 57 515 69 b 469 63 486 69 476 67 b 454 44 464 56 458 50 b 415 69 447 57 436 69 b 372 44 393 69 382 57 l 372 68 l 349 68 b 353 29 353 56 353 44 z m 68 -3 b 135 -71 68 -42 94 -71 b 172 -64 153 -71 167 -65 l 168 -46 b 140 -51 161 -50 153 -51 b 92 -3 113 -51 92 -31 b 140 50 92 29 107 50 b 168 44 153 50 161 49 l 174 63 b 140 69 167 68 156 69 b 68 -3 96 69 68 38 z m 254 51 b 294 1 282 51 294 22 b 254 -53 294 -31 278 -53 b 214 -3 232 -53 214 -31 b 254 51 214 24 226 51 z m 32 -71 b 49 -53 39 -71 49 -64 b 32 -36 49 -42 39 -36 b 14 -53 19 -36 14 -42 b 32 -71 14 -65 19 -71 z "},";":{"ha":1358,"x_min":0,"x_max":0,"o":"m 32 1390 l 32 1335 l 1318 1335 l 1318 1390 z m 786 879 l 882 879 l 893 946 l 979 946 l 990 879 l 1086 879 l 999 1289 l 874 1289 z m 318 1289 l 318 879 l 413 879 l 413 1026 l 438 1026 l 503 879 l 608 879 l 531 1040 b 600 1158 579 1067 600 1103 b 518 1281 600 1218 569 1257 b 463 1289 503 1288 485 1289 z m 647 1289 l 647 879 l 743 879 l 743 1289 z m 22 1197 l 101 1197 l 101 879 l 197 879 l 197 1197 l 276 1197 l 276 1289 l 22 1289 z m 1131 879 l 1344 879 l 1344 971 l 1225 971 l 1225 1289 l 1131 1289 z m 413 1110 l 413 1197 l 457 1197 b 500 1154 483 1197 500 1181 b 457 1110 500 1128 483 1110 z m 935 1178 l 963 1033 l 910 1033 z m 322 513 b 354 468 329 494 339 481 b 451 431 381 442 414 431 b 592 569 533 431 592 490 l 592 722 b 550 822 592 757 578 800 b 451 860 524 849 486 860 b 354 822 414 860 381 849 b 322 781 339 813 329 796 b 311 722 315 761 311 742 l 311 569 b 322 513 311 549 315 529 z m 646 851 l 646 440 l 736 440 l 736 665 l 832 440 l 928 440 l 928 851 l 836 851 l 836 632 l 743 851 z m 46 440 l 139 440 l 139 594 l 264 594 l 264 685 l 139 685 l 139 758 l 278 758 l 278 851 l 46 851 z m 1047 758 l 1047 440 l 1142 440 l 1142 758 l 1221 758 l 1221 851 l 967 851 l 967 758 z m 407 722 b 421 757 407 738 411 749 b 451 768 431 764 440 768 b 481 757 461 768 471 764 b 494 722 490 749 494 738 l 494 568 b 451 524 494 542 478 524 b 407 569 424 524 407 542 z m 32 403 l 32 350 l 1318 350 l 1318 403 z m 864 183 b 928 110 864 139 890 110 b 976 138 953 110 969 119 l 979 111 l 1003 111 b 1001 129 1001 115 1001 122 l 1001 131 l 1001 132 l 1001 135 l 1001 136 l 1001 138 l 1001 139 l 1001 139 l 1001 146 l 1001 147 l 1001 325 l 975 325 l 975 239 b 929 260 965 250 951 260 b 864 183 892 260 864 232 z m 1058 282 b 1075 297 1068 282 1075 290 b 1058 315 1075 310 1069 315 b 1040 297 1046 315 1040 310 b 1058 282 1040 290 1049 282 z m 272 286 l 186 111 l 214 111 l 300 290 l 300 308 l 176 308 l 176 286 z m 329 308 l 329 286 l 426 286 l 342 111 l 369 111 l 454 290 l 454 308 z m 36 283 l 40 264 l 75 282 l 75 111 l 101 111 l 101 308 l 78 308 z m 592 239 l 615 239 l 615 158 b 653 110 615 131 621 110 b 678 114 665 110 674 111 l 678 133 b 671 131 676 132 674 131 l 669 131 l 668 131 l 667 131 l 667 131 l 665 131 l 665 131 l 663 131 l 663 131 l 661 131 b 642 158 649 131 642 140 l 642 239 l 679 239 l 679 258 l 642 258 l 642 300 l 615 292 l 615 258 l 592 258 z m 1104 183 b 1175 110 1104 138 1136 110 b 1247 186 1210 110 1247 131 b 1178 260 1247 231 1221 260 b 1104 183 1135 260 1104 232 z m 479 119 b 521 110 492 113 506 110 b 576 153 556 110 576 126 b 536 197 576 175 563 186 b 508 221 518 204 508 208 b 535 240 508 233 517 240 b 564 232 547 240 557 238 l 569 253 b 535 260 563 257 550 260 b 485 218 503 260 485 242 b 522 176 485 200 497 186 b 550 151 540 169 550 161 b 521 129 550 136 540 129 b 486 139 507 129 496 132 z m 758 110 b 807 135 785 110 800 124 l 808 111 l 832 111 b 831 151 832 124 831 136 l 831 258 l 804 258 l 804 169 b 767 131 804 149 789 131 b 735 176 743 131 735 149 l 735 258 l 707 258 l 707 172 b 758 110 707 121 735 110 z m 1071 111 l 1071 258 l 1044 258 l 1044 111 z m 935 240 b 974 208 956 240 969 226 b 975 199 974 207 975 203 l 975 172 b 974 161 975 168 974 165 b 933 129 969 140 951 129 b 892 185 906 129 892 156 b 935 240 892 217 907 240 z m 1132 185 b 1175 240 1132 213 1146 240 b 1219 185 1207 240 1219 211 b 1175 129 1219 153 1201 129 b 1132 185 1149 129 1132 153 z m 189 -3 b 254 -71 189 -46 219 -71 b 319 1 288 -71 319 -49 b 258 69 319 40 296 69 b 189 -3 221 69 189 46 z m 353 -69 l 375 -69 l 375 11 b 379 28 375 17 375 21 b 406 50 381 38 393 50 b 435 11 428 50 435 35 l 435 -69 l 458 -69 l 458 15 b 460 28 458 21 460 22 b 489 50 464 38 474 50 b 519 10 510 50 519 36 l 519 -69 l 544 -69 l 544 11 b 500 69 544 57 515 69 b 469 63 486 69 476 67 b 454 44 464 56 458 50 b 415 69 447 57 436 69 b 372 44 393 69 382 57 l 372 68 l 349 68 b 353 29 353 56 353 44 z m 68 -3 b 135 -71 68 -42 94 -71 b 172 -64 153 -71 167 -65 l 168 -46 b 140 -51 161 -50 153 -51 b 92 -3 113 -51 92 -31 b 140 50 92 29 107 50 b 168 44 153 50 161 49 l 174 63 b 140 69 167 68 156 69 b 68 -3 96 69 68 38 z m 254 51 b 294 1 282 51 294 22 b 254 -53 294 -31 278 -53 b 214 -3 232 -53 214 -31 b 254 51 214 24 226 51 z m 32 -71 b 49 -53 39 -71 49 -64 b 32 -36 49 -42 39 -36 b 14 -53 19 -36 14 -42 b 32 -71 14 -65 19 -71 z "},"<":{"ha":1206,"x_min":0,"x_max":0,"o":"m 69 642 b 829 247 69 369 113 386 b 983 226 893 233 944 226 b 1094 333 1061 226 1093 256 b 1100 475 1097 425 1100 460 l 1100 478 l 1100 478 l 1100 479 l 1100 479 l 1100 481 l 1100 481 l 1100 483 b 960 643 1100 586 1071 610 b 926 689 938 649 926 672 b 1021 750 926 694 926 746 b 1088 804 1058 751 1078 765 b 1097 939 1097 843 1097 896 l 1097 940 l 1097 942 l 1097 943 l 1097 944 l 1097 946 l 1097 949 l 1097 951 l 1097 951 l 1097 953 l 1097 954 l 1097 965 l 1097 968 l 1097 972 b 1096 1008 1097 983 1097 996 b 982 1154 1096 1110 1081 1154 b 583 1088 904 1154 789 1131 b 300 1026 514 1076 389 1049 b 69 642 53 964 69 903 z "},"=":{"ha":910,"x_min":0,"x_max":0,"o":"m 119 885 b 157 867 128 879 140 874 b 249 846 189 856 217 850 b 346 843 281 844 313 843 l 558 843 b 663 846 593 843 628 844 b 707 849 678 847 692 847 b 790 871 735 853 767 854 b 810 901 800 878 807 889 b 814 935 814 911 813 919 l 814 1022 b 810 1057 813 1038 814 1047 b 726 1108 800 1094 760 1103 b 614 1114 689 1113 653 1114 l 579 1114 l 578 1114 l 576 1114 l 575 1114 l 574 1114 l 572 1114 l 572 1114 l 571 1114 l 569 1114 l 563 1114 l 563 1114 l 561 1114 l 560 1114 b 540 1115 553 1114 547 1114 l 456 1115 b 435 1114 449 1114 442 1114 l 433 1114 l 432 1114 l 429 1114 l 428 1114 l 426 1114 l 426 1114 l 425 1114 l 424 1114 l 415 1114 l 415 1114 l 414 1114 l 413 1114 l 249 1114 b 204 1110 233 1113 219 1111 b 103 1057 171 1110 107 1096 b 97 1024 101 1051 99 1040 b 96 1003 96 1019 96 1013 l 96 956 l 96 956 l 96 954 l 96 953 l 96 953 l 96 946 b 97 935 96 942 96 939 b 103 901 99 918 101 907 b 119 885 103 896 108 890 z m 103 389 b 121 360 104 376 111 367 b 249 335 161 338 206 335 b 351 332 281 333 314 332 l 564 332 b 663 335 597 332 631 333 b 753 343 693 335 724 338 b 810 389 775 349 806 361 b 814 424 814 399 813 408 l 814 511 b 810 546 813 526 814 536 b 797 569 806 556 804 563 b 771 586 790 576 782 582 b 650 601 739 597 690 601 l 614 601 b 540 603 592 601 567 603 l 456 603 b 371 601 426 603 397 601 l 249 601 b 204 599 233 600 219 600 b 103 546 171 599 107 585 b 97 513 101 539 99 528 b 96 501 96 508 96 506 l 96 500 l 96 500 l 96 499 l 96 497 l 96 497 l 96 443 l 96 443 l 96 442 l 96 440 l 96 440 l 96 433 b 97 422 96 429 96 426 b 103 389 99 406 101 394 z "},">":{"ha":1206,"x_min":0,"x_max":0,"o":"m 110 315 b 221 208 114 238 143 208 b 375 229 260 208 311 215 b 1136 624 1093 368 1136 351 b 904 1008 1136 885 1153 946 b 624 1069 819 1031 692 1058 b 222 1138 418 1113 296 1138 b 108 992 124 1138 113 1094 l 108 933 b 119 786 108 882 108 825 b 185 733 129 747 147 733 b 278 669 278 729 278 676 b 246 626 278 654 268 632 b 106 465 133 593 106 568 l 106 464 l 106 464 l 106 463 l 106 463 l 106 457 l 106 457 b 110 315 106 442 107 407 z "},"?":{"ha":1354,"x_min":0,"x_max":0,"o":"m 57 1021 b 72 942 57 994 60 965 b 96 919 79 932 88 924 b 126 907 106 915 115 911 b 175 901 136 906 153 903 b 250 897 196 899 221 897 b 275 896 257 896 265 896 l 276 896 l 278 896 l 281 896 l 281 896 l 282 896 l 285 896 l 286 896 l 288 896 l 297 896 l 299 896 l 619 896 b 643 897 631 896 639 896 l 661 897 b 675 896 668 897 672 897 b 690 892 682 894 688 893 b 703 883 692 890 696 888 b 715 854 711 875 715 865 b 685 815 715 839 700 819 b 660 813 679 814 671 813 l 613 813 b 596 814 608 814 603 814 l 596 814 l 594 814 l 594 814 l 592 814 l 589 814 l 589 814 l 578 814 l 576 814 l 575 814 l 575 814 l 571 814 l 569 814 l 568 814 l 556 814 b 532 813 549 814 540 814 b 497 814 519 813 508 814 l 461 814 b 392 785 440 814 396 813 b 390 765 390 781 390 775 l 390 718 b 397 694 390 710 393 701 b 408 686 400 690 404 688 b 456 676 421 679 440 676 b 499 674 471 675 483 674 b 511 672 503 672 507 672 l 514 672 l 515 672 l 517 672 l 517 672 l 522 672 l 522 672 l 550 672 b 563 671 554 671 558 671 l 564 671 l 564 671 l 565 671 l 567 671 l 567 671 l 568 671 l 568 671 l 572 671 l 574 671 l 739 671 l 740 671 l 742 671 l 742 671 l 743 671 l 746 671 l 747 671 l 749 671 l 749 671 l 751 671 l 753 671 l 761 671 l 763 671 l 765 671 b 789 672 774 671 782 671 b 950 692 843 672 896 674 b 1028 739 978 703 1001 718 b 1131 838 1063 771 1096 803 b 1186 892 1151 858 1169 875 b 1257 969 1210 918 1236 942 b 1278 1000 1267 982 1274 993 b 1297 1094 1296 1032 1297 1060 l 1297 1158 b 1296 1175 1297 1167 1297 1172 b 1292 1200 1296 1185 1294 1193 b 1289 1210 1290 1204 1290 1206 l 1289 1211 l 1288 1213 l 1288 1215 l 1286 1217 l 1286 1218 b 1201 1257 1268 1244 1231 1253 l 1197 1257 l 1196 1258 l 1185 1258 l 1183 1260 l 1175 1260 l 1174 1261 l 1163 1261 l 1161 1263 l 1157 1263 b 1114 1267 1142 1264 1126 1265 b 1039 1268 1085 1267 1060 1268 b 1024 1269 1033 1269 1028 1269 l 1022 1269 l 1021 1269 l 1021 1269 l 1019 1269 l 1018 1269 l 1017 1269 l 1017 1269 l 1015 1269 l 1008 1269 l 1008 1269 l 439 1269 b 199 1260 356 1269 282 1267 b 151 1253 183 1258 168 1257 b 81 1214 128 1247 96 1235 b 68 1189 76 1210 72 1201 b 61 1153 64 1176 63 1165 b 57 1114 60 1138 58 1126 z m 388 336 b 401 258 388 308 390 285 b 451 225 411 238 431 232 b 496 217 461 222 476 219 b 511 215 500 215 506 215 l 511 215 l 514 215 l 515 215 l 526 215 l 526 215 l 567 215 b 592 214 574 214 582 214 l 593 214 l 599 214 l 599 214 l 781 214 b 853 217 808 215 832 215 b 900 224 874 218 888 219 b 932 238 913 228 922 232 b 951 265 942 244 947 253 b 963 310 957 281 958 294 b 967 358 965 325 967 340 l 967 467 b 963 514 967 485 965 501 b 932 565 957 538 953 550 b 901 578 922 569 913 574 b 854 583 890 582 875 583 b 783 588 836 585 813 586 l 678 588 b 510 583 618 588 567 588 b 457 578 486 583 468 582 b 422 565 442 574 432 569 b 392 514 406 551 396 535 b 386 400 388 475 386 439 l 386 365 l 386 364 l 386 363 l 386 361 l 386 361 l 386 360 l 386 360 l 386 351 b 388 336 386 346 386 340 z "},"@":{"ha":1358,"x_min":0,"x_max":0,"o":"m 32 1390 l 32 1335 l 1318 1335 l 1318 1390 z m 786 879 l 882 879 l 893 946 l 979 946 l 990 879 l 1086 879 l 999 1289 l 874 1289 z m 318 1289 l 318 879 l 413 879 l 413 1026 l 438 1026 l 503 879 l 608 879 l 531 1040 b 600 1158 579 1067 600 1103 b 518 1281 600 1218 569 1257 b 463 1289 503 1288 485 1289 z m 647 1289 l 647 879 l 743 879 l 743 1289 z m 22 1197 l 101 1197 l 101 879 l 197 879 l 197 1197 l 276 1197 l 276 1289 l 22 1289 z m 1131 879 l 1344 879 l 1344 971 l 1225 971 l 1225 1289 l 1131 1289 z m 413 1110 l 413 1197 l 457 1197 b 500 1154 483 1197 500 1181 b 457 1110 500 1128 483 1110 z m 935 1178 l 963 1033 l 910 1033 z m 322 513 b 354 468 329 494 339 481 b 451 431 381 442 414 431 b 592 569 533 431 592 490 l 592 722 b 550 822 592 757 578 800 b 451 860 524 849 486 860 b 354 822 414 860 381 849 b 322 781 339 813 329 796 b 311 722 315 761 311 742 l 311 569 b 322 513 311 549 315 529 z m 646 851 l 646 440 l 736 440 l 736 665 l 832 440 l 928 440 l 928 851 l 836 851 l 836 632 l 743 851 z m 46 440 l 139 440 l 139 594 l 264 594 l 264 685 l 139 685 l 139 758 l 278 758 l 278 851 l 46 851 z m 1047 758 l 1047 440 l 1142 440 l 1142 758 l 1221 758 l 1221 851 l 967 851 l 967 758 z m 407 722 b 421 757 407 738 411 749 b 451 768 431 764 440 768 b 481 757 461 768 471 764 b 494 722 490 749 494 738 l 494 568 b 451 524 494 542 478 524 b 407 569 424 524 407 542 z m 32 403 l 32 350 l 1318 350 l 1318 403 z m 864 183 b 928 110 864 139 890 110 b 976 138 953 110 969 119 l 979 111 l 1003 111 b 1001 129 1001 115 1001 122 l 1001 131 l 1001 132 l 1001 135 l 1001 136 l 1001 138 l 1001 139 l 1001 139 l 1001 146 l 1001 147 l 1001 325 l 975 325 l 975 239 b 929 260 965 250 951 260 b 864 183 892 260 864 232 z m 1058 282 b 1075 297 1068 282 1075 290 b 1058 315 1075 310 1069 315 b 1040 297 1046 315 1040 310 b 1058 282 1040 290 1049 282 z m 272 286 l 186 111 l 214 111 l 300 290 l 300 308 l 176 308 l 176 286 z m 329 308 l 329 286 l 426 286 l 342 111 l 369 111 l 454 290 l 454 308 z m 36 283 l 40 264 l 75 282 l 75 111 l 101 111 l 101 308 l 78 308 z m 592 239 l 615 239 l 615 158 b 653 110 615 131 621 110 b 678 114 665 110 674 111 l 678 133 b 671 131 676 132 674 131 l 669 131 l 668 131 l 667 131 l 667 131 l 665 131 l 665 131 l 663 131 l 663 131 l 661 131 b 642 158 649 131 642 140 l 642 239 l 679 239 l 679 258 l 642 258 l 642 300 l 615 292 l 615 258 l 592 258 z m 1104 183 b 1175 110 1104 138 1136 110 b 1247 186 1210 110 1247 131 b 1178 260 1247 231 1221 260 b 1104 183 1135 260 1104 232 z m 479 119 b 521 110 492 113 506 110 b 576 153 556 110 576 126 b 536 197 576 175 563 186 b 508 221 518 204 508 208 b 535 240 508 233 517 240 b 564 232 547 240 557 238 l 569 253 b 535 260 563 257 550 260 b 485 218 503 260 485 242 b 522 176 485 200 497 186 b 550 151 540 169 550 161 b 521 129 550 136 540 129 b 486 139 507 129 496 132 z m 758 110 b 807 135 785 110 800 124 l 808 111 l 832 111 b 831 151 832 124 831 136 l 831 258 l 804 258 l 804 169 b 767 131 804 149 789 131 b 735 176 743 131 735 149 l 735 258 l 707 258 l 707 172 b 758 110 707 121 735 110 z m 1071 111 l 1071 258 l 1044 258 l 1044 111 z m 935 240 b 974 208 956 240 969 226 b 975 199 974 207 975 203 l 975 172 b 974 161 975 168 974 165 b 933 129 969 140 951 129 b 892 185 906 129 892 156 b 935 240 892 217 907 240 z m 1132 185 b 1175 240 1132 213 1146 240 b 1219 185 1207 240 1219 211 b 1175 129 1219 153 1201 129 b 1132 185 1149 129 1132 153 z m 189 -3 b 254 -71 189 -46 219 -71 b 319 1 288 -71 319 -49 b 258 69 319 40 296 69 b 189 -3 221 69 189 46 z m 353 -69 l 375 -69 l 375 11 b 379 28 375 17 375 21 b 406 50 381 38 393 50 b 435 11 428 50 435 35 l 435 -69 l 458 -69 l 458 15 b 460 28 458 21 460 22 b 489 50 464 38 474 50 b 519 10 510 50 519 36 l 519 -69 l 544 -69 l 544 11 b 500 69 544 57 515 69 b 469 63 486 69 476 67 b 454 44 464 56 458 50 b 415 69 447 57 436 69 b 372 44 393 69 382 57 l 372 68 l 349 68 b 353 29 353 56 353 44 z m 68 -3 b 135 -71 68 -42 94 -71 b 172 -64 153 -71 167 -65 l 168 -46 b 140 -51 161 -50 153 -51 b 92 -3 113 -51 92 -31 b 140 50 92 29 107 50 b 168 44 153 50 161 49 l 174 63 b 140 69 167 68 156 69 b 68 -3 96 69 68 38 z m 254 51 b 294 1 282 51 294 22 b 254 -53 294 -31 278 -53 b 214 -3 232 -53 214 -31 b 254 51 214 24 226 51 z m 32 -71 b 49 -53 39 -71 49 -64 b 32 -36 49 -42 39 -36 b 14 -53 19 -36 14 -42 b 32 -71 14 -65 19 -71 z "},"A":{"ha":1542,"x_min":0,"x_max":0,"o":"m 88 107 b 176 0 88 39 119 0 b 211 4 186 0 199 1 b 215 6 213 4 214 4 l 218 6 b 222 7 219 6 221 6 l 226 7 l 229 8 l 233 8 l 236 10 b 240 11 238 10 239 10 l 243 11 b 251 13 244 13 247 13 l 254 14 l 260 14 l 263 15 l 267 15 b 271 17 268 17 269 17 l 274 17 b 278 18 275 18 276 18 l 281 19 l 285 19 b 289 21 286 21 288 21 l 292 21 b 296 22 293 22 294 22 l 299 22 l 300 24 l 303 24 b 396 44 335 31 364 38 b 678 508 486 194 589 364 b 622 517 657 513 640 513 b 518 553 597 521 532 535 b 508 569 511 560 508 565 b 518 583 508 575 511 579 b 563 606 532 593 547 601 b 674 628 600 615 636 621 b 676 629 675 628 675 628 l 678 629 l 679 629 l 681 631 l 681 631 l 682 631 l 682 631 l 682 631 b 783 671 706 663 746 671 b 858 647 813 671 838 663 b 868 640 863 647 867 644 b 901 626 875 628 886 628 b 1036 588 939 619 1003 610 b 1036 550 1054 576 1054 561 b 996 531 1024 540 1011 535 b 889 510 961 521 926 519 b 875 508 882 510 878 510 b 1160 39 965 358 1069 189 b 1332 6 1219 25 1278 14 b 1375 1 1349 3 1363 1 b 1460 119 1440 1 1458 36 b 1461 169 1461 136 1461 153 l 1461 171 l 1461 172 l 1461 183 l 1461 185 l 1461 193 l 1461 194 l 1461 219 b 1460 421 1461 253 1460 319 b 1461 615 1460 521 1461 583 l 1461 617 l 1461 618 l 1461 628 l 1461 631 l 1461 638 l 1461 639 l 1461 664 b 1460 713 1461 681 1461 697 b 767 1388 1449 1090 1144 1388 b 99 775 426 1388 128 1125 b 86 492 90 681 86 586 b 88 219 86 458 88 369 z m 410 1083 b 492 999 421 1038 449 1008 b 410 911 447 986 419 957 b 326 999 400 957 372 986 b 410 1083 372 1008 400 1036 z m 1111 1047 b 1161 997 1118 1021 1135 1004 b 1111 944 1135 990 1118 974 b 1063 997 1107 974 1092 990 b 1111 1047 1089 1003 1106 1019 z m 856 319 b 863 313 857 317 860 314 b 867 315 864 313 865 314 l 871 319 b 863 326 867 324 867 326 b 856 319 858 326 860 324 z m 664 294 b 682 276 664 282 669 276 l 685 276 b 701 294 696 276 701 282 b 683 311 701 306 696 311 l 681 311 b 664 294 669 311 664 306 z m 651 39 b 664 32 656 35 660 32 b 676 35 667 32 671 33 b 754 60 699 46 728 60 b 775 56 761 60 768 58 l 782 56 b 807 64 792 56 800 58 b 874 122 829 85 851 104 b 890 129 881 126 886 129 b 956 151 917 132 938 139 b 965 167 963 156 965 160 b 961 178 965 169 964 174 b 949 185 957 182 953 185 b 938 182 947 185 943 183 b 915 169 931 178 922 174 b 886 164 903 168 893 164 b 878 165 882 164 879 164 b 858 169 867 169 860 169 b 844 165 853 169 849 168 b 806 231 829 189 815 211 b 790 242 801 238 796 242 b 779 238 786 242 783 240 b 772 225 775 233 772 229 b 775 213 772 222 774 218 b 818 142 790 189 803 168 b 789 118 807 135 799 125 b 781 124 786 119 783 121 b 728 140 765 135 747 140 b 694 135 717 140 706 139 b 686 129 693 133 690 133 b 681 115 682 125 681 121 b 683 107 681 114 682 111 b 696 100 688 103 692 100 b 704 101 700 100 703 100 b 715 104 710 103 714 104 l 726 104 b 761 93 739 104 750 103 b 658 64 724 93 689 83 b 647 49 651 60 647 54 b 651 39 647 46 649 43 z m 844 211 b 874 183 844 196 857 183 b 903 213 889 183 903 196 b 874 240 903 228 889 240 b 844 211 857 240 844 228 z m 594 72 b 606 83 601 72 606 76 b 594 94 606 90 601 94 b 583 83 588 93 583 89 b 594 72 583 76 588 72 z "},"B":{"ha":1576,"x_min":0,"x_max":0,"o":"m 100 131 b 182 4 100 69 100 4 b 764 0 378 3 568 0 b 1160 7 897 0 1026 1 b 1460 275 1313 11 1431 135 b 1469 367 1467 304 1469 335 b 1318 651 1469 481 1419 575 l 1317 653 l 1315 653 l 1315 654 l 1314 654 l 1310 658 l 1308 658 l 1308 660 l 1307 660 l 1307 661 l 1306 661 l 1301 665 l 1300 665 l 1300 667 l 1299 667 l 1294 671 l 1293 671 l 1293 672 l 1292 672 l 1290 674 b 1258 699 1281 681 1271 689 b 1315 738 1282 714 1299 726 b 1449 910 1378 783 1422 842 b 1471 1036 1475 976 1471 1021 b 1460 1122 1471 1065 1467 1093 b 1156 1383 1422 1264 1304 1379 b 832 1388 1047 1386 939 1388 b 185 1383 614 1388 403 1383 b 101 1299 131 1383 103 1356 b 100 1263 100 1286 100 1275 l 100 1257 l 100 1256 l 100 1253 l 100 1251 l 100 1250 l 100 1249 l 100 1247 l 100 1246 l 100 1244 z m 1236 1218 b 1333 1118 1247 1164 1279 1131 b 1236 1015 1278 1103 1246 1075 b 1138 1118 1224 1072 1190 1106 b 1236 1218 1193 1131 1221 1163 z m 260 835 b 332 907 300 843 324 867 b 403 835 340 867 364 843 b 332 758 365 825 342 799 b 260 835 324 799 300 824 z m 597 636 b 551 604 582 626 567 615 b 539 600 547 601 543 600 b 528 603 538 600 533 601 b 454 636 501 615 478 626 b 424 643 444 640 436 639 b 524 497 447 583 486 542 b 476 456 508 485 494 471 b 400 556 450 489 424 521 b 367 621 385 578 374 600 b 363 649 364 631 363 639 b 424 704 363 675 375 704 b 597 636 476 704 553 661 z m 715 599 b 876 506 786 599 839 568 b 908 400 897 468 908 432 b 900 343 908 388 906 369 b 828 244 893 315 868 282 b 1004 164 885 211 933 175 b 993 188 999 175 997 182 l 943 261 b 938 274 939 265 938 272 l 938 276 b 963 333 944 294 953 311 b 1000 288 976 318 989 303 b 1063 178 1026 253 1051 221 b 1064 160 1064 174 1064 167 b 1007 103 1064 131 1046 103 l 1000 103 b 775 204 926 107 835 167 b 746 213 768 210 757 211 b 701 211 725 213 708 211 b 681 213 692 211 685 211 b 594 250 650 217 621 229 b 711 383 686 265 711 343 b 710 400 711 390 711 396 b 551 507 700 471 647 507 b 715 599 592 568 646 599 z m 519 381 b 583 447 519 418 546 447 b 649 381 618 447 649 418 b 583 314 649 343 621 314 b 519 376 546 314 519 343 z "},"C":{"ha":1596,"x_min":0,"x_max":0,"o":"m 96 536 b 118 136 96 403 100 269 l 118 133 l 119 132 l 119 126 l 121 125 l 121 122 b 125 106 122 118 124 113 b 143 74 129 94 136 85 b 178 47 153 64 163 57 b 376 11 214 21 332 15 b 819 0 526 1 669 0 l 994 0 b 1049 1 1013 0 1031 0 b 1238 3 1121 1 1183 3 b 1347 7 1293 4 1329 6 b 1454 82 1410 7 1447 17 b 1461 144 1458 99 1460 118 b 1471 258 1465 182 1467 218 b 1478 374 1475 297 1476 336 b 1481 481 1479 411 1481 447 b 1478 568 1481 515 1479 544 b 1439 636 1476 593 1463 615 b 1358 665 1413 658 1386 665 l 1350 665 l 836 658 b 753 669 803 658 775 663 b 725 694 735 676 725 685 b 833 732 725 726 813 732 l 1290 732 b 1492 854 1367 732 1476 767 b 1501 950 1496 882 1500 913 b 1497 1172 1501 1024 1500 1097 b 1496 1272 1497 1210 1496 1240 b 1492 1338 1496 1300 1494 1322 b 1472 1372 1488 1356 1481 1367 b 1436 1383 1463 1379 1451 1382 b 1424 1385 1432 1385 1428 1385 l 1422 1385 l 1421 1385 l 1421 1385 l 1419 1385 l 1418 1385 l 1418 1385 l 1417 1385 l 1417 1385 l 1411 1385 l 1411 1385 l 1410 1385 l 1410 1385 l 1381 1385 b 1235 1386 1349 1385 1301 1386 b 1183 1388 1217 1388 1200 1388 l 1176 1388 l 1175 1388 l 1174 1388 l 1171 1388 l 1169 1388 l 1168 1388 l 1164 1388 l 1161 1388 l 1160 1388 l 1158 1388 l 1154 1388 l 1142 1388 l 1140 1388 l 1132 1388 l 1131 1388 l 769 1388 b 567 1385 686 1388 621 1386 b 517 1383 549 1383 532 1383 l 513 1383 l 511 1383 l 507 1383 l 506 1383 l 501 1383 l 497 1383 l 496 1383 l 493 1383 l 492 1383 l 479 1383 l 478 1383 l 475 1383 l 474 1383 l 471 1383 l 469 1383 l 381 1383 b 158 1354 325 1383 210 1383 b 125 1301 139 1344 128 1326 b 119 1176 124 1267 121 1225 b 194 1196 142 1192 168 1196 b 322 1067 264 1196 322 1138 b 217 961 322 1007 276 961 b 133 1046 171 961 133 997 b 201 1118 133 1086 164 1118 b 261 1060 233 1118 261 1092 b 213 1011 261 1032 239 1011 b 172 1051 190 1011 172 1029 l 189 1051 b 213 1029 189 1039 200 1029 b 243 1060 229 1029 243 1043 b 201 1100 243 1082 225 1100 b 150 1046 174 1100 150 1078 b 217 979 150 1008 179 979 b 304 1067 265 979 304 1018 b 194 1178 304 1128 256 1178 b 118 1156 167 1178 139 1171 b 108 967 114 1096 113 1035 b 106 908 107 949 106 929 b 232 856 138 876 183 856 b 318 874 261 856 290 861 b 317 886 317 875 317 879 b 356 925 317 907 333 925 b 381 915 365 925 374 922 b 456 1083 426 956 456 1015 l 474 1083 b 392 900 474 1011 442 944 b 393 886 392 896 393 890 b 356 847 393 865 376 847 b 328 858 343 847 335 853 b 232 839 294 846 263 839 b 104 886 182 839 139 854 b 100 757 104 843 103 800 b 96 536 97 682 96 608 z m 285 1251 b 308 1228 297 1251 308 1240 b 285 1206 308 1215 297 1206 b 263 1228 269 1206 263 1213 b 285 1251 263 1240 272 1251 z m 1157 1181 b 1226 1110 1165 1142 1189 1118 b 1157 1033 1188 1099 1164 1076 b 1083 1110 1147 1076 1126 1097 b 1157 1181 1126 1119 1147 1142 z m 778 238 b 822 296 789 261 804 279 l 1075 635 b 1082 639 1076 638 1078 639 b 1090 636 1083 639 1086 638 b 1094 629 1093 635 1094 632 b 1092 622 1094 628 1093 626 l 867 317 b 904 324 882 321 894 324 b 1033 236 961 324 1013 290 b 1044 183 1040 217 1044 199 b 1038 142 1044 171 1042 157 l 1340 371 b 1347 374 1344 372 1346 374 b 1356 368 1350 374 1353 372 b 1358 361 1357 367 1358 364 b 1353 353 1358 358 1357 356 l 1014 97 b 906 44 986 63 950 44 b 778 131 849 44 800 76 b 768 183 771 147 768 165 b 778 238 768 203 771 221 z m 1247 554 b 1254 558 1249 557 1250 558 b 1263 556 1256 558 1258 557 b 1267 547 1265 553 1267 550 b 1263 540 1267 546 1265 543 l 1042 306 b 1033 301 1039 303 1036 301 b 1026 306 1032 301 1029 303 b 1024 313 1025 310 1024 311 b 1026 321 1024 314 1025 317 z m 838 489 b 865 518 838 506 850 518 b 892 489 881 518 892 506 b 865 461 892 474 881 461 b 838 489 850 461 838 474 z m 1224 143 b 1236 133 1232 143 1236 140 b 1224 121 1236 125 1232 121 b 1213 133 1217 121 1213 125 b 1224 143 1213 140 1217 143 z "},"D":{"ha":1540,"x_min":0,"x_max":0,"o":"m 99 210 b 100 189 99 199 99 192 b 156 250 121 210 138 229 b 178 261 163 257 171 261 b 188 258 179 261 182 260 b 238 240 203 251 217 247 b 110 122 193 200 153 161 b 128 83 115 107 118 94 b 222 175 160 115 190 143 b 231 179 225 178 228 179 b 240 175 235 179 238 178 b 278 144 251 165 263 156 b 168 40 240 107 206 72 b 192 25 175 33 182 29 b 322 158 235 69 278 113 b 349 114 332 140 343 129 b 350 110 350 113 350 111 b 344 97 350 108 349 101 b 261 8 317 65 289 40 l 260 8 b 290 6 269 7 279 7 b 581 0 386 1 481 0 b 850 8 669 0 760 3 b 1471 689 1197 35 1467 339 l 1471 697 b 872 1375 1471 1033 1221 1342 b 575 1388 772 1385 675 1388 b 311 1385 486 1388 400 1385 b 99 1167 158 1385 103 1322 b 97 1088 97 1140 97 1114 l 97 1083 l 97 1081 l 97 1078 l 97 1075 l 97 1074 l 97 1057 l 97 1054 l 97 1051 l 97 1049 l 97 1010 b 99 693 97 956 99 854 b 97 371 99 531 97 425 l 97 365 l 97 364 l 97 361 l 97 358 l 97 356 l 97 339 l 97 336 l 97 333 l 97 331 l 97 290 b 99 210 97 264 97 236 z m 438 1238 b 535 1139 449 1183 481 1151 b 438 1036 481 1124 447 1096 b 339 1138 425 1092 392 1125 b 438 1238 394 1150 422 1183 z m 144 383 b 158 407 151 393 154 400 b 211 471 176 428 196 447 b 285 518 229 497 254 513 b 421 600 344 525 382 556 b 869 842 532 726 694 842 b 892 807 890 842 890 835 b 639 336 892 625 763 456 b 613 257 622 319 613 281 b 488 82 613 168 538 143 b 457 164 476 114 467 138 b 399 219 447 196 439 219 l 390 219 b 306 168 342 215 328 201 b 264 207 289 183 276 194 b 264 226 260 211 260 222 b 292 283 290 253 292 271 b 285 317 292 292 289 303 b 250 353 278 338 272 347 b 144 383 215 360 182 372 z m 1138 767 b 1210 839 1178 775 1201 799 b 1281 767 1219 800 1243 776 b 1210 692 1242 757 1218 732 b 1138 767 1201 732 1178 757 z m 508 528 b 586 451 508 485 543 451 b 663 529 631 451 663 486 b 583 607 663 572 632 607 b 508 528 543 607 508 571 z "},"E":{"ha":1263,"x_min":0,"x_max":0,"o":"m 114 126 b 157 36 114 89 128 60 b 253 0 183 13 215 0 l 261 0 l 1063 14 b 1169 115 1118 18 1169 56 l 1169 182 b 1089 229 1169 210 1113 229 l 910 232 b 842 294 872 232 842 254 b 863 335 842 308 849 322 b 910 351 878 346 893 351 l 1057 351 b 1169 447 1113 351 1169 386 l 1169 582 b 1086 653 1169 626 1126 653 l 950 653 b 856 722 910 653 861 678 l 854 735 l 854 740 b 871 775 854 753 860 765 b 915 792 883 785 899 790 l 1094 800 b 1163 865 1132 804 1163 826 l 1158 1218 b 667 1047 985 1194 824 1136 b 1157 1240 794 1176 975 1236 l 1157 1300 b 615 1025 944 1278 742 1207 b 826 1261 647 1143 726 1218 b 1099 1310 926 1304 1025 1310 l 1100 1310 l 1101 1310 l 1103 1310 l 1103 1310 l 1104 1310 l 1104 1310 l 1107 1310 l 1108 1310 l 1111 1310 l 1113 1310 l 1114 1310 l 1115 1310 l 1117 1310 l 1124 1310 l 1125 1310 l 1128 1310 b 1157 1308 1138 1310 1147 1310 b 1129 1363 1153 1329 1146 1347 b 1110 1376 1124 1367 1117 1372 b 1008 1371 1072 1375 1036 1375 b 1082 1385 1035 1375 1058 1381 b 1063 1388 1072 1386 1067 1388 l 243 1388 b 96 1264 171 1388 100 1342 z m 931 1358 b 574 975 738 1318 585 1175 b 556 1068 561 1006 556 1036 b 643 1254 556 1113 569 1186 b 924 1358 715 1321 822 1358 z m 490 867 l 471 1015 l 567 900 l 686 992 l 633 850 l 774 793 l 625 768 l 646 617 l 550 735 l 429 642 l 482 783 l 343 840 z m 328 408 b 399 336 338 368 361 344 b 328 263 360 326 338 306 b 256 336 319 303 296 326 b 328 408 296 344 319 368 z "},"F":{"ha":1214,"x_min":0,"x_max":0,"o":"m 657 0 b 761 99 713 0 761 39 l 761 307 b 854 392 761 356 806 392 l 968 392 b 1013 407 986 392 1000 397 b 1031 447 1025 418 1031 432 l 1031 603 b 1013 643 1031 618 1025 631 b 968 660 1000 654 985 660 l 847 660 b 761 736 803 660 765 690 b 847 814 761 785 801 814 l 1078 814 b 1158 889 1121 814 1158 844 l 1157 1311 b 1075 1388 1157 1357 1119 1388 l 183 1388 b 100 1311 135 1388 100 1360 l 100 76 b 183 0 100 28 135 0 z m 149 599 b 236 790 161 669 199 731 b 299 879 257 819 276 846 b 313 822 306 856 311 839 b 304 799 313 815 308 808 b 214 639 272 744 243 693 b 200 596 204 626 204 611 b 197 574 199 586 197 581 b 232 540 197 551 208 540 b 253 543 236 540 243 542 b 875 1096 471 599 764 906 b 925 1211 896 1133 910 1174 b 929 1238 929 1221 929 1228 b 907 1272 929 1264 918 1272 b 893 1269 903 1272 899 1271 b 679 1169 806 1254 750 1218 b 647 1157 668 1161 657 1157 b 631 1160 646 1157 640 1158 b 597 1169 621 1165 610 1165 b 599 1171 597 1171 597 1171 l 599 1174 l 600 1174 l 600 1175 b 900 1322 678 1235 801 1322 b 981 1239 950 1322 981 1289 b 738 832 981 1111 819 918 b 254 493 611 694 440 542 b 226 489 244 490 235 489 b 146 571 169 489 146 531 b 149 599 146 581 147 589 z m 232 1172 b 281 1121 236 1143 251 1126 b 232 1069 253 1114 236 1097 b 181 1121 225 1096 208 1113 b 232 1172 208 1126 225 1143 z m 351 926 b 563 1119 363 1033 454 1119 b 651 1100 589 1119 618 1113 b 499 950 597 1046 549 999 l 535 914 l 615 994 b 696 1078 642 1021 668 1049 b 746 1014 714 1054 731 1035 b 747 1008 747 1013 747 1011 b 743 996 747 1007 747 1000 b 474 726 664 896 575 806 b 461 722 469 722 463 722 b 454 725 458 722 456 724 b 350 908 383 763 350 854 b 351 926 350 917 350 922 z m 414 857 l 415 857 l 417 856 l 417 854 l 418 854 l 418 853 l 419 853 l 419 851 l 422 849 l 422 847 l 424 847 l 424 846 l 425 846 l 425 844 l 426 843 l 428 843 l 428 842 b 440 826 433 835 438 829 b 494 875 461 843 478 860 l 465 904 b 414 858 447 889 429 874 z m 561 486 b 632 414 569 449 593 424 b 561 340 593 404 568 383 b 489 414 553 381 529 404 b 561 486 532 424 551 446 z "},"G":{"ha":1483,"x_min":0,"x_max":0,"o":"m 113 294 b 135 143 119 233 125 183 b 315 15 157 32 218 22 b 618 1 415 6 518 1 b 663 0 633 0 647 0 l 917 0 b 956 1 929 0 943 0 b 1203 6 1039 1 1119 1 b 1314 17 1238 6 1281 6 b 1338 39 1325 22 1333 28 b 1350 76 1344 49 1349 61 b 1365 258 1360 136 1364 199 b 1367 297 1367 271 1367 285 l 1367 299 l 1367 300 l 1367 301 l 1367 304 l 1367 307 l 1367 308 l 1367 311 l 1367 314 l 1367 315 l 1367 329 l 1367 331 l 1367 665 b 1338 735 1367 689 1357 713 b 1267 765 1318 756 1294 765 l 992 761 b 854 628 918 757 854 707 l 854 307 b 842 279 854 294 850 286 b 813 268 835 272 825 268 b 785 279 801 268 792 272 b 772 307 776 286 772 294 l 772 779 b 832 835 772 813 800 835 l 1288 838 b 1336 846 1310 838 1326 840 b 1361 872 1347 856 1356 861 b 1372 914 1367 885 1371 897 b 1388 1043 1382 957 1383 999 l 1388 1150 l 1388 1153 l 1388 1154 l 1388 1154 l 1388 1156 l 1388 1157 l 1388 1158 l 1388 1160 l 1388 1164 l 1388 1164 l 1388 1167 l 1388 1168 b 1386 1186 1388 1174 1388 1179 b 1383 1269 1385 1210 1383 1238 b 1381 1338 1383 1301 1382 1322 b 1365 1372 1378 1353 1372 1365 b 1335 1385 1358 1379 1347 1383 b 1293 1388 1324 1386 1310 1388 l 818 1388 b 410 1383 682 1388 546 1386 b 281 1378 354 1382 313 1382 b 261 1376 276 1376 271 1376 l 240 1376 b 161 1350 208 1376 182 1368 b 138 1313 150 1343 142 1331 b 94 721 94 1117 94 921 b 113 294 94 576 97 439 z m 596 1135 l 735 1167 l 747 1308 l 822 1186 l 961 1218 l 867 1110 l 940 989 l 808 1046 l 714 936 l 724 1036 b 511 539 546 888 511 671 l 511 538 l 511 536 l 511 536 l 511 536 l 511 535 l 511 533 l 511 533 l 511 525 l 511 525 b 513 499 511 518 511 508 b 535 363 513 454 524 389 b 458 519 508 407 479 451 b 424 303 438 449 429 371 b 386 424 414 326 397 374 b 372 522 375 472 372 506 b 376 560 372 536 374 549 b 324 396 344 506 328 450 b 317 501 319 433 317 468 b 424 851 317 608 346 735 b 696 1093 501 968 607 1044 z m 183 1099 b 257 1171 226 1108 247 1131 b 328 1099 265 1133 289 1108 b 257 1024 288 1089 264 1064 b 183 1099 247 1064 226 1088 z m 1117 610 b 1189 536 1126 569 1146 547 b 1117 463 1149 526 1126 506 b 1046 536 1108 501 1085 526 b 1117 610 1085 547 1108 572 z "},"H":{"ha":1435,"x_min":0,"x_max":0,"o":"m 738 50 b 788 0 738 24 760 0 l 1244 0 b 1333 89 1304 0 1333 29 l 1333 208 b 1332 839 1333 563 1332 768 b 1335 1260 1332 979 1333 1119 l 1335 1267 b 1219 1388 1335 1356 1303 1388 l 1214 1388 b 867 1382 986 1385 904 1382 l 864 1382 l 861 1382 l 860 1382 l 858 1382 l 856 1382 l 853 1382 l 853 1382 l 843 1382 l 842 1382 l 839 1382 l 838 1382 l 772 1382 b 738 1346 751 1382 738 1367 l 738 1071 b 768 1036 738 1053 747 1040 b 1058 689 933 1010 1058 867 b 772 350 1058 519 932 376 b 738 311 751 346 738 329 z m 100 1272 b 103 1042 101 1194 103 1119 b 101 696 103 1003 101 890 b 103 300 101 496 103 365 l 103 278 l 103 275 l 103 272 l 103 269 l 103 267 l 103 263 l 103 260 l 103 257 l 103 254 l 103 251 l 103 200 b 101 101 103 167 103 133 b 185 0 101 40 117 0 l 647 0 b 697 50 676 0 697 24 l 697 310 b 664 350 697 332 686 346 b 375 688 499 376 375 526 l 375 696 b 668 1036 375 867 506 1010 b 697 1071 685 1040 697 1053 l 697 1346 b 663 1381 697 1369 686 1381 b 201 1386 511 1381 358 1382 l 196 1386 b 100 1279 124 1386 100 1350 z m 1026 1110 b 1124 1011 1038 1056 1069 1024 b 1026 908 1069 996 1036 968 b 928 1011 1014 965 985 996 b 1026 1110 982 1024 1014 1056 z m 311 1003 b 357 1049 336 1010 351 1025 b 401 1003 363 1025 378 1010 b 357 956 375 997 361 982 b 311 1003 351 982 339 997 z m 422 690 b 704 400 422 528 558 400 l 711 400 b 999 693 872 404 999 533 b 708 982 994 853 868 982 b 422 690 549 982 422 849 z m 797 815 b 833 851 797 836 813 851 b 869 815 854 851 869 836 b 833 779 869 794 854 779 b 797 815 813 779 797 794 z m 594 849 b 676 768 640 849 676 811 l 676 764 b 594 683 676 719 639 683 b 511 764 550 683 513 721 b 594 849 511 810 550 849 z m 542 765 b 594 711 542 736 567 711 b 647 767 624 711 647 738 b 594 821 647 796 622 821 b 542 769 565 821 542 796 z m 883 561 b 821 500 883 528 856 500 b 758 561 788 500 758 528 b 819 622 758 593 788 622 b 883 561 854 622 882 594 z m 789 561 b 821 528 789 543 803 529 b 854 561 839 528 854 543 b 819 593 854 578 840 593 b 789 561 803 593 789 578 z m 603 558 b 621 582 604 568 615 572 b 640 563 631 575 640 569 l 640 560 b 625 532 640 553 632 547 b 603 558 615 544 603 551 z "},"I":{"ha":838,"x_min":0,"x_max":0,"o":"m 99 131 b 224 0 99 15 114 0 l 236 0 b 279 51 240 26 256 40 b 296 69 286 57 292 63 b 338 110 304 89 318 103 b 351 124 343 114 350 118 b 363 199 357 147 358 171 b 296 144 332 188 310 169 b 276 131 292 135 286 131 l 274 131 b 199 143 247 136 225 139 b 185 164 189 144 185 151 b 267 356 192 236 217 301 b 274 371 271 360 274 365 l 274 376 b 269 428 271 394 269 411 b 401 675 269 529 314 613 b 411 696 407 679 410 689 b 413 707 413 699 413 703 l 413 729 b 419 744 413 735 415 740 l 425 744 b 428 706 426 729 428 718 l 428 700 b 444 671 428 688 433 678 b 571 428 529 608 571 528 b 567 375 571 410 569 393 b 575 350 567 368 569 357 b 651 161 624 296 647 232 l 651 158 b 640 143 651 153 646 144 b 557 132 613 138 583 136 b 535 146 550 132 539 136 b 475 194 519 168 503 183 b 488 119 479 168 483 143 b 499 108 488 115 494 110 b 544 63 521 101 536 86 b 558 50 547 58 551 54 b 601 0 582 40 597 24 l 614 0 b 738 128 726 0 738 11 l 738 1246 b 625 1372 738 1321 681 1354 b 513 1388 590 1382 553 1388 l 326 1383 b 213 1368 286 1383 247 1378 b 99 1229 156 1350 99 1311 z m 525 1238 b 597 1164 535 1197 554 1174 b 525 1089 557 1154 533 1129 b 454 1164 518 1129 494 1154 b 525 1238 493 1174 517 1199 z m 415 338 b 510 433 469 338 508 379 b 413 532 510 488 468 532 b 318 436 361 532 319 488 b 415 338 318 381 360 338 z m 365 499 b 415 515 379 510 396 515 b 461 500 431 515 446 510 b 494 436 489 478 494 451 b 488 408 494 429 492 419 b 453 431 475 418 463 424 b 457 457 454 440 456 450 b 436 442 450 453 443 447 b 422 435 432 438 426 435 l 418 435 b 343 404 389 435 364 425 b 336 438 339 417 336 428 b 365 499 336 450 338 475 z m 479 392 b 415 353 467 365 442 353 b 351 388 392 353 367 364 b 418 419 369 408 392 419 b 479 392 440 419 461 410 z "},"J":{"ha":1179,"x_min":0,"x_max":0,"o":"m 158 0 b 369 3 229 1 299 3 l 721 3 b 1076 329 917 3 1069 132 b 1083 731 1081 464 1083 597 b 1079 1265 1083 775 1083 949 l 592 758 l 650 736 l 583 711 l 558 644 l 535 711 l 468 736 l 535 761 l 558 828 l 578 779 l 1078 1269 l 1078 1289 b 1021 1375 1078 1318 1047 1364 b 914 1383 1006 1379 965 1382 l 664 1115 l 708 1100 l 657 1081 l 638 1029 l 618 1081 l 567 1100 l 618 1119 l 638 1171 l 650 1136 l 913 1383 b 708 1388 851 1385 774 1388 l 583 1388 b 447 1319 489 1388 454 1376 l 460 1325 l 471 1354 l 482 1325 l 511 1315 l 482 1303 l 471 1274 l 460 1303 l 446 1308 b 443 1246 444 1292 443 1272 l 443 953 l 451 950 l 443 949 l 443 490 b 257 492 343 490 286 492 l 256 492 l 254 492 l 253 492 l 251 492 l 247 492 l 243 492 l 242 492 l 240 492 l 236 492 l 235 492 l 218 492 l 217 492 l 213 492 b 168 490 197 492 183 492 b 50 368 63 490 50 479 l 50 192 l 50 190 l 50 186 l 50 185 l 50 183 l 50 182 l 50 181 l 50 179 l 50 178 l 50 176 l 50 156 b 49 113 50 142 50 128 l 49 100 b 147 0 49 32 69 0 z m 740 785 l 761 842 l 775 801 l 1044 1054 l 790 782 l 840 763 l 782 742 l 761 682 l 740 742 l 682 763 z m 383 208 l 394 179 l 1029 800 l 414 161 l 440 151 l 399 136 l 383 93 l 368 136 l 326 151 l 368 167 z m 493 486 l 506 521 l 519 486 l 554 471 l 519 458 l 506 424 l 493 458 l 457 471 z m 885 428 l 896 394 l 928 383 l 896 372 l 885 339 l 872 372 l 840 383 l 872 394 z m 732 165 l 743 197 l 756 165 l 788 153 l 756 140 l 743 108 l 732 140 l 700 153 z "},"K":{"ha":1461,"x_min":0,"x_max":0,"o":"m 100 1267 b 101 1076 101 1203 101 1139 l 101 1061 l 101 1056 l 101 1035 l 101 1029 l 101 1024 l 101 1017 l 101 885 b 100 507 101 757 100 635 l 100 478 l 100 472 l 100 454 l 100 449 l 100 442 l 100 436 l 100 431 l 100 425 l 100 419 l 100 413 l 100 317 b 101 126 100 254 100 190 b 224 1 101 22 124 1 b 350 0 267 0 308 0 l 721 0 b 1025 -1 893 0 992 -1 b 1228 1 1093 -1 1160 0 b 1333 28 1286 1 1321 10 b 1350 76 1344 46 1350 61 b 1328 156 1350 99 1343 125 b 1136 568 1265 294 1201 429 b 1106 694 1115 608 1106 651 b 1136 822 1106 738 1115 781 b 1328 1235 1203 961 1267 1096 b 1350 1314 1343 1265 1350 1292 b 1335 1361 1350 1326 1344 1343 b 1235 1386 1324 1378 1290 1386 b 1065 1388 1178 1388 1121 1388 l 1044 1388 l 1039 1388 l 1033 1388 l 1028 1388 l 1024 1388 l 1018 1388 l 1006 1388 l 997 1388 l 992 1388 l 988 1388 l 974 1388 l 935 1388 l 929 1388 l 904 1388 l 899 1388 l 219 1388 b 100 1267 136 1388 100 1351 z m 311 903 b 344 964 321 924 329 946 b 632 1149 424 1053 515 1117 b 636 1151 633 1149 635 1150 b 586 1208 603 1164 586 1182 b 588 1218 586 1213 586 1215 b 642 1263 593 1244 615 1263 l 644 1263 b 696 1215 671 1263 692 1242 b 697 1206 697 1214 697 1210 b 650 1153 697 1188 683 1164 b 657 1151 651 1151 653 1151 b 703 1117 700 1147 703 1128 b 693 1086 703 1107 700 1096 b 499 908 647 1008 576 951 b 488 926 494 915 492 919 b 532 956 503 936 517 946 b 678 1103 586 993 646 1043 b 679 1114 679 1106 679 1110 b 660 1128 679 1124 672 1128 b 335 906 560 1128 368 986 b 331 890 332 899 331 893 b 353 878 331 886 331 879 l 372 878 b 376 856 374 872 375 867 b 329 860 360 857 344 856 b 307 888 313 865 307 881 b 311 903 307 892 308 897 z m 794 1133 b 800 1165 799 1144 800 1156 b 740 1214 800 1197 781 1213 l 717 1214 b 714 1236 715 1224 715 1226 b 732 1238 718 1238 725 1238 b 782 1226 744 1238 760 1238 b 822 1164 808 1214 822 1193 b 821 1150 822 1157 822 1153 b 647 919 803 1061 714 975 b 640 929 646 924 643 926 l 640 929 l 639 931 l 639 931 l 638 932 l 638 932 l 636 933 l 636 933 l 635 935 l 635 935 l 633 936 l 633 936 b 790 1126 694 990 761 1049 z m 561 1190 b 568 1174 565 1183 567 1178 b 433 1092 522 1146 476 1124 b 311 993 390 1063 354 1028 b 297 1006 310 994 304 999 b 561 1190 375 1083 461 1144 z m 256 997 b 300 951 279 997 300 978 b 256 908 299 928 279 908 b 213 951 232 908 213 928 b 256 997 213 978 232 997 z m 389 897 b 432 942 389 921 408 940 b 476 897 456 942 476 921 b 433 853 476 871 456 854 b 389 897 407 853 389 871 z m 521 886 b 575 942 521 918 546 942 b 631 885 607 942 631 917 b 575 831 631 853 607 831 b 521 886 546 831 521 854 z m 200 851 b 214 893 204 867 208 878 b 232 885 221 889 226 889 b 222 849 231 872 226 861 b 219 829 221 842 219 836 b 271 781 219 800 236 785 b 283 779 274 779 278 779 l 296 779 b 407 806 333 779 369 790 b 503 847 439 818 471 832 l 507 839 l 507 838 b 508 835 507 836 507 836 l 508 833 l 510 833 l 510 832 b 511 829 511 831 511 831 b 351 765 460 801 407 776 b 269 758 325 760 296 758 b 199 831 215 763 199 796 b 200 851 199 840 199 847 z m 1014 600 b 1079 533 1021 564 1042 542 b 1014 463 1042 522 1019 503 b 944 533 1004 500 981 524 b 1014 600 982 543 1004 565 z m 519 528 b 551 558 536 532 547 542 b 582 528 554 542 564 532 b 551 496 564 522 553 511 b 519 528 547 511 536 522 z m 793 513 b 993 313 903 513 993 425 b 796 113 993 207 907 113 b 596 311 686 113 596 200 b 793 513 596 419 682 513 z m 879 374 b 903 397 894 374 903 382 b 879 424 903 415 894 424 b 854 399 863 424 854 415 b 879 374 854 383 863 375 z m 658 363 b 714 307 658 331 682 307 b 772 363 746 307 771 331 b 714 422 772 394 746 422 b 658 367 682 422 658 394 z m 714 401 b 751 365 735 401 750 386 b 714 328 751 343 735 328 b 679 363 690 328 679 339 l 679 367 b 714 401 679 385 693 401 z m 828 222 b 871 181 828 200 849 181 b 914 224 897 182 914 200 b 871 265 914 247 894 265 b 828 222 849 265 828 249 z m 871 246 b 893 222 886 246 893 235 b 871 200 893 211 883 200 b 849 222 858 200 849 211 b 871 246 849 238 856 246 z m 736 203 b 746 222 742 214 746 217 l 746 225 b 733 238 746 229 739 232 l 726 231 b 721 221 724 228 722 225 b 725 214 721 219 722 217 z "},"L":{"ha":1304,"x_min":0,"x_max":0,"o":"m 525 535 l 532 521 l 636 418 l 663 414 l 274 819 l 694 408 l 610 326 l 631 207 l 525 264 l 421 207 l 429 263 l 96 608 l 96 547 l 424 229 l 421 207 l 96 542 b 103 329 97 471 99 400 b 457 3 107 132 264 3 l 806 3 b 1154 0 933 3 1060 1 l 1165 0 b 1264 100 1239 0 1264 32 l 1264 113 b 1261 215 1263 147 1261 182 b 1263 368 1261 232 1263 283 b 1143 490 1263 479 1250 490 l 733 490 l 733 1246 b 596 1388 733 1374 724 1383 l 481 1388 b 157 1375 363 1388 190 1386 b 99 1289 131 1364 99 1318 b 94 885 97 1154 96 1018 l 503 488 z m 476 1206 b 549 1135 486 1167 506 1144 b 476 1060 508 1124 486 1103 b 406 1133 469 1100 446 1124 b 476 1206 444 1143 468 1168 z m 217 1019 b 264 1065 243 1026 258 1042 b 310 1019 269 1042 285 1026 b 264 971 283 1014 268 997 b 217 1019 258 997 243 1014 z m 478 438 l 493 471 l 94 883 l 94 811 z m 431 421 l 463 424 l 94 808 l 94 747 z m 94 689 l 378 413 l 408 417 l 94 743 z m 94 679 b 96 614 94 657 96 635 l 433 283 l 439 326 l 356 408 z m 613 422 l 547 489 l 578 426 z "},"M":{"ha":1571,"x_min":0,"x_max":0,"o":"m 100 1271 b 103 810 101 1115 103 964 b 101 119 103 732 101 507 b 172 0 101 40 125 0 b 382 106 236 0 333 68 b 429 318 389 150 396 161 b 507 415 439 364 464 396 b 538 476 514 419 528 447 b 549 529 547 504 549 522 b 546 543 549 535 547 539 b 519 657 514 576 519 617 b 551 756 519 694 513 729 b 565 783 561 760 561 774 b 790 931 604 885 674 931 b 1004 783 892 931 964 879 b 1049 714 1015 763 1049 725 b 1047 590 1050 674 1051 631 b 1024 546 1047 578 1033 563 b 1015 517 1014 528 1015 518 b 1031 488 1015 507 1021 497 b 1042 467 1038 481 1042 474 b 1043 465 1043 467 1043 467 b 1039 451 1043 464 1039 461 b 1081 401 1039 454 1032 426 b 1186 108 1132 372 1126 354 b 1400 0 1235 71 1335 0 b 1468 119 1446 0 1468 40 b 1469 215 1469 151 1469 183 l 1469 218 l 1469 221 l 1469 229 l 1469 232 l 1469 235 l 1469 238 l 1469 240 l 1469 243 l 1469 258 l 1469 261 l 1469 308 b 1468 497 1469 371 1468 435 l 1468 501 l 1468 506 l 1468 515 l 1468 535 l 1468 538 l 1468 540 l 1468 543 l 1468 592 b 1469 686 1468 622 1468 654 b 1468 1076 1469 882 1468 1011 l 1468 1081 l 1468 1085 l 1468 1094 l 1468 1115 l 1468 1118 l 1468 1121 l 1468 1124 l 1468 1174 b 1469 1271 1468 1206 1468 1239 l 1469 1276 b 1356 1388 1469 1354 1435 1388 b 822 1268 1175 1388 1003 1268 b 214 1388 622 1268 414 1388 b 100 1271 136 1388 100 1356 z m 332 1085 b 406 1158 375 1094 396 1118 b 475 1086 414 1118 438 1094 b 406 1011 436 1075 413 1054 b 332 1085 396 1051 375 1075 z m 1183 825 b 1231 872 1208 832 1224 849 b 1275 826 1236 847 1251 832 b 1231 778 1249 819 1235 804 b 1183 825 1224 804 1208 819 z m 613 589 b 650 543 613 568 625 553 b 804 519 704 528 756 519 b 926 535 844 519 886 524 b 969 581 967 544 969 558 b 968 599 969 588 969 594 b 831 553 838 561 849 568 b 794 539 818 543 807 539 b 749 586 761 539 749 571 b 768 624 749 593 750 608 b 794 635 778 631 788 635 b 863 599 822 635 844 599 b 907 615 869 599 889 606 l 908 615 l 911 618 l 913 618 b 919 621 914 619 915 619 l 919 622 l 921 622 l 925 625 l 928 625 l 928 626 l 929 626 b 933 629 931 628 932 628 b 951 639 943 633 949 638 b 974 693 967 650 974 672 b 950 756 974 692 974 735 b 792 803 911 788 851 803 b 635 754 732 803 675 788 b 613 671 611 731 613 686 b 614 631 613 660 614 640 l 614 629 l 614 628 l 614 625 l 614 624 l 614 622 l 614 622 l 614 617 l 614 615 l 614 614 b 613 599 614 608 614 603 z m 631 694 b 711 776 631 743 682 776 b 729 767 722 776 728 774 b 731 761 731 765 731 764 b 696 739 731 751 711 743 b 660 694 672 729 660 715 l 660 682 b 646 647 660 672 650 663 b 629 688 629 685 629 686 b 631 694 629 689 631 689 z "},"N":{"ha":1567,"x_min":0,"x_max":0,"o":"m 228 551 b 290 535 250 547 272 542 b 343 547 306 544 322 547 b 390 544 360 547 375 546 b 443 542 417 543 433 542 b 543 582 469 542 511 544 l 544 583 b 557 621 556 593 557 608 b 563 644 558 631 558 638 b 561 647 563 646 563 646 l 561 649 l 561 650 l 560 651 l 560 653 l 560 653 l 560 653 l 557 694 b 549 690 554 694 551 693 b 539 647 539 679 539 657 b 551 632 547 646 551 640 l 540 631 b 532 639 540 636 538 639 b 522 631 525 639 522 636 l 514 631 l 514 635 b 525 647 514 642 518 646 b 558 711 525 674 529 707 b 572 722 560 718 565 722 l 572 732 b 593 754 572 743 582 754 l 603 756 l 615 756 b 636 735 626 756 636 746 l 636 724 l 640 724 b 651 713 646 724 650 719 b 689 653 679 713 689 676 b 701 638 697 651 701 646 l 693 636 b 683 644 693 642 690 644 b 675 636 678 644 675 642 l 664 636 b 675 651 664 643 668 649 b 663 694 675 661 674 682 b 653 699 661 696 657 697 l 654 656 l 654 653 b 640 639 654 646 650 640 l 636 639 l 638 628 l 638 626 b 639 625 639 626 639 626 l 639 624 l 640 624 l 640 621 l 642 621 l 642 619 b 638 614 642 617 640 615 l 638 596 b 647 583 644 592 647 588 b 633 582 635 583 635 582 l 615 582 b 624 596 615 586 618 590 l 624 613 b 618 619 619 614 618 615 b 622 628 618 624 619 626 l 622 639 l 593 638 l 593 626 b 599 618 597 625 599 622 b 593 611 599 614 597 613 l 594 594 b 601 582 599 592 601 588 b 590 581 597 581 593 581 l 589 581 l 588 581 l 588 581 l 588 581 l 588 581 l 585 581 l 585 581 l 572 581 b 581 593 572 586 575 590 l 579 611 b 575 618 576 614 575 617 b 579 625 575 621 576 624 l 579 638 l 575 638 b 567 639 571 638 568 638 b 565 621 567 633 565 628 b 550 578 564 606 563 590 b 440 535 522 544 483 535 b 389 538 424 535 406 536 b 299 532 354 542 321 543 b 339 510 314 525 328 519 b 529 440 383 506 500 474 l 526 442 l 522 438 l 528 433 b 304 271 528 368 431 311 b 99 201 233 232 165 211 l 99 143 b 165 0 99 43 117 0 b 265 35 189 0 222 11 b 597 122 376 92 481 122 b 744 106 646 122 694 118 b 1333 8 940 65 1138 40 b 1383 3 1351 4 1368 3 b 1467 121 1446 3 1465 32 l 1467 1267 b 1396 1388 1465 1350 1446 1388 b 1314 1365 1372 1388 1344 1381 b 1174 1304 1265 1347 1222 1317 b 976 1268 1094 1286 1028 1268 b 936 1271 961 1268 949 1269 b 249 1381 703 1300 482 1340 b 178 1388 221 1385 199 1388 b 99 1251 113 1388 99 1353 l 99 608 b 228 551 164 608 215 579 z m 297 1158 b 340 1117 303 1136 317 1122 b 297 1074 317 1110 303 1096 b 256 1117 293 1096 279 1110 b 297 1158 279 1122 293 1136 z m 1076 1101 b 1100 1078 1089 1101 1100 1093 l 1100 1074 b 1078 1053 1100 1063 1090 1053 b 1053 1078 1061 1053 1053 1061 b 1076 1101 1053 1090 1061 1101 z m 1168 1031 b 1211 1075 1168 1057 1188 1075 b 1254 1031 1235 1075 1254 1057 b 1211 988 1254 1008 1238 988 b 1168 1031 1188 988 1168 1008 z m 915 929 b 1043 1001 947 978 989 1001 b 1064 1000 1053 1001 1060 1001 b 1169 940 1107 996 1143 975 b 1201 847 1196 907 1201 874 b 1199 822 1201 838 1200 832 b 1190 793 1197 813 1194 803 b 1167 775 1186 778 1182 775 l 1154 775 b 919 879 1065 779 985 819 b 915 929 899 896 900 907 z m 889 978 b 936 989 906 988 925 989 b 951 988 943 989 949 989 b 910 960 936 976 926 967 b 882 925 882 950 882 932 b 888 901 882 917 883 908 b 1158 761 928 824 1072 761 b 1194 767 1174 761 1186 763 b 1225 804 1215 774 1225 786 b 1222 822 1225 810 1224 815 b 1213 871 1218 838 1214 853 b 1253 801 1236 851 1250 828 l 1253 797 b 1190 732 1253 769 1231 742 b 1144 726 1178 728 1163 726 b 856 900 1056 726 882 800 b 853 922 854 910 853 917 b 889 978 853 939 857 963 z m 429 829 b 446 833 435 832 440 833 b 479 811 461 833 472 826 b 483 793 482 806 483 800 b 461 761 483 786 482 771 b 444 758 456 760 450 758 b 411 779 429 758 418 765 b 407 794 408 785 407 790 b 429 829 407 804 411 819 z m 896 817 b 1125 714 963 758 1039 724 b 1044 690 1114 701 1079 690 b 896 817 975 690 903 746 z m 194 692 l 190 725 l 214 700 l 244 714 l 228 685 l 250 661 l 217 667 l 201 638 l 197 671 l 165 678 z m 579 663 b 586 654 579 657 582 654 l 607 654 l 625 656 b 633 664 631 656 633 658 l 632 697 b 624 708 632 704 629 708 l 606 707 l 588 707 b 578 696 581 706 578 703 z m 374 647 b 382 650 378 649 381 650 b 397 639 386 650 393 649 b 400 631 399 635 400 632 b 389 615 400 626 399 619 b 381 613 385 614 382 613 b 364 624 376 613 368 614 b 363 631 363 625 363 628 b 374 647 363 636 364 643 z m 881 504 b 950 432 889 464 913 440 b 881 357 911 422 888 397 b 807 432 871 400 850 422 b 881 504 850 442 871 465 z m 343 474 b 344 481 344 475 344 478 b 331 489 344 486 340 489 b 99 408 292 489 185 446 l 99 375 b 343 474 188 393 308 428 z m 508 413 l 519 424 l 514 426 l 504 418 z m 488 394 b 499 404 494 399 497 403 l 494 408 b 485 400 493 407 489 404 z m 478 386 l 474 392 l 463 383 l 467 378 z m 456 371 l 453 375 b 440 369 449 375 444 374 l 443 363 z m 421 350 b 432 357 422 351 426 353 l 429 363 l 428 363 b 426 361 428 361 428 361 b 424 360 425 361 425 361 b 417 356 422 358 419 357 z m 1207 313 b 1250 356 1231 318 1244 332 b 1290 313 1254 332 1267 318 b 1250 269 1267 307 1254 293 b 1207 313 1244 293 1231 307 z m 396 338 l 397 338 b 400 339 399 339 399 339 l 400 340 l 401 340 b 408 343 403 342 406 342 l 406 350 b 399 346 403 349 400 347 l 397 346 b 396 344 397 344 397 344 l 396 344 b 394 343 394 344 394 344 l 393 343 z m 372 326 b 383 331 374 328 376 329 l 381 338 l 379 338 b 378 336 379 336 379 336 l 376 335 l 374 335 l 371 332 l 369 332 z m 346 315 b 360 321 351 317 356 319 l 357 328 b 343 322 353 326 349 324 z m 321 306 b 333 311 326 310 329 310 l 332 317 b 325 314 329 315 326 315 l 324 314 b 322 313 324 313 324 313 b 319 311 321 313 321 313 z m 296 296 b 310 301 300 297 304 300 l 307 308 b 304 307 306 308 306 308 l 301 307 l 300 306 l 299 306 b 296 304 297 306 297 306 l 294 304 z m 269 289 b 282 293 275 290 279 292 l 281 299 b 268 296 275 297 271 296 z m 244 281 l 257 285 l 256 292 b 243 288 250 290 247 289 z m 218 275 b 226 276 218 275 221 275 l 228 276 l 228 276 l 229 278 l 232 278 l 229 283 b 219 282 229 283 226 283 l 218 281 l 215 281 z m 192 268 b 204 271 193 268 197 269 l 203 278 b 190 275 199 276 194 276 z m 165 263 b 179 264 167 264 172 264 l 178 272 b 164 268 172 271 168 269 z m 139 257 b 151 260 143 258 147 258 l 151 265 b 138 264 149 264 144 264 z m 113 251 b 125 254 117 253 121 253 l 124 261 b 111 258 122 261 118 260 z "},"O":{"ha":1517,"x_min":0,"x_max":0,"o":"m 758 0 b 1449 694 1140 0 1449 311 b 758 1388 1449 1078 1140 1388 b 68 694 376 1388 68 1078 b 758 0 68 311 376 0 z m 408 415 b 471 546 418 464 444 503 b 507 493 486 528 496 511 b 508 489 508 492 508 490 b 504 478 508 485 507 482 b 471 410 494 456 483 436 b 597 476 500 414 553 439 b 489 694 525 535 489 607 l 489 714 b 758 965 500 854 614 965 b 975 857 838 965 915 935 b 1042 982 1001 883 1035 953 b 975 950 1018 971 996 961 b 964 946 971 947 967 946 b 951 950 960 946 956 947 b 906 982 936 961 922 969 b 1046 1046 950 1011 992 1040 l 1053 1046 b 1110 992 1090 1046 1110 1019 b 1107 974 1110 986 1108 981 b 558 375 1057 785 738 476 b 464 342 535 360 490 342 b 407 400 426 342 407 372 b 408 415 407 407 407 413 z m 542 694 b 565 668 542 679 550 669 l 569 668 b 592 690 581 668 588 675 b 593 703 592 697 592 701 b 638 808 596 743 611 779 b 649 832 644 818 649 825 b 640 851 649 838 646 844 b 625 856 636 854 631 856 b 599 843 614 856 606 851 b 542 707 564 806 546 760 b 540 699 542 703 540 700 b 542 694 540 697 540 696 z m 726 428 b 1022 726 838 518 933 615 b 1028 689 1026 717 1028 704 b 1018 625 1028 683 1029 664 b 960 514 1007 586 988 546 b 765 424 906 454 828 424 b 726 428 750 424 738 425 z m 1186 597 b 1257 524 1194 560 1218 535 b 1186 450 1218 514 1193 493 b 1114 524 1178 490 1154 514 b 1186 597 1157 533 1176 557 z m 306 540 b 347 583 329 547 343 561 b 389 540 353 563 367 547 b 347 497 367 535 353 521 b 306 540 343 521 329 535 z "},"P":{"ha":1590,"x_min":0,"x_max":0,"o":"m 168 72 l 168 90 b 250 183 185 129 213 160 b 260 196 257 188 260 192 l 260 200 b 254 261 256 218 254 239 b 294 421 254 296 260 350 b 418 589 324 482 365 538 b 425 583 419 588 422 586 b 568 360 490 518 540 449 b 585 254 585 308 585 272 b 581 201 585 236 583 219 l 581 199 b 588 183 581 193 583 188 b 669 90 625 163 653 131 b 672 83 671 89 672 86 b 669 74 672 82 671 79 b 640 1 660 50 650 25 b 740 203 740 8 740 42 l 740 613 l 917 613 l 921 613 l 924 613 l 931 613 l 933 613 l 940 613 l 943 613 l 950 613 l 983 613 l 986 613 l 997 613 b 1078 614 1024 613 1051 613 b 1404 793 1221 614 1331 674 b 1465 1003 1458 882 1465 953 b 1418 1185 1465 1042 1461 1107 b 1076 1386 1356 1301 1233 1381 b 1038 1388 1067 1388 1053 1388 l 1032 1388 l 1031 1388 l 1029 1388 l 1026 1388 l 1025 1388 l 1024 1388 l 1019 1388 l 1017 1388 l 1015 1388 l 1014 1388 l 1010 1388 l 996 1388 l 994 1388 l 985 1388 l 983 1388 l 835 1388 b 478 1386 724 1388 594 1386 l 317 1386 l 310 1386 l 307 1386 l 301 1386 l 299 1386 l 296 1386 l 294 1386 l 292 1386 l 290 1386 l 289 1386 l 286 1386 l 285 1386 l 256 1386 l 253 1386 b 201 1388 233 1386 217 1386 l 199 1388 b 100 1282 133 1388 100 1353 b 103 697 101 1086 103 893 b 100 113 103 501 101 308 b 200 0 100 33 133 4 z m 1104 1268 b 1232 1139 1174 1268 1232 1210 b 1104 1010 1232 1067 1174 1010 b 975 1139 1032 1010 975 1067 b 1104 1268 975 1210 1032 1268 z m 293 1147 b 365 1221 333 1157 357 1181 b 436 1147 374 1182 397 1157 b 365 1072 397 1138 374 1113 b 293 1147 357 1113 333 1138 z m 839 999 b 882 1040 863 1003 876 1017 b 922 999 886 1017 900 1003 b 882 954 900 992 886 981 b 839 999 876 978 863 992 z m 1239 831 b 1282 872 1263 838 1276 851 b 1322 831 1286 851 1300 838 b 1282 788 1299 825 1286 811 b 1239 831 1276 811 1263 825 z m 357 365 b 419 301 357 328 385 301 b 482 364 454 301 482 329 b 419 428 482 399 457 428 b 357 365 385 428 357 400 z m 353 0 b 296 86 332 26 317 54 b 274 0 286 54 281 29 z m 564 0 b 551 57 560 21 556 40 b 540 85 550 67 546 74 b 500 18 526 63 513 40 b 488 0 496 11 492 6 z "},"Q":{"ha":1601,"x_min":0,"x_max":0,"o":"m 158 500 b 819 4 247 200 515 4 b 982 24 874 4 928 8 b 1049 39 1008 29 1032 39 b 1061 38 1054 39 1058 39 b 1350 0 1133 22 1325 0 b 1499 154 1497 0 1499 -1 b 1494 474 1499 317 1494 422 b 1499 635 1494 526 1496 581 b 1500 657 1500 642 1500 650 l 1500 658 l 1500 660 l 1500 661 l 1500 663 l 1500 664 l 1500 665 l 1500 667 l 1500 668 l 1500 679 b 1313 1171 1500 858 1439 1036 b 822 1388 1186 1306 1013 1388 b 599 1350 749 1388 674 1375 b 208 1013 421 1289 288 1167 b 140 814 168 938 146 871 b 131 693 133 757 131 717 b 158 500 131 631 140 567 z m 1125 1047 b 1222 950 1136 994 1168 963 b 1125 846 1167 935 1135 903 b 1025 949 1113 903 1079 936 b 1125 1047 1082 961 1110 993 z m 410 942 b 456 986 436 947 449 963 b 499 942 460 963 475 947 b 456 894 474 935 460 919 b 410 942 450 918 435 935 z m 814 918 b 1094 631 963 918 1094 792 b 810 340 1094 471 969 344 l 803 340 b 519 629 656 340 519 467 b 807 918 519 788 646 918 z m 931 718 b 967 754 951 718 967 733 b 932 790 967 775 950 790 b 896 754 911 790 896 775 l 896 750 b 931 718 896 733 910 718 z m 610 704 b 692 622 610 660 647 622 b 775 704 736 622 774 660 b 693 788 775 749 738 788 b 610 708 647 788 610 749 z m 693 758 b 744 706 721 758 743 735 b 692 650 744 676 724 650 b 639 704 663 651 640 675 b 693 758 639 733 661 758 z m 857 500 b 919 439 857 467 886 439 b 981 501 953 439 981 467 b 919 563 981 535 953 563 b 857 500 886 563 857 535 z m 886 500 b 919 533 886 521 901 533 b 951 500 936 533 951 518 b 918 468 951 483 936 468 b 886 500 900 468 886 482 z m 724 471 b 739 500 731 486 739 493 l 739 503 b 719 521 738 508 726 515 l 708 510 b 701 499 704 506 703 503 l 701 497 b 724 471 701 490 711 486 z "},"R":{"ha":1464,"x_min":0,"x_max":0,"o":"m 100 106 b 204 0 100 35 135 0 l 639 0 b 740 104 711 0 740 38 l 740 110 b 738 263 739 161 738 211 b 739 493 738 289 739 365 l 739 843 b 1054 681 839 726 949 681 b 1283 768 1149 681 1228 717 b 1361 878 1318 801 1343 838 b 1396 1035 1399 961 1396 1014 b 1318 1254 1396 1101 1375 1183 b 1078 1382 1250 1339 1169 1382 b 750 1242 982 1382 874 1335 b 561 1388 719 1388 721 1388 l 207 1388 b 100 1285 136 1388 100 1358 z m 1083 1193 b 1125 1151 1089 1171 1103 1157 b 1083 1108 1101 1144 1088 1131 b 1042 1151 1078 1129 1064 1144 b 1083 1193 1064 1157 1078 1171 z m 174 600 b 293 822 189 682 244 758 b 303 779 297 806 299 792 b 296 758 303 772 300 765 b 224 632 272 715 247 676 b 214 599 219 622 215 614 b 213 582 213 594 213 589 b 239 556 213 564 221 556 b 256 557 246 556 251 556 b 744 996 424 599 660 849 b 785 1088 761 1025 772 1056 b 788 1108 786 1093 788 1100 b 768 1135 788 1126 781 1135 b 758 1133 764 1135 760 1135 b 590 1054 688 1118 647 1094 b 567 1044 583 1047 576 1044 b 553 1046 560 1044 554 1044 b 525 1053 543 1050 535 1049 b 529 1058 526 1057 528 1058 b 761 1175 589 1107 681 1171 b 826 1110 804 1175 826 1150 b 636 786 826 1007 699 853 b 256 518 536 679 406 551 b 243 515 250 517 246 515 l 233 515 b 172 581 190 515 172 549 b 174 600 172 589 172 596 z m 246 1124 b 286 1081 250 1100 263 1086 b 246 1038 264 1075 250 1064 b 203 1081 240 1061 226 1075 b 246 1124 226 1086 240 1100 z m 333 861 b 500 1014 343 950 411 1014 b 568 999 519 1014 542 1008 l 449 879 l 476 851 l 553 928 l 553 928 l 572 947 b 604 981 582 957 593 968 b 644 931 619 963 629 947 b 646 926 646 929 646 928 b 642 917 646 925 646 918 b 429 701 579 833 508 767 b 421 699 425 700 422 699 b 414 701 419 699 418 700 b 332 843 360 729 332 793 b 333 861 332 851 332 857 z m 446 821 l 433 833 l 433 835 b 424 844 429 839 425 840 b 382 807 408 832 393 819 b 404 782 392 797 397 789 z m 563 550 b 633 478 571 513 594 488 b 563 403 593 468 569 443 b 490 478 554 443 531 468 b 563 550 533 488 553 510 z "},"S":{"ha":1582,"x_min":0,"x_max":0,"o":"m 97 1251 b 99 1128 97 1219 99 1178 b 101 972 100 1078 101 1026 l 101 892 l 101 890 l 101 886 l 101 885 l 101 883 l 101 882 l 101 857 b 103 818 101 844 101 831 b 104 782 104 806 104 793 l 104 779 l 104 778 l 104 775 l 104 774 l 104 772 l 104 772 l 104 771 l 104 769 l 104 768 l 104 693 b 156 596 106 647 122 615 b 300 549 189 578 238 561 l 560 515 b 590 481 576 511 590 499 b 556 446 590 460 574 446 l 246 446 b 113 372 201 446 113 431 l 106 76 l 106 74 b 138 24 106 56 117 39 b 221 3 158 10 186 3 l 1267 0 b 1419 42 1325 0 1376 14 b 1481 136 1460 68 1481 100 l 1481 143 b 1478 354 1481 214 1479 283 b 1476 388 1476 365 1476 376 l 1476 390 l 1476 392 l 1476 397 l 1476 397 l 1476 399 l 1476 400 l 1476 401 l 1476 403 l 1476 404 l 1476 568 b 1383 697 1476 642 1456 676 b 1254 718 1351 707 1308 713 b 1119 732 1215 722 1171 726 b 1094 761 1103 733 1094 743 b 1124 790 1094 778 1108 790 b 1368 786 1207 789 1285 786 b 1478 857 1410 786 1478 807 b 1481 1043 1478 918 1479 981 b 1485 1250 1483 1106 1485 1174 b 1275 1388 1485 1349 1354 1388 l 311 1388 b 157 1349 251 1388 200 1375 b 97 1254 117 1322 97 1292 z m 435 851 b 476 926 446 878 458 906 b 825 1151 572 1033 686 1113 b 831 1156 826 1151 828 1153 b 771 1224 790 1171 771 1193 b 772 1236 771 1229 771 1233 b 838 1290 778 1268 806 1290 b 904 1232 871 1290 900 1267 b 906 1222 906 1229 906 1226 b 849 1157 906 1199 888 1172 b 856 1156 853 1157 854 1156 b 913 1111 907 1150 913 1124 b 900 1076 913 1100 908 1089 b 663 860 840 982 758 914 b 650 882 658 869 654 872 b 703 917 668 894 686 904 b 881 1096 760 954 854 1029 b 883 1110 882 1103 883 1108 b 860 1126 883 1121 875 1126 l 854 1126 b 749 1096 817 1126 782 1111 b 464 857 657 1051 508 956 b 460 840 461 850 460 844 b 486 822 460 829 468 824 l 508 822 b 517 796 513 817 513 808 b 457 801 494 797 475 797 b 432 835 436 807 432 825 b 435 851 432 839 433 844 z m 1019 1124 b 1022 1133 1021 1129 1022 1132 b 1029 1171 1026 1149 1029 1161 b 957 1231 1029 1194 1018 1226 b 947 1232 956 1232 951 1232 b 929 1231 946 1232 939 1231 l 925 1257 b 938 1258 929 1258 933 1258 l 939 1258 l 940 1258 l 940 1258 l 942 1258 l 943 1258 l 943 1258 l 947 1258 l 949 1258 l 950 1258 b 1008 1247 969 1258 989 1254 b 1056 1172 1046 1229 1056 1200 b 1054 1153 1056 1164 1056 1157 b 844 874 1036 1049 924 938 b 828 894 839 883 835 885 b 1019 1124 906 961 981 1029 z m 739 1204 b 744 1192 740 1200 743 1196 l 744 1190 l 746 1190 l 746 1189 l 746 1188 b 747 1186 747 1188 747 1188 l 747 1186 b 749 1185 747 1185 747 1185 l 749 1183 l 749 1183 b 585 1082 693 1150 636 1119 b 435 963 533 1044 486 1006 l 419 978 b 739 1204 514 1074 617 1147 z m 1243 1164 b 1285 1122 1249 1140 1263 1126 b 1243 1078 1261 1115 1247 1104 b 1201 1122 1238 1100 1224 1115 b 1243 1164 1224 1126 1238 1140 z m 368 967 b 422 913 400 967 422 944 b 368 860 422 883 397 860 b 315 914 339 860 315 885 l 315 918 b 368 967 315 944 339 967 z m 531 846 b 583 900 531 875 551 900 b 636 846 613 900 636 875 b 583 792 636 817 613 792 b 531 842 551 792 531 815 z m 692 833 b 757 900 692 871 719 900 b 824 832 794 900 824 869 b 757 765 822 794 794 765 b 692 833 719 765 692 794 z m 301 790 b 317 842 306 807 311 821 b 342 831 328 838 332 835 b 328 788 336 815 332 800 b 325 764 326 778 325 771 b 386 704 325 732 346 711 b 400 703 389 703 393 703 l 411 703 b 551 733 460 703 506 717 b 668 785 590 749 629 768 b 679 764 672 778 675 774 b 485 686 617 726 553 701 b 410 679 453 679 426 679 l 385 679 b 299 763 319 683 299 722 b 301 790 299 772 300 781 z m 860 300 b 917 313 861 310 883 313 b 996 308 939 313 965 311 b 1118 390 1017 358 1064 390 b 1251 260 1189 390 1251 332 b 1375 201 1329 238 1375 217 l 1375 200 b 1318 188 1374 190 1351 188 b 1236 193 1294 188 1268 189 b 1119 121 1213 150 1168 121 b 986 240 1051 121 996 174 b 860 299 908 263 860 283 z m 567 258 b 636 185 575 221 599 196 b 567 111 597 175 574 154 b 493 185 557 151 533 175 b 567 258 532 194 557 218 z "},"T":{"ha":1506,"x_min":0,"x_max":0,"o":"m 64 832 b 153 742 65 772 96 742 b 286 740 219 742 264 740 l 290 740 l 290 740 l 300 740 l 300 740 l 319 740 b 353 742 331 740 342 740 l 364 742 b 438 665 415 742 438 722 l 438 658 b 436 565 436 626 436 596 l 436 557 l 436 554 l 436 546 l 436 543 l 436 540 l 436 538 l 436 528 l 436 525 l 436 522 l 436 519 l 436 279 l 436 276 l 436 267 l 436 264 l 436 261 l 436 258 l 436 250 l 436 247 l 436 244 l 436 242 l 436 194 b 435 101 436 164 436 133 b 533 0 435 33 468 0 l 676 0 l 676 18 b 675 36 676 25 676 32 b 688 56 675 46 679 53 b 722 72 699 61 707 67 b 719 0 722 49 721 24 l 747 0 l 747 15 b 749 31 747 22 747 28 b 758 40 749 38 751 40 b 793 44 769 42 778 43 b 792 0 793 29 792 15 l 808 0 l 808 74 b 847 65 824 72 836 69 b 854 56 851 65 854 63 l 854 0 l 967 0 b 1071 99 1038 0 1071 28 l 1071 104 b 1069 200 1069 136 1069 168 l 1069 218 l 1069 221 l 1069 224 l 1069 226 l 1069 229 l 1069 238 l 1069 240 l 1069 244 l 1069 247 l 1069 282 l 1069 285 l 1069 297 l 1069 314 l 1069 317 l 1069 319 l 1069 322 l 1069 325 l 1069 335 l 1069 338 l 1069 340 l 1069 343 l 1069 379 l 1069 382 l 1069 392 b 1071 488 1069 424 1069 456 b 1067 601 1071 528 1067 568 l 1067 603 l 1067 604 l 1067 604 l 1067 606 l 1067 606 l 1067 607 l 1067 607 l 1067 608 l 1067 617 l 1067 618 l 1067 621 b 1094 722 1067 647 1072 694 b 1190 747 1111 743 1147 747 b 1318 740 1233 747 1281 744 l 1335 740 b 1440 857 1407 740 1440 774 b 1442 1099 1440 992 1442 1071 b 1439 1258 1442 1153 1440 1204 b 1308 1386 1439 1363 1414 1386 b 1169 1388 1261 1388 1215 1388 l 1153 1388 l 1149 1388 l 1144 1388 l 1140 1388 l 1136 1388 l 1132 1388 l 1121 1388 l 1115 1388 l 1111 1388 l 1107 1388 l 1096 1388 l 1065 1388 l 1061 1388 l 1040 1388 l 1036 1388 l 185 1388 b 64 1288 118 1388 64 1371 z m 285 1175 b 328 1133 290 1153 304 1139 b 285 1090 304 1126 290 1113 b 243 1133 279 1111 265 1126 b 285 1175 265 1139 279 1153 z m 989 1093 b 1061 1021 999 1053 1018 1031 b 989 946 1021 1011 997 986 b 918 1021 982 985 958 1010 b 989 1093 957 1031 981 1056 z m 604 243 b 632 333 631 276 632 307 l 632 335 l 632 336 l 632 336 l 632 338 l 632 338 l 632 339 l 632 339 l 632 343 l 632 343 l 632 344 b 631 357 632 349 632 353 b 629 375 629 364 629 369 l 629 376 l 629 378 l 629 379 l 629 379 l 629 381 l 629 383 l 629 383 l 629 390 l 629 390 l 629 393 b 694 660 629 476 640 565 b 753 725 701 671 739 725 b 771 711 757 725 763 721 b 842 599 803 679 825 642 b 883 353 875 515 883 431 l 883 335 b 890 307 883 324 886 314 b 910 279 894 296 901 286 b 939 194 943 246 939 200 b 935 138 939 176 935 154 l 935 121 b 876 150 913 133 894 139 b 843 161 865 156 854 161 b 813 143 833 161 824 156 b 792 100 799 126 792 113 b 793 90 792 96 792 93 b 796 72 793 86 794 82 b 767 69 779 71 772 69 b 754 71 761 69 757 69 b 743 79 750 71 743 75 l 743 85 b 708 138 743 107 736 125 b 688 144 693 144 689 144 b 672 138 683 144 679 142 b 599 99 649 122 626 114 b 597 118 599 108 597 113 b 590 179 593 139 594 158 b 589 197 589 183 589 190 b 604 243 589 213 594 228 z m 715 365 b 756 349 728 354 740 349 b 794 367 769 349 782 354 b 796 447 818 389 818 424 b 754 464 785 458 771 464 b 715 449 742 464 728 458 b 715 365 693 425 693 389 z "},"U":{"ha":1554,"x_min":0,"x_max":0,"o":"m 96 624 b 775 0 122 275 425 0 b 1422 496 1068 0 1344 199 b 1454 753 1440 551 1450 647 b 1458 972 1458 858 1458 935 l 1458 974 l 1458 975 l 1458 978 l 1458 981 l 1458 985 l 1458 989 l 1458 992 l 1458 993 l 1458 999 l 1458 1000 l 1458 1029 b 1457 1089 1458 1047 1458 1068 b 1454 1244 1456 1172 1454 1222 l 1454 1247 l 1454 1247 l 1454 1251 l 1454 1251 l 1454 1253 l 1454 1254 l 1454 1272 b 1456 1294 1454 1281 1454 1288 l 1456 1306 b 1393 1388 1456 1360 1435 1388 b 1360 1383 1382 1388 1371 1386 b 1013 1301 1242 1360 1125 1339 b 775 1265 931 1278 851 1265 b 539 1303 699 1265 619 1278 b 172 1383 421 1343 296 1361 b 149 1386 163 1385 156 1386 b 88 1315 117 1386 88 1372 l 88 1211 b 85 897 88 1044 85 943 b 96 624 85 807 89 717 z m 217 1119 b 260 1161 240 1125 254 1139 b 300 1119 264 1139 278 1125 b 260 1075 278 1113 264 1101 b 217 1119 254 1099 240 1113 z m 1190 1074 b 1260 1000 1197 1033 1221 1010 b 1190 925 1221 990 1197 965 b 1117 1000 1181 965 1156 990 b 1190 1074 1157 1010 1181 1033 z m 631 822 b 663 789 649 822 663 807 l 663 785 b 631 753 663 768 649 753 b 596 788 607 753 596 764 b 631 822 596 811 607 822 z m 758 724 b 821 785 760 757 788 783 b 882 724 854 785 882 757 b 821 661 882 689 854 661 b 758 724 788 661 758 689 z m 400 576 b 585 681 451 654 514 681 l 586 681 l 588 681 l 589 681 l 589 681 l 590 681 l 590 681 l 592 681 l 592 681 l 597 681 l 597 681 l 599 681 b 613 679 603 681 608 681 b 760 593 672 674 725 642 b 806 460 794 544 806 497 b 803 424 806 447 804 436 b 792 385 799 411 797 397 b 757 358 786 361 779 360 l 739 358 b 407 506 615 365 497 421 b 385 542 379 532 385 540 b 400 576 385 549 390 561 z m 363 647 b 429 661 389 660 414 661 l 431 661 l 431 661 l 432 661 l 433 661 l 435 661 l 435 661 l 436 661 l 440 661 l 440 661 l 442 661 b 453 660 446 661 449 661 b 393 619 431 644 415 629 b 353 572 353 604 353 582 b 363 536 353 560 356 549 b 442 450 381 499 410 472 b 743 339 526 388 632 339 b 797 346 760 339 779 340 b 842 399 826 356 842 374 b 836 426 842 408 840 418 b 822 494 826 449 826 471 b 879 396 854 468 875 439 l 879 389 b 790 296 879 346 847 311 b 726 289 767 292 747 289 b 372 443 601 289 457 358 b 315 535 346 471 326 497 b 310 569 311 546 310 557 b 363 647 310 603 328 629 z m 1203 431 b 1243 389 1207 407 1221 393 b 1203 343 1221 382 1207 369 b 1160 388 1197 367 1183 382 b 1203 431 1183 393 1197 407 z m 697 271 b 583 236 682 253 633 236 b 374 417 488 236 381 317 b 697 271 467 332 575 283 z "},"V":{"ha":1503,"x_min":0,"x_max":0,"o":"m 60 821 b 108 736 60 790 92 746 b 294 586 201 681 250 653 b 608 88 406 419 508 260 b 750 0 646 26 679 1 b 871 78 806 0 826 11 b 844 135 856 93 849 111 b 763 269 838 190 807 232 b 524 708 636 382 531 533 b 522 721 522 711 522 715 b 558 743 522 738 525 743 b 1025 490 740 743 906 614 b 1108 463 1043 469 1082 463 b 1350 721 1174 563 1250 649 b 1432 889 1428 781 1432 821 b 1429 1046 1432 907 1429 940 b 1431 1206 1429 1140 1431 1188 b 1350 1383 1431 1294 1426 1383 b 1182 1315 1303 1383 1219 1344 b 865 1057 1076 1226 971 1146 b 743 997 815 1014 775 997 b 538 1142 667 997 618 1083 b 203 1369 426 1221 321 1304 b 142 1388 182 1382 163 1388 b 58 1286 92 1388 60 1349 b 56 1099 57 1224 56 1161 b 60 821 56 1069 56 978 z m 343 1064 b 386 1107 367 1069 381 1083 b 428 1064 392 1083 406 1069 b 386 1021 406 1058 392 1044 b 343 1064 381 1044 367 1058 z m 1174 1042 b 1243 968 1181 1004 1204 979 b 1174 894 1204 958 1181 938 b 1100 968 1164 935 1140 958 b 1174 1042 1140 978 1164 1001 z m 835 358 b 911 438 878 360 911 392 b 835 515 910 481 878 514 b 756 438 790 515 757 481 b 835 358 756 393 790 358 z "},"W":{"ha":2101,"x_min":0,"x_max":0,"o":"m 71 811 b 108 740 71 788 92 743 b 113 739 110 739 111 739 b 342 535 224 688 282 622 b 760 0 685 14 618 6 l 771 0 b 875 71 815 0 849 17 b 1043 375 924 171 978 258 b 1208 96 1106 269 1163 185 b 1356 3 1242 31 1282 4 b 1482 97 1429 3 1453 47 b 1794 599 1588 265 1689 431 b 1967 757 1839 669 1907 704 b 2031 892 2004 792 2026 836 b 2033 1026 2032 940 2033 993 l 2033 1032 l 2033 1033 l 2033 1036 l 2033 1042 l 2033 1043 l 2033 1050 l 2033 1051 l 2033 1053 l 2033 1056 l 2033 1092 b 2031 1181 2033 1117 2032 1146 b 1989 1365 2026 1282 2011 1358 b 1956 1368 1978 1367 1967 1368 b 1804 1328 1917 1368 1861 1351 b 1478 1071 1753 1306 1724 1276 b 1464 1065 1474 1067 1469 1065 b 1446 1075 1463 1065 1453 1064 b 1442 1086 1443 1078 1442 1082 l 1442 1114 b 1438 1281 1442 1142 1442 1190 b 1356 1385 1435 1350 1407 1385 b 1196 1318 1307 1385 1233 1349 b 865 1049 1083 1229 976 1143 b 757 999 825 1015 789 999 b 449 1226 661 999 590 1122 b 151 1388 390 1271 226 1388 b 71 1293 103 1388 72 1353 b 68 1053 69 1214 68 1133 b 71 811 68 972 69 892 z m 319 1046 b 392 974 328 1006 351 982 b 319 900 351 964 328 940 b 247 974 311 940 288 964 b 319 1046 288 982 311 1006 z m 1161 489 b 1226 631 1172 543 1199 588 b 1272 697 1242 653 1256 674 b 1283 657 1278 681 1282 668 l 1283 653 b 1276 638 1283 650 1281 644 l 1275 633 b 1272 629 1274 632 1274 631 l 1271 626 l 1269 626 l 1268 622 b 1265 618 1267 621 1267 619 l 1261 611 b 1258 606 1260 610 1260 607 l 1254 599 b 1251 594 1253 597 1253 596 l 1250 592 l 1250 590 l 1247 588 b 1244 583 1246 586 1246 585 l 1243 581 l 1243 579 b 1208 519 1232 558 1221 540 b 1200 488 1204 510 1204 499 b 1197 469 1199 481 1197 475 b 1221 446 1197 454 1206 446 b 1239 449 1226 446 1232 447 b 1700 860 1400 493 1618 715 b 1736 946 1715 886 1725 917 b 1739 954 1738 947 1739 950 l 1739 965 b 1724 990 1739 982 1733 990 b 1714 989 1719 990 1717 990 b 1554 915 1644 974 1610 953 b 1529 906 1547 908 1539 906 b 1519 907 1525 906 1521 906 b 1493 914 1510 911 1503 910 b 1496 918 1493 917 1494 918 b 1717 1029 1558 967 1633 1022 b 1778 967 1754 1029 1778 1004 b 1597 663 1778 871 1657 726 b 1239 411 1504 563 1376 444 b 1219 408 1229 410 1224 408 b 1160 471 1176 408 1160 439 b 1161 489 1160 478 1160 485 z m 964 907 b 1006 950 986 913 1000 926 b 1047 907 1011 926 1025 913 b 1006 864 1025 903 1011 888 b 964 907 1000 888 986 901 z m 1313 733 b 1468 876 1319 817 1385 876 b 1533 863 1490 876 1513 872 b 1421 750 1494 822 1458 788 l 1447 724 b 1567 846 1486 763 1524 803 b 1604 799 1582 828 1594 813 b 1606 793 1606 797 1606 796 b 1603 785 1606 792 1604 789 b 1403 583 1543 711 1481 643 b 1394 582 1401 582 1399 582 b 1388 583 1392 582 1389 582 b 1311 713 1338 611 1311 669 b 1313 733 1311 722 1311 729 z m 1357 683 b 1379 660 1367 674 1372 665 b 1418 694 1394 672 1406 683 l 1397 717 l 1375 699 l 1374 699 l 1374 697 b 1372 696 1372 697 1372 697 l 1371 696 b 1369 694 1371 694 1371 694 l 1365 690 b 1364 689 1364 690 1364 690 b 1363 688 1363 689 1363 689 l 1361 688 b 1360 686 1361 686 1361 686 l 1360 685 l 1358 685 z m 526 660 b 539 663 528 661 532 663 b 603 650 551 663 575 660 b 664 685 615 672 640 685 b 692 679 675 685 685 683 b 740 608 725 668 740 636 l 740 600 b 803 557 779 582 803 567 l 803 556 b 790 551 801 553 797 551 b 725 565 774 551 751 556 b 665 535 710 547 689 535 b 640 540 657 535 649 536 b 592 607 608 551 592 581 l 592 615 b 526 658 551 633 526 649 z "},"X":{"ha":1572,"x_min":0,"x_max":0,"o":"m 101 624 b 104 508 103 585 104 546 b 103 338 104 490 103 433 l 103 0 b 788 483 446 4 650 182 b 1471 1 921 172 1132 1 b 1472 381 1471 233 1472 351 b 1468 658 1472 472 1471 565 b 1399 711 1468 676 1424 711 b 1278 715 1358 714 1318 715 b 1096 714 1257 715 1197 714 b 1085 735 1092 724 1089 728 b 1465 1364 1329 879 1465 1085 l 1465 1375 b 1424 1386 1444 1381 1435 1386 l 1161 1386 b 749 1022 1025 1346 826 1240 l 835 1063 l 769 943 l 860 843 l 729 869 l 665 750 l 649 886 l 518 913 l 639 969 l 622 1104 l 692 1029 b 844 1386 703 1133 749 1272 l 501 1386 l 486 1386 l 478 1386 l 463 1386 l 457 1386 l 453 1386 l 447 1386 l 442 1386 l 436 1386 l 432 1386 l 426 1386 l 421 1386 l 343 1386 l 336 1386 b 164 1388 279 1386 222 1386 b 104 1326 103 1388 104 1360 l 104 1311 b 333 846 119 1124 196 968 b 483 733 379 806 432 771 b 476 714 479 726 481 721 b 317 713 382 714 329 713 b 197 717 276 713 238 714 l 185 717 b 101 635 128 717 101 697 z m 368 1192 b 410 1149 374 1171 388 1156 b 368 1106 388 1143 374 1129 b 326 1149 363 1129 349 1143 b 368 1192 349 1156 363 1171 z m 1035 431 b 1107 503 1078 440 1097 464 b 1178 431 1115 463 1139 439 b 1107 356 1138 421 1114 396 b 1035 431 1099 396 1075 421 z "},"Y":{"ha":1493,"x_min":0,"x_max":0,"o":"m 63 1300 b 363 789 90 1082 183 911 b 429 668 411 756 429 719 l 429 661 b 428 568 428 629 428 599 l 428 565 l 428 563 l 428 543 l 428 540 l 428 476 b 429 247 428 415 429 342 l 429 240 l 429 236 l 429 231 l 429 228 l 429 226 l 429 224 l 429 222 l 429 219 l 429 217 l 429 178 b 428 108 429 154 429 132 l 428 101 b 524 0 428 35 453 0 l 529 0 b 729 236 529 119 611 218 l 729 425 l 756 425 l 756 421 l 860 421 l 756 335 l 756 238 b 758 239 757 238 757 239 b 988 1 889 239 988 131 b 1067 101 1047 8 1067 40 l 1067 108 b 1065 188 1065 135 1065 161 l 1065 192 l 1065 197 l 1065 200 l 1065 201 l 1065 204 l 1065 211 l 1065 214 l 1065 217 l 1065 219 l 1065 221 l 1065 224 l 1065 226 l 1065 267 b 1067 503 1065 346 1067 424 l 1067 508 l 1067 511 l 1067 518 l 1067 519 l 1067 522 l 1067 529 l 1067 531 l 1067 535 l 1067 538 l 1067 540 l 1067 542 l 1067 574 l 1067 576 l 1067 582 b 1065 661 1067 608 1067 635 l 1065 669 b 1129 788 1065 718 1078 753 b 1428 1288 1303 906 1401 1075 b 1429 1301 1429 1292 1429 1297 l 1429 1304 l 1429 1304 l 1429 1306 l 1429 1306 l 1429 1307 l 1429 1308 l 1429 1308 l 1429 1315 b 1342 1388 1429 1367 1410 1388 l 1335 1388 b 1100 1385 1256 1386 1178 1385 b 746 1386 1061 1385 946 1386 b 383 1385 544 1386 424 1385 b 139 1388 301 1385 222 1386 b 61 1322 74 1388 61 1365 l 61 1321 l 61 1319 l 61 1319 l 61 1318 l 61 1317 l 61 1317 l 61 1313 l 61 1313 b 63 1300 61 1308 61 1304 z m 278 1172 b 349 1244 317 1182 340 1207 b 421 1172 358 1206 378 1182 b 349 1096 381 1161 358 1140 b 278 1172 342 1139 318 1161 z m 906 726 b 949 769 929 732 943 746 b 990 726 953 746 967 732 b 949 682 967 721 953 706 b 906 726 943 706 929 721 z m 856 76 b 885 104 872 76 885 89 b 856 135 885 121 872 135 b 828 106 840 135 828 122 b 856 76 828 88 838 78 z m 600 65 b 649 3 600 36 621 10 l 685 3 b 732 65 711 13 731 36 b 665 133 732 103 703 133 b 600 65 631 133 600 103 z m 665 110 b 708 67 689 110 708 90 l 708 63 b 665 24 708 42 692 24 b 624 65 643 24 625 42 b 665 110 624 89 643 110 z "},"Z":{"ha":2224,"x_min":0,"x_max":0,"o":"m 60 1286 b 718 675 108 935 369 690 b 799 593 783 671 799 647 l 799 586 b 797 501 797 557 797 529 l 797 497 l 797 489 l 797 486 l 797 478 l 797 476 l 797 474 l 797 471 l 797 468 l 797 465 l 797 463 l 797 460 l 797 418 b 799 211 797 363 799 294 l 799 206 l 799 200 l 799 197 l 799 196 l 799 193 l 799 192 l 799 182 l 799 179 l 799 149 b 797 85 799 128 799 106 l 797 78 b 874 0 797 29 813 0 b 1178 1 975 1 1076 1 l 1192 1 l 1206 1 l 1233 1 l 1261 1 l 1271 1 l 1281 1 l 1289 1 l 1299 1 l 1308 1 l 1318 1 l 1326 1 l 1485 1 l 1494 1 l 1508 1 l 1536 1 l 1564 1 l 1574 1 l 1583 1 l 1592 1 l 1601 1 l 1611 1 l 1621 1 l 1629 1 l 1783 1 b 2086 0 1885 1 1985 1 b 2165 67 2151 0 2165 29 l 2165 68 l 2165 69 l 2165 69 l 2165 71 l 2165 72 l 2165 72 l 2165 76 l 2165 76 l 2165 78 b 2164 90 2165 82 2165 86 b 1436 717 2108 483 1832 713 l 1436 828 b 1435 1101 1436 983 1435 1072 b 1438 1285 1435 1163 1436 1224 l 1438 1292 b 1338 1388 1438 1357 1415 1388 b 1042 1386 1239 1386 1140 1386 l 1010 1386 l 996 1386 l 969 1386 l 960 1386 l 951 1386 l 942 1386 l 933 1386 l 924 1386 l 914 1386 l 906 1386 l 896 1386 l 760 1386 l 750 1386 l 742 1386 l 714 1386 l 700 1386 l 672 1386 l 663 1386 l 654 1386 l 644 1386 l 636 1386 l 626 1386 l 617 1386 l 608 1386 l 599 1386 l 463 1386 l 449 1386 b 151 1388 350 1386 251 1386 b 57 1317 75 1388 57 1363 b 60 1286 57 1307 58 1297 z m 1078 1233 b 1150 1160 1088 1193 1111 1169 b 1078 1085 1110 1150 1086 1125 b 1007 1160 1071 1125 1047 1150 b 1078 1233 1046 1169 1069 1194 z m 563 1219 b 736 1046 657 1219 736 1143 b 565 869 736 951 661 869 b 389 1044 471 869 389 944 b 563 1219 389 1140 468 1219 z m 638 1097 b 658 1119 649 1097 658 1107 l 658 1122 b 638 1142 658 1132 649 1142 b 615 1119 622 1142 615 1135 b 638 1097 615 1104 622 1097 z m 443 1089 b 493 1040 443 1063 467 1040 b 543 1089 519 1040 542 1063 b 493 1140 543 1117 519 1140 b 443 1092 467 1140 443 1115 z m 493 1122 b 525 1090 510 1122 525 1108 b 493 1057 525 1072 511 1057 b 461 1089 475 1057 461 1071 b 493 1122 461 1107 475 1122 z m 593 967 b 631 929 593 946 608 929 b 667 967 651 929 667 946 b 631 1003 667 988 651 1003 b 593 967 610 1003 593 988 z m 631 985 b 650 967 643 985 650 979 b 631 946 650 954 640 946 b 611 967 618 947 611 954 b 631 985 611 979 618 985 z m 511 949 b 521 967 518 958 521 964 b 517 974 519 968 518 969 l 515 974 l 510 979 b 499 965 506 974 500 969 b 511 949 499 963 503 957 z m 922 886 b 969 838 928 860 943 843 b 922 788 943 831 928 814 b 874 838 917 814 900 831 b 922 886 900 842 917 858 z m 1833 163 b 1882 211 1860 168 1876 185 b 1929 163 1889 185 1906 168 b 1882 113 1903 156 1888 139 b 1833 163 1876 139 1860 156 z "},"[":{"ha":1028,"x_min":0,"x_max":0,"o":"m 93 697 b 97 407 93 599 94 503 b 104 290 101 363 100 324 b 217 32 108 196 118 72 b 386 7 271 11 329 8 l 692 7 b 810 11 740 8 778 7 b 918 40 842 13 892 17 b 929 72 924 50 929 60 b 932 118 931 88 932 101 l 932 156 b 929 183 932 168 931 176 b 917 218 928 200 924 211 b 843 232 901 231 864 232 l 804 232 b 735 240 778 232 758 233 b 692 321 706 247 696 293 b 685 428 688 358 685 390 b 681 696 682 518 681 607 b 685 967 681 786 682 876 b 703 1119 685 1015 686 1075 b 726 1149 710 1133 718 1143 b 761 1158 735 1154 746 1157 b 772 1160 765 1160 768 1160 l 774 1160 l 774 1160 l 774 1160 l 775 1160 l 776 1160 l 778 1160 l 778 1160 l 779 1160 l 779 1160 l 783 1160 l 783 1160 l 843 1160 b 879 1163 854 1160 867 1161 b 917 1175 896 1164 908 1168 b 929 1208 924 1182 928 1193 b 932 1258 929 1213 932 1240 l 932 1269 b 929 1310 932 1285 931 1294 b 925 1340 929 1322 926 1333 b 901 1365 921 1350 914 1360 b 853 1379 886 1372 869 1378 b 835 1381 849 1381 842 1381 l 833 1382 b 803 1385 824 1383 813 1383 b 754 1386 785 1385 769 1386 b 725 1388 750 1388 740 1388 l 682 1388 b 658 1389 675 1389 667 1389 l 657 1389 l 654 1389 l 653 1389 l 650 1389 l 649 1389 l 647 1389 l 646 1389 l 646 1389 l 639 1389 l 638 1389 l 636 1389 l 635 1389 l 633 1389 l 632 1389 l 576 1389 b 338 1385 496 1389 417 1388 b 111 1183 183 1374 133 1328 b 104 1104 107 1160 104 1133 b 93 697 93 965 93 836 z "},"\\":{"ha":904,"x_min":0,"x_max":0,"o":"m 97 957 b 129 813 107 914 118 867 b 175 611 144 746 160 679 l 175 608 l 176 601 b 178 599 178 600 178 600 l 179 593 l 179 589 l 181 583 b 182 581 182 582 182 582 l 183 574 b 185 568 183 571 183 569 l 186 561 l 186 558 l 188 551 b 189 549 189 550 189 550 l 190 543 l 190 539 l 192 533 b 193 526 193 532 193 531 l 194 521 b 196 518 196 519 196 519 l 197 511 l 197 508 l 199 501 b 200 499 199 500 199 500 l 201 493 b 203 486 201 489 201 488 l 204 481 l 204 476 l 206 471 b 207 468 206 469 206 469 l 208 461 l 208 458 l 210 451 b 211 446 211 450 211 449 l 213 439 b 214 436 213 438 213 438 l 215 431 l 215 426 l 217 421 b 218 418 217 419 217 419 l 219 411 l 219 407 b 221 403 221 406 221 404 l 221 401 l 221 400 l 221 400 l 222 399 l 222 397 l 222 396 l 222 396 l 224 394 l 224 394 l 224 393 l 224 393 b 226 383 225 390 225 388 b 232 354 228 374 231 364 l 232 353 b 233 349 233 351 233 350 l 233 346 b 235 343 235 344 235 344 l 235 340 l 236 339 l 236 336 l 238 335 l 238 332 b 239 329 238 331 238 331 l 239 326 b 240 322 239 325 239 324 l 240 321 b 249 285 244 310 244 297 b 433 15 275 182 315 42 b 490 8 451 11 471 8 b 542 6 513 7 532 6 l 543 6 l 544 6 l 546 6 l 546 6 l 547 6 l 549 6 l 549 6 l 557 6 b 574 7 563 6 568 6 l 694 7 b 847 124 782 7 843 32 b 849 139 849 128 849 133 l 849 140 l 849 140 l 849 143 l 849 143 l 849 144 l 849 147 l 849 147 l 849 153 l 849 154 l 849 156 b 843 229 849 178 847 203 b 822 363 839 269 832 314 b 790 518 813 411 803 464 b 678 1018 750 686 713 850 b 647 1140 667 1064 657 1106 b 581 1301 631 1196 613 1253 b 390 1396 538 1378 468 1396 l 300 1396 b 72 1301 225 1396 121 1368 b 56 1257 61 1286 56 1271 b 97 957 56 1156 76 1057 z "},"]":{"ha":1026,"x_min":0,"x_max":0,"o":"m 96 1232 b 97 1208 96 1221 97 1213 b 147 1163 101 1176 115 1167 b 183 1160 160 1161 172 1160 l 244 1160 l 244 1160 l 244 1160 l 246 1160 l 246 1160 l 249 1160 l 249 1160 l 250 1160 l 250 1160 l 253 1160 l 253 1160 l 254 1160 b 265 1158 258 1160 261 1160 b 300 1149 281 1157 292 1154 b 336 1063 328 1128 332 1094 b 342 967 340 1036 342 1006 b 344 696 343 876 344 786 b 342 428 344 607 343 518 l 342 408 l 342 407 l 342 407 l 342 406 l 342 404 l 342 403 l 342 401 l 342 401 l 342 396 l 342 396 l 342 394 b 340 381 342 390 342 385 b 335 321 340 360 339 339 b 319 268 331 300 329 283 b 260 233 308 239 288 238 b 242 232 256 232 249 232 l 183 232 b 110 218 165 232 125 231 b 97 183 104 211 99 200 b 96 156 96 181 96 171 l 96 93 l 96 93 l 96 92 l 96 90 l 96 90 l 96 83 b 97 72 96 79 96 76 b 108 40 99 60 103 50 b 215 11 135 17 183 13 b 335 7 247 7 286 8 l 640 7 b 808 32 694 8 758 11 b 922 290 903 74 918 197 b 932 546 929 375 932 457 b 933 583 933 558 933 571 l 933 585 l 933 586 l 933 588 l 933 589 l 933 593 l 933 594 l 933 600 l 933 601 l 933 615 l 933 617 l 933 697 b 922 1104 933 836 933 965 b 789 1369 918 1215 904 1329 b 690 1385 761 1379 728 1381 b 450 1389 610 1388 529 1389 l 393 1389 l 390 1389 l 389 1389 l 386 1389 l 385 1389 l 385 1389 l 383 1389 l 382 1389 l 381 1389 l 374 1389 l 372 1389 l 371 1389 l 371 1389 l 368 1389 l 368 1389 b 343 1388 358 1389 350 1389 l 303 1388 l 300 1388 l 299 1388 l 297 1388 l 296 1388 l 294 1388 l 293 1388 l 289 1388 l 289 1388 l 286 1388 l 286 1388 b 272 1386 282 1388 276 1388 b 224 1385 257 1386 242 1385 b 125 1365 192 1381 154 1381 b 101 1340 113 1360 104 1351 b 96 1269 97 1322 96 1299 z "},"^":{"ha":1072,"x_min":0,"x_max":0,"o":"m 86 406 b 136 367 94 383 111 371 b 264 360 179 360 219 360 b 399 367 310 360 354 360 b 447 388 421 369 438 376 b 492 536 482 418 488 494 b 496 688 494 578 496 628 l 496 788 l 496 793 l 496 794 l 496 796 l 496 800 l 496 803 l 496 806 l 496 807 l 496 843 b 494 903 496 861 496 882 l 494 1194 b 535 1236 494 1222 508 1236 b 572 1214 550 1236 563 1229 b 576 1194 574 1210 575 1204 b 578 1171 576 1185 578 1176 b 576 1154 578 1164 578 1158 l 576 1079 b 575 1054 575 1072 575 1064 l 575 1051 l 575 1051 l 575 1049 l 575 1047 l 575 1046 l 575 1046 l 575 1044 l 575 1042 l 575 1040 l 575 1029 l 575 1028 l 575 957 b 576 776 575 908 576 847 b 581 535 576 693 576 618 b 632 382 581 488 588 408 b 701 361 649 371 672 364 b 724 360 708 360 717 360 l 729 360 l 729 360 l 731 360 l 731 360 l 733 360 l 733 360 l 735 360 l 735 360 l 904 360 b 997 424 950 364 985 375 b 999 513 1001 444 1000 474 b 975 657 994 550 986 597 b 933 871 964 717 950 788 b 917 951 929 892 924 918 b 894 1054 910 985 904 1017 b 849 1233 879 1114 867 1174 b 831 1276 842 1249 838 1261 b 811 1313 825 1289 821 1301 b 607 1385 763 1383 683 1385 l 467 1385 b 325 1367 418 1385 369 1385 b 240 1276 286 1350 256 1317 b 222 1233 233 1261 229 1249 b 208 1186 218 1221 213 1204 b 193 1122 204 1165 199 1146 b 176 1050 188 1099 182 1076 b 161 981 171 1026 167 1003 b 149 918 157 957 153 936 b 140 871 144 897 142 881 b 97 651 122 788 108 713 b 75 499 86 590 79 539 b 74 485 74 494 74 489 l 74 485 l 74 483 l 74 481 l 74 481 l 74 479 l 74 479 l 74 474 b 86 406 74 443 78 421 z "},"_":{"ha":907,"x_min":0,"x_max":0,"o":"m 94 -200 l 94 -204 b 96 -207 96 -206 96 -206 l 96 -211 b 97 -214 96 -212 96 -212 l 97 -217 b 101 -232 99 -222 100 -228 b 139 -267 111 -254 118 -260 b 176 -275 147 -271 160 -274 b 232 -281 193 -279 211 -279 b 294 -283 250 -282 272 -282 b 358 -285 315 -283 338 -285 l 453 -285 b 611 -283 515 -285 567 -283 b 718 -278 654 -282 690 -282 b 807 -228 751 -274 796 -265 b 811 -194 811 -218 810 -207 b 813 -150 811 -182 813 -167 b 810 -92 813 -126 811 -107 b 707 -18 810 -28 757 -25 b 606 -12 679 -14 649 -14 l 289 -12 l 288 -12 l 286 -12 l 285 -12 l 283 -12 l 282 -12 l 281 -12 l 271 -12 b 251 -14 264 -12 258 -12 b 186 -19 225 -15 204 -15 b 115 -43 165 -24 132 -26 b 101 -67 108 -50 104 -57 b 94 -100 97 -76 96 -87 b 93 -111 93 -104 93 -107 l 93 -112 l 93 -112 l 93 -114 l 93 -114 l 93 -115 l 93 -117 l 93 -178 l 93 -178 l 93 -179 l 93 -181 l 93 -182 l 93 -182 l 93 -189 b 94 -200 93 -193 93 -196 z "},"`":{"ha":347,"x_min":0,"x_max":0,"o":"m 18 1639 b 7 1615 11 1632 7 1624 b 24 1590 7 1614 3 1603 l 182 1494 b 196 1489 186 1490 192 1489 b 207 1494 200 1489 203 1490 l 221 1510 l 132 1619 l 246 1533 l 258 1549 b 264 1560 263 1553 264 1556 b 258 1572 264 1564 263 1568 l 156 1728 b 132 1744 144 1749 132 1744 b 108 1732 124 1744 115 1740 z m 99 1660 b 92 1657 97 1658 94 1657 b 88 1658 90 1657 89 1657 b 85 1664 86 1660 85 1663 b 88 1671 85 1667 86 1669 b 93 1674 89 1672 92 1674 b 99 1671 94 1674 97 1672 b 101 1665 100 1669 101 1667 b 99 1660 101 1664 100 1661 z m 172 1639 b 176 1635 175 1638 176 1636 b 172 1629 176 1633 175 1632 b 165 1625 169 1626 167 1625 b 161 1628 164 1625 163 1626 b 157 1635 158 1631 157 1633 b 160 1640 157 1636 158 1639 b 165 1642 161 1642 164 1642 b 172 1639 168 1642 171 1640 z m 131 1578 b 125 1575 129 1576 126 1575 b 119 1578 124 1575 121 1576 b 117 1583 118 1579 117 1582 b 119 1589 117 1585 118 1588 b 125 1592 121 1590 124 1592 b 131 1589 126 1592 129 1590 b 133 1583 132 1588 133 1585 b 131 1578 133 1582 132 1579 z m 283 1567 b 265 1528 282 1553 276 1540 l 226 1489 b 189 1471 217 1479 204 1472 b 215 1451 193 1453 208 1451 b 231 1456 219 1451 225 1453 b 321 1419 260 1432 299 1419 b 336 1421 326 1419 332 1419 b 338 1436 338 1425 338 1431 b 299 1526 338 1458 325 1497 b 303 1542 301 1532 303 1538 b 283 1567 303 1549 301 1563 z m 183 1528 b 186 1525 185 1526 186 1526 b 183 1521 186 1524 185 1522 b 178 1518 182 1519 179 1518 b 175 1519 176 1518 176 1518 b 172 1525 174 1521 172 1524 b 175 1529 172 1526 174 1528 b 179 1531 176 1531 178 1531 b 183 1528 181 1531 182 1529 z m 304 1479 b 313 1467 310 1475 313 1471 b 304 1451 313 1463 310 1457 b 292 1446 300 1447 296 1446 b 278 1451 288 1446 282 1447 b 269 1465 272 1456 269 1461 b 276 1479 269 1469 272 1475 b 290 1486 281 1483 286 1486 b 304 1479 294 1486 300 1483 z "},"a":{"ha":1542,"x_min":0,"x_max":0,"o":"m 88 107 b 176 0 88 39 119 0 b 211 4 186 0 199 1 b 215 6 213 4 214 4 l 218 6 b 222 7 219 6 221 6 l 226 7 l 229 8 l 233 8 l 236 10 b 240 11 238 10 239 10 l 243 11 b 251 13 244 13 247 13 l 254 14 l 260 14 l 263 15 l 267 15 b 271 17 268 17 269 17 l 274 17 b 278 18 275 18 276 18 l 281 19 l 285 19 b 289 21 286 21 288 21 l 292 21 b 296 22 293 22 294 22 l 299 22 l 300 24 l 303 24 b 396 44 335 31 364 38 b 678 508 486 194 589 364 b 622 517 657 513 640 513 b 518 553 597 521 532 535 b 508 569 511 560 508 565 b 518 583 508 575 511 579 b 563 606 532 593 547 601 b 674 628 600 615 636 621 b 676 629 675 628 675 628 l 678 629 l 679 629 l 681 631 l 681 631 l 682 631 l 682 631 l 682 631 b 783 671 706 663 746 671 b 858 647 813 671 838 663 b 868 640 863 647 867 644 b 901 626 875 628 886 628 b 1036 588 939 619 1003 610 b 1036 550 1054 576 1054 561 b 996 531 1024 540 1011 535 b 889 510 961 521 926 519 b 875 508 882 510 878 510 b 1160 39 965 358 1069 189 b 1332 6 1219 25 1278 14 b 1375 1 1349 3 1363 1 b 1460 119 1440 1 1458 36 b 1461 169 1461 136 1461 153 l 1461 171 l 1461 172 l 1461 183 l 1461 185 l 1461 193 l 1461 194 l 1461 219 b 1460 421 1461 253 1460 319 b 1461 615 1460 521 1461 583 l 1461 617 l 1461 618 l 1461 628 l 1461 631 l 1461 638 l 1461 639 l 1461 664 b 1460 713 1461 681 1461 697 b 767 1388 1449 1090 1144 1388 b 99 775 426 1388 128 1125 b 86 492 90 681 86 586 b 88 219 86 458 88 369 z m 410 1083 b 492 999 421 1038 449 1008 b 410 911 447 986 419 957 b 326 999 400 957 372 986 b 410 1083 372 1008 400 1036 z m 1111 1047 b 1161 997 1118 1021 1135 1004 b 1111 944 1135 990 1118 974 b 1063 997 1107 974 1092 990 b 1111 1047 1089 1003 1106 1019 z m 856 319 b 863 313 857 317 860 314 b 867 315 864 313 865 314 l 871 319 b 863 326 867 324 867 326 b 856 319 858 326 860 324 z m 664 294 b 682 276 664 282 669 276 l 685 276 b 701 294 696 276 701 282 b 683 311 701 306 696 311 l 681 311 b 664 294 669 311 664 306 z m 651 39 b 664 32 656 35 660 32 b 676 35 667 32 671 33 b 754 60 699 46 728 60 b 775 56 761 60 768 58 l 782 56 b 807 64 792 56 800 58 b 874 122 829 85 851 104 b 890 129 881 126 886 129 b 956 151 917 132 938 139 b 965 167 963 156 965 160 b 961 178 965 169 964 174 b 949 185 957 182 953 185 b 938 182 947 185 943 183 b 915 169 931 178 922 174 b 886 164 903 168 893 164 b 878 165 882 164 879 164 b 858 169 867 169 860 169 b 844 165 853 169 849 168 b 806 231 829 189 815 211 b 790 242 801 238 796 242 b 779 238 786 242 783 240 b 772 225 775 233 772 229 b 775 213 772 222 774 218 b 818 142 790 189 803 168 b 789 118 807 135 799 125 b 781 124 786 119 783 121 b 728 140 765 135 747 140 b 694 135 717 140 706 139 b 686 129 693 133 690 133 b 681 115 682 125 681 121 b 683 107 681 114 682 111 b 696 100 688 103 692 100 b 704 101 700 100 703 100 b 715 104 710 103 714 104 l 726 104 b 761 93 739 104 750 103 b 658 64 724 93 689 83 b 647 49 651 60 647 54 b 651 39 647 46 649 43 z m 844 211 b 874 183 844 196 857 183 b 903 213 889 183 903 196 b 874 240 903 228 889 240 b 844 211 857 240 844 228 z m 594 72 b 606 83 601 72 606 76 b 594 94 606 90 601 94 b 583 83 588 93 583 89 b 594 72 583 76 588 72 z "},"b":{"ha":1576,"x_min":0,"x_max":0,"o":"m 100 131 b 182 4 100 69 100 4 b 764 0 378 3 568 0 b 1160 7 897 0 1026 1 b 1460 275 1313 11 1431 135 b 1469 367 1467 304 1469 335 b 1318 651 1469 481 1419 575 l 1317 653 l 1315 653 l 1315 654 l 1314 654 l 1310 658 l 1308 658 l 1308 660 l 1307 660 l 1307 661 l 1306 661 l 1301 665 l 1300 665 l 1300 667 l 1299 667 l 1294 671 l 1293 671 l 1293 672 l 1292 672 l 1290 674 b 1258 699 1281 681 1271 689 b 1315 738 1282 714 1299 726 b 1449 910 1378 783 1422 842 b 1471 1036 1475 976 1471 1021 b 1460 1122 1471 1065 1467 1093 b 1156 1383 1422 1264 1304 1379 b 832 1388 1047 1386 939 1388 b 185 1383 614 1388 403 1383 b 101 1299 131 1383 103 1356 b 100 1263 100 1286 100 1275 l 100 1257 l 100 1256 l 100 1253 l 100 1251 l 100 1250 l 100 1249 l 100 1247 l 100 1246 l 100 1244 z m 1236 1218 b 1333 1118 1247 1164 1279 1131 b 1236 1015 1278 1103 1246 1075 b 1138 1118 1224 1072 1190 1106 b 1236 1218 1193 1131 1221 1163 z m 260 835 b 332 907 300 843 324 867 b 403 835 340 867 364 843 b 332 758 365 825 342 799 b 260 835 324 799 300 824 z m 597 636 b 551 604 582 626 567 615 b 539 600 547 601 543 600 b 528 603 538 600 533 601 b 454 636 501 615 478 626 b 424 643 444 640 436 639 b 524 497 447 583 486 542 b 476 456 508 485 494 471 b 400 556 450 489 424 521 b 367 621 385 578 374 600 b 363 649 364 631 363 639 b 424 704 363 675 375 704 b 597 636 476 704 553 661 z m 715 599 b 876 506 786 599 839 568 b 908 400 897 468 908 432 b 900 343 908 388 906 369 b 828 244 893 315 868 282 b 1004 164 885 211 933 175 b 993 188 999 175 997 182 l 943 261 b 938 274 939 265 938 272 l 938 276 b 963 333 944 294 953 311 b 1000 288 976 318 989 303 b 1063 178 1026 253 1051 221 b 1064 160 1064 174 1064 167 b 1007 103 1064 131 1046 103 l 1000 103 b 775 204 926 107 835 167 b 746 213 768 210 757 211 b 701 211 725 213 708 211 b 681 213 692 211 685 211 b 594 250 650 217 621 229 b 711 383 686 265 711 343 b 710 400 711 390 711 396 b 551 507 700 471 647 507 b 715 599 592 568 646 599 z m 519 381 b 583 447 519 418 546 447 b 649 381 618 447 649 418 b 583 314 649 343 621 314 b 519 376 546 314 519 343 z "},"c":{"ha":1596,"x_min":0,"x_max":0,"o":"m 96 536 b 118 136 96 403 100 269 l 118 133 l 119 132 l 119 126 l 121 125 l 121 122 b 125 106 122 118 124 113 b 143 74 129 94 136 85 b 178 47 153 64 163 57 b 376 11 214 21 332 15 b 819 0 526 1 669 0 l 994 0 b 1049 1 1013 0 1031 0 b 1238 3 1121 1 1183 3 b 1347 7 1293 4 1329 6 b 1454 82 1410 7 1447 17 b 1461 144 1458 99 1460 118 b 1471 258 1465 182 1467 218 b 1478 374 1475 297 1476 336 b 1481 481 1479 411 1481 447 b 1478 568 1481 515 1479 544 b 1439 636 1476 593 1463 615 b 1358 665 1413 658 1386 665 l 1350 665 l 836 658 b 753 669 803 658 775 663 b 725 694 735 676 725 685 b 833 732 725 726 813 732 l 1290 732 b 1492 854 1367 732 1476 767 b 1501 950 1496 882 1500 913 b 1497 1172 1501 1024 1500 1097 b 1496 1272 1497 1210 1496 1240 b 1492 1338 1496 1300 1494 1322 b 1472 1372 1488 1356 1481 1367 b 1436 1383 1463 1379 1451 1382 b 1424 1385 1432 1385 1428 1385 l 1422 1385 l 1421 1385 l 1421 1385 l 1419 1385 l 1418 1385 l 1418 1385 l 1417 1385 l 1417 1385 l 1411 1385 l 1411 1385 l 1410 1385 l 1410 1385 l 1381 1385 b 1235 1386 1349 1385 1301 1386 b 1183 1388 1217 1388 1200 1388 l 1176 1388 l 1175 1388 l 1174 1388 l 1171 1388 l 1169 1388 l 1168 1388 l 1164 1388 l 1161 1388 l 1160 1388 l 1158 1388 l 1154 1388 l 1142 1388 l 1140 1388 l 1132 1388 l 1131 1388 l 769 1388 b 567 1385 686 1388 621 1386 b 517 1383 549 1383 532 1383 l 513 1383 l 511 1383 l 507 1383 l 506 1383 l 501 1383 l 497 1383 l 496 1383 l 493 1383 l 492 1383 l 479 1383 l 478 1383 l 475 1383 l 474 1383 l 471 1383 l 469 1383 l 381 1383 b 158 1354 325 1383 210 1383 b 125 1301 139 1344 128 1326 b 119 1176 124 1267 121 1225 b 194 1196 142 1192 168 1196 b 322 1067 264 1196 322 1138 b 217 961 322 1007 276 961 b 133 1046 171 961 133 997 b 201 1118 133 1086 164 1118 b 261 1060 233 1118 261 1092 b 213 1011 261 1032 239 1011 b 172 1051 190 1011 172 1029 l 189 1051 b 213 1029 189 1039 200 1029 b 243 1060 229 1029 243 1043 b 201 1100 243 1082 225 1100 b 150 1046 174 1100 150 1078 b 217 979 150 1008 179 979 b 304 1067 265 979 304 1018 b 194 1178 304 1128 256 1178 b 118 1156 167 1178 139 1171 b 108 967 114 1096 113 1035 b 106 908 107 949 106 929 b 232 856 138 876 183 856 b 318 874 261 856 290 861 b 317 886 317 875 317 879 b 356 925 317 907 333 925 b 381 915 365 925 374 922 b 456 1083 426 956 456 1015 l 474 1083 b 392 900 474 1011 442 944 b 393 886 392 896 393 890 b 356 847 393 865 376 847 b 328 858 343 847 335 853 b 232 839 294 846 263 839 b 104 886 182 839 139 854 b 100 757 104 843 103 800 b 96 536 97 682 96 608 z m 285 1251 b 308 1228 297 1251 308 1240 b 285 1206 308 1215 297 1206 b 263 1228 269 1206 263 1213 b 285 1251 263 1240 272 1251 z m 1157 1181 b 1226 1110 1165 1142 1189 1118 b 1157 1033 1188 1099 1164 1076 b 1083 1110 1147 1076 1126 1097 b 1157 1181 1126 1119 1147 1142 z m 778 238 b 822 296 789 261 804 279 l 1075 635 b 1082 639 1076 638 1078 639 b 1090 636 1083 639 1086 638 b 1094 629 1093 635 1094 632 b 1092 622 1094 628 1093 626 l 867 317 b 904 324 882 321 894 324 b 1033 236 961 324 1013 290 b 1044 183 1040 217 1044 199 b 1038 142 1044 171 1042 157 l 1340 371 b 1347 374 1344 372 1346 374 b 1356 368 1350 374 1353 372 b 1358 361 1357 367 1358 364 b 1353 353 1358 358 1357 356 l 1014 97 b 906 44 986 63 950 44 b 778 131 849 44 800 76 b 768 183 771 147 768 165 b 778 238 768 203 771 221 z m 1247 554 b 1254 558 1249 557 1250 558 b 1263 556 1256 558 1258 557 b 1267 547 1265 553 1267 550 b 1263 540 1267 546 1265 543 l 1042 306 b 1033 301 1039 303 1036 301 b 1026 306 1032 301 1029 303 b 1024 313 1025 310 1024 311 b 1026 321 1024 314 1025 317 z m 838 489 b 865 518 838 506 850 518 b 892 489 881 518 892 506 b 865 461 892 474 881 461 b 838 489 850 461 838 474 z m 1224 143 b 1236 133 1232 143 1236 140 b 1224 121 1236 125 1232 121 b 1213 133 1217 121 1213 125 b 1224 143 1213 140 1217 143 z "},"d":{"ha":1540,"x_min":0,"x_max":0,"o":"m 99 210 b 100 189 99 199 99 192 b 156 250 121 210 138 229 b 178 261 163 257 171 261 b 188 258 179 261 182 260 b 238 240 203 251 217 247 b 110 122 193 200 153 161 b 128 83 115 107 118 94 b 222 175 160 115 190 143 b 231 179 225 178 228 179 b 240 175 235 179 238 178 b 278 144 251 165 263 156 b 168 40 240 107 206 72 b 192 25 175 33 182 29 b 322 158 235 69 278 113 b 349 114 332 140 343 129 b 350 110 350 113 350 111 b 344 97 350 108 349 101 b 261 8 317 65 289 40 l 260 8 b 290 6 269 7 279 7 b 581 0 386 1 481 0 b 850 8 669 0 760 3 b 1471 689 1197 35 1467 339 l 1471 697 b 872 1375 1471 1033 1221 1342 b 575 1388 772 1385 675 1388 b 311 1385 486 1388 400 1385 b 99 1167 158 1385 103 1322 b 97 1088 97 1140 97 1114 l 97 1083 l 97 1081 l 97 1078 l 97 1075 l 97 1074 l 97 1057 l 97 1054 l 97 1051 l 97 1049 l 97 1010 b 99 693 97 956 99 854 b 97 371 99 531 97 425 l 97 365 l 97 364 l 97 361 l 97 358 l 97 356 l 97 339 l 97 336 l 97 333 l 97 331 l 97 290 b 99 210 97 264 97 236 z m 438 1238 b 535 1139 449 1183 481 1151 b 438 1036 481 1124 447 1096 b 339 1138 425 1092 392 1125 b 438 1238 394 1150 422 1183 z m 144 383 b 158 407 151 393 154 400 b 211 471 176 428 196 447 b 285 518 229 497 254 513 b 421 600 344 525 382 556 b 869 842 532 726 694 842 b 892 807 890 842 890 835 b 639 336 892 625 763 456 b 613 257 622 319 613 281 b 488 82 613 168 538 143 b 457 164 476 114 467 138 b 399 219 447 196 439 219 l 390 219 b 306 168 342 215 328 201 b 264 207 289 183 276 194 b 264 226 260 211 260 222 b 292 283 290 253 292 271 b 285 317 292 292 289 303 b 250 353 278 338 272 347 b 144 383 215 360 182 372 z m 1138 767 b 1210 839 1178 775 1201 799 b 1281 767 1219 800 1243 776 b 1210 692 1242 757 1218 732 b 1138 767 1201 732 1178 757 z m 508 528 b 586 451 508 485 543 451 b 663 529 631 451 663 486 b 583 607 663 572 632 607 b 508 528 543 607 508 571 z "},"e":{"ha":1263,"x_min":0,"x_max":0,"o":"m 114 126 b 157 36 114 89 128 60 b 253 0 183 13 215 0 l 261 0 l 1063 14 b 1169 115 1118 18 1169 56 l 1169 182 b 1089 229 1169 210 1113 229 l 910 232 b 842 294 872 232 842 254 b 863 335 842 308 849 322 b 910 351 878 346 893 351 l 1057 351 b 1169 447 1113 351 1169 386 l 1169 582 b 1086 653 1169 626 1126 653 l 950 653 b 856 722 910 653 861 678 l 854 735 l 854 740 b 871 775 854 753 860 765 b 915 792 883 785 899 790 l 1094 800 b 1163 865 1132 804 1163 826 l 1158 1218 b 667 1047 985 1194 824 1136 b 1157 1240 794 1176 975 1236 l 1157 1300 b 615 1025 944 1278 742 1207 b 826 1261 647 1143 726 1218 b 1099 1310 926 1304 1025 1310 l 1100 1310 l 1101 1310 l 1103 1310 l 1103 1310 l 1104 1310 l 1104 1310 l 1107 1310 l 1108 1310 l 1111 1310 l 1113 1310 l 1114 1310 l 1115 1310 l 1117 1310 l 1124 1310 l 1125 1310 l 1128 1310 b 1157 1308 1138 1310 1147 1310 b 1129 1363 1153 1329 1146 1347 b 1110 1376 1124 1367 1117 1372 b 1008 1371 1072 1375 1036 1375 b 1082 1385 1035 1375 1058 1381 b 1063 1388 1072 1386 1067 1388 l 243 1388 b 96 1264 171 1388 100 1342 z m 931 1358 b 574 975 738 1318 585 1175 b 556 1068 561 1006 556 1036 b 643 1254 556 1113 569 1186 b 924 1358 715 1321 822 1358 z m 490 867 l 471 1015 l 567 900 l 686 992 l 633 850 l 774 793 l 625 768 l 646 617 l 550 735 l 429 642 l 482 783 l 343 840 z m 328 408 b 399 336 338 368 361 344 b 328 263 360 326 338 306 b 256 336 319 303 296 326 b 328 408 296 344 319 368 z "},"f":{"ha":1214,"x_min":0,"x_max":0,"o":"m 657 0 b 761 99 713 0 761 39 l 761 307 b 854 392 761 356 806 392 l 968 392 b 1013 407 986 392 1000 397 b 1031 447 1025 418 1031 432 l 1031 603 b 1013 643 1031 618 1025 631 b 968 660 1000 654 985 660 l 847 660 b 761 736 803 660 765 690 b 847 814 761 785 801 814 l 1078 814 b 1158 889 1121 814 1158 844 l 1157 1311 b 1075 1388 1157 1357 1119 1388 l 183 1388 b 100 1311 135 1388 100 1360 l 100 76 b 183 0 100 28 135 0 z m 149 599 b 236 790 161 669 199 731 b 299 879 257 819 276 846 b 313 822 306 856 311 839 b 304 799 313 815 308 808 b 214 639 272 744 243 693 b 200 596 204 626 204 611 b 197 574 199 586 197 581 b 232 540 197 551 208 540 b 253 543 236 540 243 542 b 875 1096 471 599 764 906 b 925 1211 896 1133 910 1174 b 929 1238 929 1221 929 1228 b 907 1272 929 1264 918 1272 b 893 1269 903 1272 899 1271 b 679 1169 806 1254 750 1218 b 647 1157 668 1161 657 1157 b 631 1160 646 1157 640 1158 b 597 1169 621 1165 610 1165 b 599 1171 597 1171 597 1171 l 599 1174 l 600 1174 l 600 1175 b 900 1322 678 1235 801 1322 b 981 1239 950 1322 981 1289 b 738 832 981 1111 819 918 b 254 493 611 694 440 542 b 226 489 244 490 235 489 b 146 571 169 489 146 531 b 149 599 146 581 147 589 z m 232 1172 b 281 1121 236 1143 251 1126 b 232 1069 253 1114 236 1097 b 181 1121 225 1096 208 1113 b 232 1172 208 1126 225 1143 z m 351 926 b 563 1119 363 1033 454 1119 b 651 1100 589 1119 618 1113 b 499 950 597 1046 549 999 l 535 914 l 615 994 b 696 1078 642 1021 668 1049 b 746 1014 714 1054 731 1035 b 747 1008 747 1013 747 1011 b 743 996 747 1007 747 1000 b 474 726 664 896 575 806 b 461 722 469 722 463 722 b 454 725 458 722 456 724 b 350 908 383 763 350 854 b 351 926 350 917 350 922 z m 414 857 l 415 857 l 417 856 l 417 854 l 418 854 l 418 853 l 419 853 l 419 851 l 422 849 l 422 847 l 424 847 l 424 846 l 425 846 l 425 844 l 426 843 l 428 843 l 428 842 b 440 826 433 835 438 829 b 494 875 461 843 478 860 l 465 904 b 414 858 447 889 429 874 z m 561 486 b 632 414 569 449 593 424 b 561 340 593 404 568 383 b 489 414 553 381 529 404 b 561 486 532 424 551 446 z "},"g":{"ha":1483,"x_min":0,"x_max":0,"o":"m 113 294 b 135 143 119 233 125 183 b 315 15 157 32 218 22 b 618 1 415 6 518 1 b 663 0 633 0 647 0 l 917 0 b 956 1 929 0 943 0 b 1203 6 1039 1 1119 1 b 1314 17 1238 6 1281 6 b 1338 39 1325 22 1333 28 b 1350 76 1344 49 1349 61 b 1365 258 1360 136 1364 199 b 1367 297 1367 271 1367 285 l 1367 299 l 1367 300 l 1367 301 l 1367 304 l 1367 307 l 1367 308 l 1367 311 l 1367 314 l 1367 315 l 1367 329 l 1367 331 l 1367 665 b 1338 735 1367 689 1357 713 b 1267 765 1318 756 1294 765 l 992 761 b 854 628 918 757 854 707 l 854 307 b 842 279 854 294 850 286 b 813 268 835 272 825 268 b 785 279 801 268 792 272 b 772 307 776 286 772 294 l 772 779 b 832 835 772 813 800 835 l 1288 838 b 1336 846 1310 838 1326 840 b 1361 872 1347 856 1356 861 b 1372 914 1367 885 1371 897 b 1388 1043 1382 957 1383 999 l 1388 1150 l 1388 1153 l 1388 1154 l 1388 1154 l 1388 1156 l 1388 1157 l 1388 1158 l 1388 1160 l 1388 1164 l 1388 1164 l 1388 1167 l 1388 1168 b 1386 1186 1388 1174 1388 1179 b 1383 1269 1385 1210 1383 1238 b 1381 1338 1383 1301 1382 1322 b 1365 1372 1378 1353 1372 1365 b 1335 1385 1358 1379 1347 1383 b 1293 1388 1324 1386 1310 1388 l 818 1388 b 410 1383 682 1388 546 1386 b 281 1378 354 1382 313 1382 b 261 1376 276 1376 271 1376 l 240 1376 b 161 1350 208 1376 182 1368 b 138 1313 150 1343 142 1331 b 94 721 94 1117 94 921 b 113 294 94 576 97 439 z m 596 1135 l 735 1167 l 747 1308 l 822 1186 l 961 1218 l 867 1110 l 940 989 l 808 1046 l 714 936 l 724 1036 b 511 539 546 888 511 671 l 511 538 l 511 536 l 511 536 l 511 536 l 511 535 l 511 533 l 511 533 l 511 525 l 511 525 b 513 499 511 518 511 508 b 535 363 513 454 524 389 b 458 519 508 407 479 451 b 424 303 438 449 429 371 b 386 424 414 326 397 374 b 372 522 375 472 372 506 b 376 560 372 536 374 549 b 324 396 344 506 328 450 b 317 501 319 433 317 468 b 424 851 317 608 346 735 b 696 1093 501 968 607 1044 z m 183 1099 b 257 1171 226 1108 247 1131 b 328 1099 265 1133 289 1108 b 257 1024 288 1089 264 1064 b 183 1099 247 1064 226 1088 z m 1117 610 b 1189 536 1126 569 1146 547 b 1117 463 1149 526 1126 506 b 1046 536 1108 501 1085 526 b 1117 610 1085 547 1108 572 z "},"h":{"ha":1435,"x_min":0,"x_max":0,"o":"m 738 50 b 788 0 738 24 760 0 l 1244 0 b 1333 89 1304 0 1333 29 l 1333 208 b 1332 839 1333 563 1332 768 b 1335 1260 1332 979 1333 1119 l 1335 1267 b 1219 1388 1335 1356 1303 1388 l 1214 1388 b 867 1382 986 1385 904 1382 l 864 1382 l 861 1382 l 860 1382 l 858 1382 l 856 1382 l 853 1382 l 853 1382 l 843 1382 l 842 1382 l 839 1382 l 838 1382 l 772 1382 b 738 1346 751 1382 738 1367 l 738 1071 b 768 1036 738 1053 747 1040 b 1058 689 933 1010 1058 867 b 772 350 1058 519 932 376 b 738 311 751 346 738 329 z m 100 1272 b 103 1042 101 1194 103 1119 b 101 696 103 1003 101 890 b 103 300 101 496 103 365 l 103 278 l 103 275 l 103 272 l 103 269 l 103 267 l 103 263 l 103 260 l 103 257 l 103 254 l 103 251 l 103 200 b 101 101 103 167 103 133 b 185 0 101 40 117 0 l 647 0 b 697 50 676 0 697 24 l 697 310 b 664 350 697 332 686 346 b 375 688 499 376 375 526 l 375 696 b 668 1036 375 867 506 1010 b 697 1071 685 1040 697 1053 l 697 1346 b 663 1381 697 1369 686 1381 b 201 1386 511 1381 358 1382 l 196 1386 b 100 1279 124 1386 100 1350 z m 1026 1110 b 1124 1011 1038 1056 1069 1024 b 1026 908 1069 996 1036 968 b 928 1011 1014 965 985 996 b 1026 1110 982 1024 1014 1056 z m 311 1003 b 357 1049 336 1010 351 1025 b 401 1003 363 1025 378 1010 b 357 956 375 997 361 982 b 311 1003 351 982 339 997 z m 422 690 b 704 400 422 528 558 400 l 711 400 b 999 693 872 404 999 533 b 708 982 994 853 868 982 b 422 690 549 982 422 849 z m 797 815 b 833 851 797 836 813 851 b 869 815 854 851 869 836 b 833 779 869 794 854 779 b 797 815 813 779 797 794 z m 594 849 b 676 768 640 849 676 811 l 676 764 b 594 683 676 719 639 683 b 511 764 550 683 513 721 b 594 849 511 810 550 849 z m 542 765 b 594 711 542 736 567 711 b 647 767 624 711 647 738 b 594 821 647 796 622 821 b 542 769 565 821 542 796 z m 883 561 b 821 500 883 528 856 500 b 758 561 788 500 758 528 b 819 622 758 593 788 622 b 883 561 854 622 882 594 z m 789 561 b 821 528 789 543 803 529 b 854 561 839 528 854 543 b 819 593 854 578 840 593 b 789 561 803 593 789 578 z m 603 558 b 621 582 604 568 615 572 b 640 563 631 575 640 569 l 640 560 b 625 532 640 553 632 547 b 603 558 615 544 603 551 z "},"i":{"ha":838,"x_min":0,"x_max":0,"o":"m 99 131 b 224 0 99 15 114 0 l 236 0 b 279 51 240 26 256 40 b 296 69 286 57 292 63 b 338 110 304 89 318 103 b 351 124 343 114 350 118 b 363 199 357 147 358 171 b 296 144 332 188 310 169 b 276 131 292 135 286 131 l 274 131 b 199 143 247 136 225 139 b 185 164 189 144 185 151 b 267 356 192 236 217 301 b 274 371 271 360 274 365 l 274 376 b 269 428 271 394 269 411 b 401 675 269 529 314 613 b 411 696 407 679 410 689 b 413 707 413 699 413 703 l 413 729 b 419 744 413 735 415 740 l 425 744 b 428 706 426 729 428 718 l 428 700 b 444 671 428 688 433 678 b 571 428 529 608 571 528 b 567 375 571 410 569 393 b 575 350 567 368 569 357 b 651 161 624 296 647 232 l 651 158 b 640 143 651 153 646 144 b 557 132 613 138 583 136 b 535 146 550 132 539 136 b 475 194 519 168 503 183 b 488 119 479 168 483 143 b 499 108 488 115 494 110 b 544 63 521 101 536 86 b 558 50 547 58 551 54 b 601 0 582 40 597 24 l 614 0 b 738 128 726 0 738 11 l 738 1246 b 625 1372 738 1321 681 1354 b 513 1388 590 1382 553 1388 l 326 1383 b 213 1368 286 1383 247 1378 b 99 1229 156 1350 99 1311 z m 525 1238 b 597 1164 535 1197 554 1174 b 525 1089 557 1154 533 1129 b 454 1164 518 1129 494 1154 b 525 1238 493 1174 517 1199 z m 415 338 b 510 433 469 338 508 379 b 413 532 510 488 468 532 b 318 436 361 532 319 488 b 415 338 318 381 360 338 z m 365 499 b 415 515 379 510 396 515 b 461 500 431 515 446 510 b 494 436 489 478 494 451 b 488 408 494 429 492 419 b 453 431 475 418 463 424 b 457 457 454 440 456 450 b 436 442 450 453 443 447 b 422 435 432 438 426 435 l 418 435 b 343 404 389 435 364 425 b 336 438 339 417 336 428 b 365 499 336 450 338 475 z m 479 392 b 415 353 467 365 442 353 b 351 388 392 353 367 364 b 418 419 369 408 392 419 b 479 392 440 419 461 410 z "},"j":{"ha":1179,"x_min":0,"x_max":0,"o":"m 158 0 b 369 3 229 1 299 3 l 721 3 b 1076 329 917 3 1069 132 b 1083 731 1081 464 1083 597 b 1079 1265 1083 775 1083 949 l 592 758 l 650 736 l 583 711 l 558 644 l 535 711 l 468 736 l 535 761 l 558 828 l 578 779 l 1078 1269 l 1078 1289 b 1021 1375 1078 1318 1047 1364 b 914 1383 1006 1379 965 1382 l 664 1115 l 708 1100 l 657 1081 l 638 1029 l 618 1081 l 567 1100 l 618 1119 l 638 1171 l 650 1136 l 913 1383 b 708 1388 851 1385 774 1388 l 583 1388 b 447 1319 489 1388 454 1376 l 460 1325 l 471 1354 l 482 1325 l 511 1315 l 482 1303 l 471 1274 l 460 1303 l 446 1308 b 443 1246 444 1292 443 1272 l 443 953 l 451 950 l 443 949 l 443 490 b 257 492 343 490 286 492 l 256 492 l 254 492 l 253 492 l 251 492 l 247 492 l 243 492 l 242 492 l 240 492 l 236 492 l 235 492 l 218 492 l 217 492 l 213 492 b 168 490 197 492 183 492 b 50 368 63 490 50 479 l 50 192 l 50 190 l 50 186 l 50 185 l 50 183 l 50 182 l 50 181 l 50 179 l 50 178 l 50 176 l 50 156 b 49 113 50 142 50 128 l 49 100 b 147 0 49 32 69 0 z m 740 785 l 761 842 l 775 801 l 1044 1054 l 790 782 l 840 763 l 782 742 l 761 682 l 740 742 l 682 763 z m 383 208 l 394 179 l 1029 800 l 414 161 l 440 151 l 399 136 l 383 93 l 368 136 l 326 151 l 368 167 z m 493 486 l 506 521 l 519 486 l 554 471 l 519 458 l 506 424 l 493 458 l 457 471 z m 885 428 l 896 394 l 928 383 l 896 372 l 885 339 l 872 372 l 840 383 l 872 394 z m 732 165 l 743 197 l 756 165 l 788 153 l 756 140 l 743 108 l 732 140 l 700 153 z "},"k":{"ha":1461,"x_min":0,"x_max":0,"o":"m 100 1267 b 101 1076 101 1203 101 1139 l 101 1061 l 101 1056 l 101 1035 l 101 1029 l 101 1024 l 101 1017 l 101 885 b 100 507 101 757 100 635 l 100 478 l 100 472 l 100 454 l 100 449 l 100 442 l 100 436 l 100 431 l 100 425 l 100 419 l 100 413 l 100 317 b 101 126 100 254 100 190 b 224 1 101 22 124 1 b 350 0 267 0 308 0 l 721 0 b 1025 -1 893 0 992 -1 b 1228 1 1093 -1 1160 0 b 1333 28 1286 1 1321 10 b 1350 76 1344 46 1350 61 b 1328 156 1350 99 1343 125 b 1136 568 1265 294 1201 429 b 1106 694 1115 608 1106 651 b 1136 822 1106 738 1115 781 b 1328 1235 1203 961 1267 1096 b 1350 1314 1343 1265 1350 1292 b 1335 1361 1350 1326 1344 1343 b 1235 1386 1324 1378 1290 1386 b 1065 1388 1178 1388 1121 1388 l 1044 1388 l 1039 1388 l 1033 1388 l 1028 1388 l 1024 1388 l 1018 1388 l 1006 1388 l 997 1388 l 992 1388 l 988 1388 l 974 1388 l 935 1388 l 929 1388 l 904 1388 l 899 1388 l 219 1388 b 100 1267 136 1388 100 1351 z m 311 903 b 344 964 321 924 329 946 b 632 1149 424 1053 515 1117 b 636 1151 633 1149 635 1150 b 586 1208 603 1164 586 1182 b 588 1218 586 1213 586 1215 b 642 1263 593 1244 615 1263 l 644 1263 b 696 1215 671 1263 692 1242 b 697 1206 697 1214 697 1210 b 650 1153 697 1188 683 1164 b 657 1151 651 1151 653 1151 b 703 1117 700 1147 703 1128 b 693 1086 703 1107 700 1096 b 499 908 647 1008 576 951 b 488 926 494 915 492 919 b 532 956 503 936 517 946 b 678 1103 586 993 646 1043 b 679 1114 679 1106 679 1110 b 660 1128 679 1124 672 1128 b 335 906 560 1128 368 986 b 331 890 332 899 331 893 b 353 878 331 886 331 879 l 372 878 b 376 856 374 872 375 867 b 329 860 360 857 344 856 b 307 888 313 865 307 881 b 311 903 307 892 308 897 z m 794 1133 b 800 1165 799 1144 800 1156 b 740 1214 800 1197 781 1213 l 717 1214 b 714 1236 715 1224 715 1226 b 732 1238 718 1238 725 1238 b 782 1226 744 1238 760 1238 b 822 1164 808 1214 822 1193 b 821 1150 822 1157 822 1153 b 647 919 803 1061 714 975 b 640 929 646 924 643 926 l 640 929 l 639 931 l 639 931 l 638 932 l 638 932 l 636 933 l 636 933 l 635 935 l 635 935 l 633 936 l 633 936 b 790 1126 694 990 761 1049 z m 561 1190 b 568 1174 565 1183 567 1178 b 433 1092 522 1146 476 1124 b 311 993 390 1063 354 1028 b 297 1006 310 994 304 999 b 561 1190 375 1083 461 1144 z m 256 997 b 300 951 279 997 300 978 b 256 908 299 928 279 908 b 213 951 232 908 213 928 b 256 997 213 978 232 997 z m 389 897 b 432 942 389 921 408 940 b 476 897 456 942 476 921 b 433 853 476 871 456 854 b 389 897 407 853 389 871 z m 521 886 b 575 942 521 918 546 942 b 631 885 607 942 631 917 b 575 831 631 853 607 831 b 521 886 546 831 521 854 z m 200 851 b 214 893 204 867 208 878 b 232 885 221 889 226 889 b 222 849 231 872 226 861 b 219 829 221 842 219 836 b 271 781 219 800 236 785 b 283 779 274 779 278 779 l 296 779 b 407 806 333 779 369 790 b 503 847 439 818 471 832 l 507 839 l 507 838 b 508 835 507 836 507 836 l 508 833 l 510 833 l 510 832 b 511 829 511 831 511 831 b 351 765 460 801 407 776 b 269 758 325 760 296 758 b 199 831 215 763 199 796 b 200 851 199 840 199 847 z m 1014 600 b 1079 533 1021 564 1042 542 b 1014 463 1042 522 1019 503 b 944 533 1004 500 981 524 b 1014 600 982 543 1004 565 z m 519 528 b 551 558 536 532 547 542 b 582 528 554 542 564 532 b 551 496 564 522 553 511 b 519 528 547 511 536 522 z m 793 513 b 993 313 903 513 993 425 b 796 113 993 207 907 113 b 596 311 686 113 596 200 b 793 513 596 419 682 513 z m 879 374 b 903 397 894 374 903 382 b 879 424 903 415 894 424 b 854 399 863 424 854 415 b 879 374 854 383 863 375 z m 658 363 b 714 307 658 331 682 307 b 772 363 746 307 771 331 b 714 422 772 394 746 422 b 658 367 682 422 658 394 z m 714 401 b 751 365 735 401 750 386 b 714 328 751 343 735 328 b 679 363 690 328 679 339 l 679 367 b 714 401 679 385 693 401 z m 828 222 b 871 181 828 200 849 181 b 914 224 897 182 914 200 b 871 265 914 247 894 265 b 828 222 849 265 828 249 z m 871 246 b 893 222 886 246 893 235 b 871 200 893 211 883 200 b 849 222 858 200 849 211 b 871 246 849 238 856 246 z m 736 203 b 746 222 742 214 746 217 l 746 225 b 733 238 746 229 739 232 l 726 231 b 721 221 724 228 722 225 b 725 214 721 219 722 217 z "},"l":{"ha":1304,"x_min":0,"x_max":0,"o":"m 525 535 l 532 521 l 636 418 l 663 414 l 274 819 l 694 408 l 610 326 l 631 207 l 525 264 l 421 207 l 429 263 l 96 608 l 96 547 l 424 229 l 421 207 l 96 542 b 103 329 97 471 99 400 b 457 3 107 132 264 3 l 806 3 b 1154 0 933 3 1060 1 l 1165 0 b 1264 100 1239 0 1264 32 l 1264 113 b 1261 215 1263 147 1261 182 b 1263 368 1261 232 1263 283 b 1143 490 1263 479 1250 490 l 733 490 l 733 1246 b 596 1388 733 1374 724 1383 l 481 1388 b 157 1375 363 1388 190 1386 b 99 1289 131 1364 99 1318 b 94 885 97 1154 96 1018 l 503 488 z m 476 1206 b 549 1135 486 1167 506 1144 b 476 1060 508 1124 486 1103 b 406 1133 469 1100 446 1124 b 476 1206 444 1143 468 1168 z m 217 1019 b 264 1065 243 1026 258 1042 b 310 1019 269 1042 285 1026 b 264 971 283 1014 268 997 b 217 1019 258 997 243 1014 z m 478 438 l 493 471 l 94 883 l 94 811 z m 431 421 l 463 424 l 94 808 l 94 747 z m 94 689 l 378 413 l 408 417 l 94 743 z m 94 679 b 96 614 94 657 96 635 l 433 283 l 439 326 l 356 408 z m 613 422 l 547 489 l 578 426 z "},"m":{"ha":1571,"x_min":0,"x_max":0,"o":"m 100 1271 b 103 810 101 1115 103 964 b 101 119 103 732 101 507 b 172 0 101 40 125 0 b 382 106 236 0 333 68 b 429 318 389 150 396 161 b 507 415 439 364 464 396 b 538 476 514 419 528 447 b 549 529 547 504 549 522 b 546 543 549 535 547 539 b 519 657 514 576 519 617 b 551 756 519 694 513 729 b 565 783 561 760 561 774 b 790 931 604 885 674 931 b 1004 783 892 931 964 879 b 1049 714 1015 763 1049 725 b 1047 590 1050 674 1051 631 b 1024 546 1047 578 1033 563 b 1015 517 1014 528 1015 518 b 1031 488 1015 507 1021 497 b 1042 467 1038 481 1042 474 b 1043 465 1043 467 1043 467 b 1039 451 1043 464 1039 461 b 1081 401 1039 454 1032 426 b 1186 108 1132 372 1126 354 b 1400 0 1235 71 1335 0 b 1468 119 1446 0 1468 40 b 1469 215 1469 151 1469 183 l 1469 218 l 1469 221 l 1469 229 l 1469 232 l 1469 235 l 1469 238 l 1469 240 l 1469 243 l 1469 258 l 1469 261 l 1469 308 b 1468 497 1469 371 1468 435 l 1468 501 l 1468 506 l 1468 515 l 1468 535 l 1468 538 l 1468 540 l 1468 543 l 1468 592 b 1469 686 1468 622 1468 654 b 1468 1076 1469 882 1468 1011 l 1468 1081 l 1468 1085 l 1468 1094 l 1468 1115 l 1468 1118 l 1468 1121 l 1468 1124 l 1468 1174 b 1469 1271 1468 1206 1468 1239 l 1469 1276 b 1356 1388 1469 1354 1435 1388 b 822 1268 1175 1388 1003 1268 b 214 1388 622 1268 414 1388 b 100 1271 136 1388 100 1356 z m 332 1085 b 406 1158 375 1094 396 1118 b 475 1086 414 1118 438 1094 b 406 1011 436 1075 413 1054 b 332 1085 396 1051 375 1075 z m 1183 825 b 1231 872 1208 832 1224 849 b 1275 826 1236 847 1251 832 b 1231 778 1249 819 1235 804 b 1183 825 1224 804 1208 819 z m 613 589 b 650 543 613 568 625 553 b 804 519 704 528 756 519 b 926 535 844 519 886 524 b 969 581 967 544 969 558 b 968 599 969 588 969 594 b 831 553 838 561 849 568 b 794 539 818 543 807 539 b 749 586 761 539 749 571 b 768 624 749 593 750 608 b 794 635 778 631 788 635 b 863 599 822 635 844 599 b 907 615 869 599 889 606 l 908 615 l 911 618 l 913 618 b 919 621 914 619 915 619 l 919 622 l 921 622 l 925 625 l 928 625 l 928 626 l 929 626 b 933 629 931 628 932 628 b 951 639 943 633 949 638 b 974 693 967 650 974 672 b 950 756 974 692 974 735 b 792 803 911 788 851 803 b 635 754 732 803 675 788 b 613 671 611 731 613 686 b 614 631 613 660 614 640 l 614 629 l 614 628 l 614 625 l 614 624 l 614 622 l 614 622 l 614 617 l 614 615 l 614 614 b 613 599 614 608 614 603 z m 631 694 b 711 776 631 743 682 776 b 729 767 722 776 728 774 b 731 761 731 765 731 764 b 696 739 731 751 711 743 b 660 694 672 729 660 715 l 660 682 b 646 647 660 672 650 663 b 629 688 629 685 629 686 b 631 694 629 689 631 689 z "}}}
